<?xml version="1.0" encoding="UTF-8" standalone="no"?>
<!-- Generator: Adobe Illustrator 15.1.0, SVG Export Plug-In  -->

<svg
   xmlns:dc="http://purl.org/dc/elements/1.1/"
   xmlns:cc="http://creativecommons.org/ns#"
   xmlns:rdf="http://www.w3.org/1999/02/22-rdf-syntax-ns#"
   xmlns:svg="http://www.w3.org/2000/svg"
   xmlns="http://www.w3.org/2000/svg"
   xmlns:sodipodi="http://sodipodi.sourceforge.net/DTD/sodipodi-0.dtd"
   xmlns:inkscape="http://www.inkscape.org/namespaces/inkscape"
   version="1.0"
   x="0px"
   y="0px"
   width="40px"
   height="40px"
   viewBox="0 0 40 40"
   overflow="visible"
   enable-background="new 0 0 40 40"
   xml:space="preserve"
   id="svg2"
   inkscape:version="0.48.1 r9760"
   sodipodi:docname="menu_text.svg"><metadata
   id="metadata19"><rdf:RDF><cc:Work
       rdf:about=""><dc:format>image/svg+xml</dc:format><dc:type
         rdf:resource="http://purl.org/dc/dcmitype/StillImage" /><dc:title></dc:title></cc:Work></rdf:RDF></metadata><sodipodi:namedview
   pagecolor="#ffffff"
   bordercolor="#666666"
   borderopacity="1"
   objecttolerance="10"
   gridtolerance="10"
   guidetolerance="10"
   inkscape:pageopacity="0"
   inkscape:pageshadow="2"
   inkscape:window-width="915"
   inkscape:window-height="695"
   id="namedview17"
   showgrid="false"
   inkscape:zoom="12.675"
   inkscape:cx="20"
   inkscape:cy="20"
   inkscape:window-x="542"
   inkscape:window-y="140"
   inkscape:window-maximized="0"
   inkscape:current-layer="svg2" />
<defs
   id="defs4">
</defs>

<rect
   id="_x3C_Slice_x3E__68_"
   fill="none"
   width="40"
   height="40" />
<flowRoot
   xml:space="preserve"
   id="flowRoot3977"
   style="font-size:9px;font-style:normal;font-weight:normal;line-height:125%;letter-spacing:0px;word-spacing:0px;fill:#000000;fill-opacity:1;stroke:none;font-family:Sans"><flowRegion
     id="flowRegion3979"><rect
       id="rect3981"
       width="23.561644"
       height="12.602739"
       x="7.6712327"
       y="14.109589"
       style="font-size:9px" /></flowRegion><flowPara
     id="flowPara3983" /></flowRoot><text
   xml:space="preserve"
   style="font-size:9px;font-style:normal;font-weight:normal;line-height:125%;letter-spacing:0px;word-spacing:0px;fill:#000000;fill-opacity:1;stroke:none;font-family:Sans"
   x="17.123287"
   y="19.315067"
   id="text3985"
   sodipodi:linespacing="125%"><tspan
     sodipodi:role="line"
     id="tspan3987"
     x="17.123287"
     y="19.315067" /></text>

<path
   style="fill:#666666;fill-opacity:1;stroke:none"
   id="path3154"
   d="m 7.5971673,26.799812 c -0.1258039,-0.70815 -0.1809511,-1.428168 -0.2402974,-2.144569 -0.071862,-1.104408 -0.1325718,-2.21337 -0.07864,-3.320186 0.011544,-0.236904 0.033247,-0.473204 0.049871,-0.709806 0.1339037,-1.457388 0.4634515,-2.887909 0.8297523,-4.301924 0.288683,-0.965856 0.5286105,-1.97598 0.9743125,-2.886151 0.075728,-0.154646 0.1666229,-0.301392 0.2499344,-0.452088 0.7634929,-1.162573 1.7893679,-1.623432 2.9841229,-2.280831 0.794897,-0.324138 1.651162,-0.446253 2.503065,-0.492907 0.4371,-0.0027 0.7905,0.06639 1.064523,0.438868 0.166017,0.225668 0.231832,0.44419 0.335222,0.703247 0.361603,1.242235 0.350231,2.54862 0.396062,3.830313 0.02467,1.070072 0.07289,2.140334 0.05125,3.210908 -0.0149,0.737378 -0.02714,0.795232 -0.07578,1.523679 -0.0748,0.952946 -0.240468,1.894487 -0.36771,2.840821 -0.05741,0.427013 -0.102914,0.836874 -0.152328,1.264316 -0.06109,0.73459 -0.13244,1.465841 -0.288792,2.186892 -0.03734,0.178055 -0.08481,0.353671 -0.132385,0.529176 0,0 -1.027416,0.485508 -1.027416,0.485508 l 0,0 c 0.06029,-0.176067 0.11911,-0.352814 0.15881,-0.53498 0.203769,-0.728654 0.309909,-1.47664 0.39923,-2.226928 0.05891,-0.425464 0.113338,-0.851545 0.173523,-1.276829 0.133991,-0.946813 0.305999,-1.888792 0.38705,-2.842561 0.0194,-0.249783 0.0435,-0.499247 0.0582,-0.74935 0.07793,-1.325367 0.02837,-2.653078 -0.02348,-3.978331 -0.05978,-1.255409 -0.07832,-2.541807 -0.47646,-3.746116 -0.10884,-0.239809 -0.18014,-0.443459 -0.346381,-0.648503 -0.262664,-0.323974 -0.601428,-0.374835 -0.994957,-0.376931 -0.843007,0.04394 -1.687387,0.170622 -2.464508,0.517048 0.174505,-0.11136 0.353695,-0.2157 0.523515,-0.334082 0.120982,-0.08434 -0.253616,0.150788 -0.376831,0.231829 -0.534078,0.351275 -1.014956,0.774484 -1.372973,1.30881 -0.08655,0.148599 -0.18026,0.293247 -0.259634,0.445797 -0.4742779,0.911513 -0.7238415,1.922326 -1.0329642,2.895631 -0.3733676,1.407175 -0.7014848,2.831454 -0.8344569,4.284349 -0.044176,0.617777 -0.06673,0.788863 -0.069905,1.407684 -0.00443,0.862872 0.060761,1.725532 0.1358669,2.58441 0.080489,0.689518 0.1459859,1.394775 0.3619567,2.057583 0,0 -1.0203819,0.556204 -1.0203819,0.556204 z"
   inkscape:connector-curvature="0" /><path
   style="fill:#666666;fill-opacity:1;stroke:none"
   id="path3156"
   d="m 8.4590437,18.675465 c 0.7598245,0.03265 1.5194939,0.06599 2.2797653,0.08723 0.912575,0.02415 1.82541,0.0213 2.738128,0.01046 0.566195,-0.02903 1.127946,0.02501 1.688401,0.09729 0.418165,0.07264 0.847127,0.06493 1.261877,0.155338 0.04628,0.01074 0.09255,0.02148 0.138829,0.03221 0,0 -0.937353,0.648513 -0.937353,0.648513 l 0,0 c -0.04499,-0.01071 -0.08999,-0.02142 -0.134982,-0.03213 -0.402031,-0.08438 -0.815625,-0.09869 -1.219607,-0.173666 -0.556345,-0.07126 -1.114015,-0.09361 -1.674833,-0.09056 -0.89541,-0.0201 -1.790837,-0.03778 -2.6863963,-0.05019 -0.7948236,-0.01329 -1.5906506,-0.04377 -2.385204,-0.0078 0,0 0.931375,-0.676683 0.931375,-0.676683 z"
   inkscape:connector-curvature="0" /><path
   style="fill:#666666;fill-opacity:1;stroke:none"
   id="path3158"
   d="m 21.658255,11.39417 c -0.375105,0.571285 -0.647609,1.193841 -0.907482,1.823344 -0.400266,1.002975 -0.77894,2.014286 -1.156368,3.026012 -0.324729,0.851223 -0.673031,1.692649 -0.929348,2.567706 -0.252496,0.943474 -0.343582,1.918753 -0.405798,2.890282 -0.0385,0.842758 -0.07365,1.7027 0.09641,2.535214 0.02956,0.144712 0.07362,0.286079 0.11043,0.429119 0.23519,0.634882 0.576228,1.232055 1.063441,1.708011 0.09517,0.09297 0.199187,0.176424 0.298781,0.264636 0.771496,0.630376 1.706971,1.009726 2.681826,1.193376 0.229054,0.04315 0.461798,0.06366 0.692697,0.09549 0.650058,-0.0064 1.406388,-0.06729 1.963647,-0.45165 0.08004,-0.0552 -0.318188,0.145371 -0.286762,0.05336 0.0782,-0.22896 0.32792,-0.358712 0.460238,-0.56127 0.14355,-0.219752 0.24194,-0.465892 0.36291,-0.698838 0.399317,-1.049819 0.570071,-2.173577 0.357783,-3.286904 -0.134488,-0.705306 -0.243593,-0.837832 -0.541481,-1.478882 -0.491692,-0.851782 -1.166699,-1.570923 -2.025102,-2.059293 -0.453799,-0.258179 -0.642645,-0.302671 -1.12305,-0.473535 -0.815996,-0.232782 -1.673711,-0.215893 -2.493172,-0.0022 -0.170815,0.04455 -0.336321,0.107409 -0.504482,0.161113 0.27016,0.138599 -1.227504,0.274882 -0.942228,0.482575 0.147373,0.107292 0.3216,-0.27951 0.496703,-0.228823 0.133885,0.03875 -0.209917,0.183859 -0.307195,0.283679 -0.214114,0.219706 -0.233307,0.270894 -0.391493,0.510598 0,0 -0.998923,0.437507 -0.998923,0.437507 l 0,0 c 0.193129,-0.291499 0.445623,-0.648308 0.734965,-0.849464 0.408274,-0.28384 0.836923,-0.537334 1.261156,-0.796714 0.425169,-0.259953 0.487169,-0.265366 0.952129,-0.462186 0.17172,-0.05184 0.341003,-0.112575 0.515159,-0.155525 0.832095,-0.205206 1.691712,-0.211227 2.509004,0.05965 0.482202,0.190218 0.653246,0.23538 1.108216,0.510467 0.857455,0.518439 1.529489,1.253253 2.025451,2.120251 0.306342,0.668544 0.405177,0.778082 0.543618,1.511714 0.211804,1.122402 0.05251,2.259379 -0.321113,3.328507 -0.194395,0.408036 -0.40847,0.983231 -0.779969,1.287534 -0.463669,0.379802 -1.32209,0.968201 -2.002349,1.173923 -0.541209,0.16367 -0.801698,0.129577 -1.362711,0.140795 -0.232978,-0.03418 -0.467837,-0.05737 -0.698934,-0.102547 -0.998778,-0.195274 -1.973047,-0.562567 -2.78501,-1.184416 -0.102903,-0.0905 -0.210771,-0.175656 -0.308707,-0.271512 -0.499395,-0.488786 -0.829048,-1.114717 -1.073345,-1.762332 -0.03705,-0.147001 -0.08226,-0.292182 -0.111138,-0.441003 -0.163321,-0.841677 -0.112598,-1.710714 -0.09217,-2.561428 0.05779,-0.972626 0.138356,-1.948821 0.369989,-2.898106 0.03872,-0.136403 0.07345,-0.274002 0.116158,-0.409208 0.235027,-0.744 0.571852,-1.451179 0.843558,-2.181531 0.377356,-1.009088 0.755686,-2.017799 1.14412,-3.02269 0.06087,-0.159269 0.267048,-0.704294 0.3404,-0.875826 0.116235,-0.271814 0.26067,-0.527912 0.390096,-0.792918 0.01643,-0.03363 0.02877,-0.06911 0.04316,-0.10366 0,0 1.066291,-0.482424 1.066291,-0.482424 z"
   inkscape:connector-curvature="0" /><path
   style="fill:#666666;fill-opacity:1;stroke:none"
   id="path3162"
   d="m 34.34718,19.806924 c -0.0768,-0.313123 -0.226269,-0.614774 -0.425343,-0.868747 -0.06,-0.07655 -0.129519,-0.145148 -0.194278,-0.217722 -0.07978,-0.0621 -0.154047,-0.131998 -0.239329,-0.186286 -0.400545,-0.254973 -0.905985,-0.363245 -1.373622,-0.392474 -0.142585,-0.0089 -0.285713,-0.0028 -0.428569,-0.0042 -0.794099,0.04626 -1.491309,0.277214 -2.192608,0.638845 0.211758,-0.118785 0.4151,-0.25401 0.635274,-0.356357 0.09996,-0.04647 -0.183778,0.121949 -0.272301,0.18763 -0.34446,0.25558 -0.567537,0.519421 -0.801698,0.874093 -0.04491,0.100207 -0.0969,0.197532 -0.134725,0.300621 -0.228828,0.623623 -0.311533,1.352923 -0.395636,2.008786 -0.124846,0.946519 -0.216875,1.89567 -0.243425,2.850121 -0.0082,0.524437 0.03583,1.060795 0.260958,1.542646 0.106007,0.226894 0.187549,0.31961 0.333099,0.520739 0.502305,0.598025 1.077966,0.8212 1.804707,1.040197 0.539659,0.141793 1.107945,0.196661 1.657863,0.0731 0.389996,-0.08763 0.48259,-0.156269 0.839011,-0.326516 -0.175264,0.09157 -0.328128,0.269032 -0.525791,0.274723 -0.141104,0.0041 0.223114,-0.17351 0.327076,-0.269002 0.255132,-0.234344 0.460117,-0.510627 0.669524,-0.784326 0,0 1.003476,-0.429551 1.003476,-0.429551 l 0,0 c -0.22609,0.278686 -0.439119,0.570463 -0.698816,0.819895 -0.519768,0.499221 -0.80984,0.571057 -1.593356,1.037765 -0.36581,0.159422 -0.461116,0.224045 -0.859127,0.302647 -0.565131,0.111606 -1.14366,0.04793 -1.694474,-0.101803 -0.758821,-0.231264 -1.339507,-0.461358 -1.865128,-1.084948 -0.148414,-0.20888 -0.238003,-0.312275 -0.341454,-0.550126 -0.218339,-0.501993 -0.24829,-1.058284 -0.242814,-1.597255 0.02681,-0.955534 0.11879,-1.906938 0.232956,-2.855771 0.0912,-0.786123 0.180013,-1.589249 0.467016,-2.331996 0.05179,-0.08533 0.09821,-0.174172 0.155374,-0.256 0.516186,-0.738834 1.36454,-1.131287 2.122919,-1.5615 0.691554,-0.333262 1.427098,-0.565659 2.201317,-0.581714 0.147101,0.0029 0.294531,-0.0015 0.441303,0.0088 0.610845,0.0427 1.21705,0.214091 1.683684,0.62403 0.06925,0.07535 0.143102,0.146715 0.20775,0.226048 0.21271,0.261026 0.368205,0.564909 0.509542,0.868467 0,0 -1.030355,0.557196 -1.030355,0.557196 z"
   inkscape:connector-curvature="0" /><rect
   style="fill:none;stroke:#999999"
   id="rect3164"
   width="32.031559"
   height="23.826429"
   x="4.8915186"
   y="7.8895469" /></svg>