<?xml version="1.0" encoding="UTF-8" standalone="no"?>
<!-- Generator: Adobe Illustrator 15.1.0, SVG Export Plug-In  -->

<svg
   xmlns:dc="http://purl.org/dc/elements/1.1/"
   xmlns:cc="http://creativecommons.org/ns#"
   xmlns:rdf="http://www.w3.org/1999/02/22-rdf-syntax-ns#"
   xmlns:svg="http://www.w3.org/2000/svg"
   xmlns="http://www.w3.org/2000/svg"
   xmlns:sodipodi="http://sodipodi.sourceforge.net/DTD/sodipodi-0.dtd"
   xmlns:inkscape="http://www.inkscape.org/namespaces/inkscape"
   version="1.0"
   x="0px"
   y="0px"
   width="40px"
   height="40px"
   viewBox="0 0 40 40"
   overflow="visible"
   enable-background="new 0 0 40 40"
   xml:space="preserve"
   id="svg2"
   inkscape:version="0.48.1 r9760"
   sodipodi:docname="menu_line.svg"><metadata
   id="metadata19"><rdf:RDF><cc:Work
       rdf:about=""><dc:format>image/svg+xml</dc:format><dc:type
         rdf:resource="http://purl.org/dc/dcmitype/StillImage" /><dc:title /></cc:Work></rdf:RDF></metadata><sodipodi:namedview
   pagecolor="#ffffff"
   bordercolor="#666666"
   borderopacity="1"
   objecttolerance="10"
   gridtolerance="10"
   guidetolerance="10"
   inkscape:pageopacity="0"
   inkscape:pageshadow="2"
   inkscape:window-width="931"
   inkscape:window-height="705"
   id="namedview17"
   showgrid="false"
   inkscape:zoom="7.3"
   inkscape:cx="16.849315"
   inkscape:cy="14.520548"
   inkscape:window-x="715"
   inkscape:window-y="75"
   inkscape:window-maximized="0"
   inkscape:current-layer="svg2" />
<defs
   id="defs4">
</defs>

<rect
   id="_x3C_Slice_x3E__68_"
   fill="none"
   width="40"
   height="40" />
<path
   style="fill:none;stroke:none;stroke-width:1px;stroke-linecap:butt;stroke-linejoin:miter;stroke-opacity:1"
   d="M 31.232877,24.794521 C 31.09589,24.56621 30.958904,24.3379 30.821918,24.109589 c -0.09132,-0.22831 -0.154554,-0.469978 -0.273973,-0.684931 -0.110877,-0.19958 -0.293494,-0.352171 -0.410959,-0.547946 -0.157595,-0.262659 -0.241048,-0.567052 -0.410959,-0.821917 -0.10746,-0.161192 -0.308283,-0.246678 -0.410959,-0.410959 -0.130325,-0.208521 -0.174103,-0.460228 -0.273972,-0.684932 -0.08294,-0.186607 -0.198132,-0.358344 -0.273973,-0.547945 -0.01696,-0.0424 0,-0.09132 0,-0.136986 0,-0.136987 0,-0.273973 0,-0.410959 0,-0.319635 0,-0.63927 0,-0.958904 0,-0.136987 0,-0.273973 0,-0.410959 0,-0.136987 -0.05088,-0.283771 0,-0.410959 0.09037,-0.225935 0.548957,-0.411971 0.684932,-0.547945 0.441829,-0.441829 0.08649,-0.447892 0.684931,-0.821918 0.417042,-0.260652 0.969673,-0.262095 1.369863,-0.547945 0.133971,-0.09569 0.157557,-0.294543 0.273973,-0.410959 0.16144,-0.16144 0.362161,-0.278256 0.547945,-0.410959 0.133971,-0.09569 0.303815,-0.148971 0.410959,-0.273973 0.173276,-0.202155 0.27886,-0.453759 0.410959,-0.684931 0.243779,-0.426615 0.273973,-0.89059 0.273973,-1.369863 0,-0.365297 0,-0.730594 0,-1.095891 0,-0.182648 0.03582,-0.368843 0,-0.547945 -0.01266,-0.06332 -0.108108,-0.07923 -0.136987,-0.136986 -0.06458,-0.129152 -0.05035,-0.295442 -0.136986,-0.410959 -0.06126,-0.08168 -0.182648,-0.09132 -0.273973,-0.136986 -0.09132,-0.04566 -0.173258,-0.120201 -0.273972,-0.136987 -0.180164,-0.03003 -0.365297,0 -0.547945,0 -0.228311,0 -0.456621,0 -0.684932,0 -0.22831,0 -0.457754,0.02272 -0.684931,0 C 30.453255,10.524778 30.231034,10.439838 30,10.410959 c -0.117184,-0.01465 -1.132903,-0.01999 -1.232877,0 -0.10012,0.02002 -0.179172,0.09907 -0.273972,0.136986 -0.136987,0.04566 -0.273973,0.09132 -0.410959,0.136987 -0.04566,0 -0.09367,-0.01444 -0.136987,0 -0.09686,0.03229 -0.180124,0.09676 -0.273972,0.136986 -0.226016,0.09686 -0.471432,0.151973 -0.684932,0.273972 -0.112135,0.06408 -0.161837,0.209896 -0.273972,0.273973 -0.213499,0.122 -0.476411,0.143647 -0.684932,0.273973 -0.164281,0.102675 -0.237683,0.324321 -0.410959,0.410959 -0.0761,0.03805 -0.558092,-0.02537 -0.684931,0 -0.141592,0.02832 -0.268527,0.113247 -0.410959,0.136986 -0.183921,0.03065 -0.888129,0 -1.09589,0 -0.136987,0 -0.273973,0 -0.410959,0 -0.136987,0 -0.278063,0.03322 -0.410959,0 -0.509787,-0.127447 -0.767899,-0.348669 -1.232877,-0.547945 -0.132721,-0.05688 -0.290814,-0.05689 -0.410959,-0.136987 -0.161191,-0.107461 -0.259683,-0.289938 -0.410959,-0.410959 -0.07973,-0.06378 -0.19229,-0.07572 -0.273972,-0.136986 -0.354254,-0.26569 -0.248396,-0.325471 -0.547946,-0.684931 C 19.519325,10.025929 19.269406,9.8173516 19.041096,9.5890411 18.90411,9.4520548 18.781413,9.299103 18.630137,9.1780822 18.421451,9.0111332 18.024335,8.965857 17.808219,8.9041096 17.669379,8.8644409 17.534247,8.8127854 17.39726,8.7671233 17.260274,8.7214612 17.128733,8.6538756 16.986301,8.630137 c -0.135122,-0.02252 -0.273972,0 -0.410959,0 -0.09132,0 -0.187334,-0.028879 -0.273972,0 -0.09132,0.045662 -0.182649,0.091324 -0.273973,0.1369863 0,0.045662 0.03229,0.1046983 0,0.1369863 -0.19535,0.1953504 -0.470945,0.1134832 -0.684931,0.2739726 -0.08168,0.061262 -0.05203,0.2173357 -0.136987,0.2739726 -0.07599,0.050657 -0.184421,-0.01791 -0.273972,0 -0.141592,0.028318 -0.276891,0.083359 -0.410959,0.1369863 -0.0948,0.03792 -0.182648,0.091324 -0.273973,0.1369863 -0.09132,0.045662 -0.217335,0.052031 -0.273972,0.1369863 -0.05066,0.075986 0.02888,0.1873353 0,0.2739723 -0.02042,0.06126 -0.09132,0.09132 -0.136987,0.136987 -0.04566,0.136986 -0.108667,0.269366 -0.136986,0.410959 -0.03582,0.179101 0,0.365296 0,0.547945 0,0.410959 0,0.821918 0,1.232876 0,0.319635 0,0.63927 0,0.958905 0,0.09132 -0.02215,0.185375 0,0.273972 0.02476,0.09905 0.104698,0.177109 0.136986,0.273973 0.02247,0.06739 0.0094,0.533887 0,0.547945 -0.05664,0.08496 -0.201774,0.06479 -0.273972,0.136986 -0.0722,0.0722 -0.04566,0.228311 -0.136986,0.273973 -0.122525,0.06126 -0.276633,-0.02686 -0.410959,0 -0.100121,0.02002 -0.173852,0.116962 -0.273973,0.136986 -0.268652,0.05373 -0.553266,-0.05373 -0.821918,0 -0.100121,0.02002 -0.174917,0.112223 -0.273972,0.136986 -0.0886,0.02215 -0.182649,0 -0.273973,0 -0.365297,0 -0.730594,0 -1.09589,0 -0.182649,0 -0.3671329,-0.02583 -0.5479456,0 -0.4820462,0.06886 -0.3878441,0.193923 -0.8219178,0.410959 -0.1291519,0.06458 -0.290814,0.05689 -0.4109589,0.136987 -0.1611914,0.107461 -0.2596829,0.289938 -0.4109589,0.410959 -0.159459,0.127567 -0.3706438,0.172657 -0.5479452,0.273972 -0.2311728,0.132099 -0.4682721,0.256202 -0.6849315,0.410959 -0.1050953,0.07507 -0.1731219,0.193292 -0.2739726,0.273973 -0.12856,0.102848 -0.294543,0.157556 -0.4109589,0.273972 -0.3396053,0.339606 -0.1947658,0.360642 -0.4109589,0.684932 -0.03582,0.05373 -0.101166,0.08326 -0.1369863,0.136986 -0.036893,0.05534 -0.4040388,0.780397 -0.4109589,0.821918 -0.030027,0.180163 0.039622,0.369646 0,0.547945 -0.1616674,0.727503 -0.3538541,0.547618 -0.410959,1.232877 -0.030336,0.364035 0,0.730593 0,1.09589 0,0.228311 0,0.456621 0,0.684932 0,0.22831 -0.055373,0.463438 0,0.684931 0.03993,0.159722 0.1892676,0.269784 0.2739727,0.410959 0.052532,0.08755 0.075724,0.19229 0.1369863,0.273973 0.2660132,0.354684 0.2745024,0.257048 0.6849315,0.410959 0.2302414,0.08634 0.4438087,0.225748 0.6849315,0.273972 0.2238768,0.04478 0.4610546,-0.04477 0.6849315,0 0.2411227,0.04823 0.4554237,0.185701 0.6849315,0.273973 0.3641328,0.140051 0.7317576,0.270908 1.0958904,0.410959 0.2295077,0.08827 0.449404,0.203314 0.6849315,0.273972 1.9629186,0.392584 -0.4685652,-0.156188 1.2328766,0.410959 0.08664,0.02888 0.187335,-0.02888 0.273973,0 0.06126,0.02042 0.08326,0.101166 0.136986,0.136987 0.08495,0.05664 0.177109,0.104698 0.273973,0.136986 0.04332,0.01444 0.09614,-0.02042 0.136986,0 0.272661,0.13633 0.07146,0.351365 0.136986,0.547945 0.03229,0.09686 0.112223,0.174918 0.136987,0.273973 0.02215,0.0886 0,0.182648 0,0.273972 0,0.09132 0,0.182649 0,0.273973 0,0.365297 0,0.730593 0,1.09589 0,0.605786 -0.04086,1.188002 0.136986,1.780822 0.117552,0.391841 0.34617,0.622612 0.547945,0.958904 0.213283,0.355473 0.08441,0.375907 0.547945,0.684932 0.120145,0.0801 0.279008,0.07834 0.410959,0.136986 0.27991,0.124405 0.5438,0.282597 0.821918,0.410959 0.315745,0.145728 0.643159,0.265231 0.958904,0.410959 0.888561,0.410105 1.034727,0.58309 2.054795,0.958904 1.420822,0.523461 1.215568,0.315019 2.602739,0.684932 0.279042,0.07441 0.536028,0.233131 0.821918,0.273972 0.361625,0.05166 0.730594,0 1.095891,0 0.22831,0 0.456621,0 0.684931,0 0.419282,0 0.829661,0.03582 1.232877,-0.136986 0.118709,-0.05088 0.182648,-0.182649 0.273972,-0.273973 0.223004,-0.223003 0.313587,-0.255828 0.410959,-0.547945 0.01444,-0.04332 0,-0.09132 0,-0.136986 0,-0.136987 -0.05087,-0.283771 0,-0.410959 0.04797,-0.119915 0.207525,-0.163226 0.273973,-0.273973 0.27651,-0.460849 0.0492,-0.793966 0.136986,-1.232876 0.08996,-0.449823 0.246573,-0.17123 0.547945,-0.547946 0.0902,-0.112754 0.05035,-0.295442 0.136987,-0.410959 0.06983,-0.09311 0.971041,-0.385989 1.09589,-0.410958 0.179102,-0.03582 0.365297,0 0.547945,0 0.228311,0 0.456621,0 0.684932,0 0.22831,0 0.458915,-0.03229 0.684931,0 0.143525,0.0205 0.636801,0.386893 0.684932,0.410958 0.129152,0.06458 0.281807,0.07241 0.410959,0.136987 0.238144,0.119072 0.446787,0.291886 0.684931,0.410959 0.04084,0.02042 0.09132,0 0.136987,0 0.136986,0 0.276632,-0.02687 0.410958,0 0.100121,0.02002 0.177109,0.104698 0.273973,0.136986 0.04332,0.01444 0.09132,0 0.136986,0 0.09133,0 0.185375,0.02215 0.273973,0 0.159355,-0.03984 0.611275,-0.355717 0.684931,-0.410959 0.05166,-0.03875 0.09132,-0.09132 0.136987,-0.136986 0.09132,-0.09132 0.196481,-0.170651 0.273972,-0.273973 0.06126,-0.08168 0.07572,-0.19229 0.136987,-0.273972 0.07749,-0.103322 0.226006,-0.154059 0.273972,-0.273973 0.05088,-0.127189 0,-0.273973 0,-0.410959 0,-0.136986 0,-0.273973 0,-0.410959 0,-0.22831 0,-0.456621 0,-0.684931 0,-0.09132 0.02215,-0.185376 0,-0.273973 -0.106012,-0.424051 -0.177026,-0.158058 -0.410959,-0.547945 -0.07429,-0.123819 -0.05689,-0.290814 -0.136986,-0.410959 -0.107461,-0.161191 -0.273973,-0.273973 -0.410959,-0.410959 -0.273972,-0.273973 -0.547945,-0.547945 -0.821918,-0.821918 -0.09132,-0.09132 -0.202332,-0.166512 -0.273972,-0.273972 -0.02533,-0.03799 0.02042,-0.09614 0,-0.136987 -0.07363,-0.147256 -0.200345,-0.263703 -0.273973,-0.410959 -0.02042,-0.04084 -0.01444,-0.09367 0,-0.136986 0.07776,-0.233279 0.182649,-0.456621 0.273973,-0.684931 z"
   id="path3251"
   inkscape:connector-curvature="0" /><path
   style="fill:none;stroke:#000000;stroke-width:1px;stroke-linecap:butt;stroke-linejoin:miter;stroke-opacity:1"
   d="M 3.8356164,4.9315068 34.109589,34.520548"
   id="path3498"
   inkscape:connector-curvature="0" /></svg>