<?xml version="1.0" encoding="UTF-8" standalone="no"?>
<!-- Generator: Adobe Illustrator 15.1.0, SVG Export Plug-In  -->

<svg
   xmlns:dc="http://purl.org/dc/elements/1.1/"
   xmlns:cc="http://creativecommons.org/ns#"
   xmlns:rdf="http://www.w3.org/1999/02/22-rdf-syntax-ns#"
   xmlns:svg="http://www.w3.org/2000/svg"
   xmlns="http://www.w3.org/2000/svg"
   xmlns:sodipodi="http://sodipodi.sourceforge.net/DTD/sodipodi-0.dtd"
   xmlns:inkscape="http://www.inkscape.org/namespaces/inkscape"
   version="1.0"
   x="0px"
   y="0px"
   width="40px"
   height="40px"
   viewBox="0 0 40 40"
   overflow="visible"
   enable-background="new 0 0 40 40"
   xml:space="preserve"
   id="svg2"
   inkscape:version="0.48.1 r9760"
   sodipodi:docname="menu_circle.svg"><metadata
   id="metadata19"><rdf:RDF><cc:Work
       rdf:about=""><dc:format>image/svg+xml</dc:format><dc:type
         rdf:resource="http://purl.org/dc/dcmitype/StillImage" /><dc:title></dc:title></cc:Work></rdf:RDF></metadata><sodipodi:namedview
   pagecolor="#ffffff"
   bordercolor="#666666"
   borderopacity="1"
   objecttolerance="10"
   gridtolerance="10"
   guidetolerance="10"
   inkscape:pageopacity="0"
   inkscape:pageshadow="2"
   inkscape:window-width="931"
   inkscape:window-height="705"
   id="namedview17"
   showgrid="false"
   inkscape:zoom="7.3"
   inkscape:cx="22.328767"
   inkscape:cy="20"
   inkscape:window-x="545"
   inkscape:window-y="68"
   inkscape:window-maximized="0"
   inkscape:current-layer="svg2" />
<defs
   id="defs4">
</defs>

<rect
   id="_x3C_Slice_x3E__68_"
   fill="none"
   width="40"
   height="40" />
<path
   style="fill:none;stroke:#000000;stroke-width:1px;stroke-linecap:butt;stroke-linejoin:miter;stroke-opacity:1"
   d="m 9.4520548,10.684931 c -0.1826484,0 -0.3707502,-0.0443 -0.5479452,0 -0.19811,0.04953 -0.3523503,0.215295 -0.5479452,0.273973 -0.6067571,0.182027 -1.0229673,0.136986 -1.6438356,0.136986 -0.2739726,0 -0.5479453,0 -0.8219179,0 -0.1826484,0 -0.3652968,0 -0.5479452,0 -0.091324,0 -0.1956627,0.04699 -0.2739726,0 C 4.9023728,10.996218 4.7945205,10.821918 4.6575342,10.684931 4.1301594,10.157557 4.3540362,10.435164 3.9726027,9.8630141 3.8812785,9.7260271 3.7506929,9.6082431 3.6986301,9.4520548 c -0.043319,-0.1299566 0,-0.2739726 0,-0.4109589 0,-0.1826484 0.02583,-0.3671325 0,-0.5479452 -0.020421,-0.142945 -0.1132477,-0.2685273 -0.1369863,-0.4109589 -0.02252,-0.1351225 0,-0.2739726 0,-0.4109589 0,-0.8293278 -0.072198,-0.4683372 0.1369863,-1.0958904 0.045662,-0.1369863 0.05689,-0.290814 0.1369863,-0.4109589 C 3.9430773,6.0031922 4.109589,5.890411 4.2465753,5.7534247 4.3835616,5.6164384 4.5205479,5.4794521 4.6575342,5.3424658 4.7945205,5.2054795 4.9073018,5.0389677 5.0684931,4.9315069 5.1886381,4.8514102 5.3424657,4.8401827 5.479452,4.7945206 5.7534246,4.7031964 6.0227533,4.5965343 6.3013699,4.5205479 6.6420975,4.4276222 7.672193,4.2675763 7.9452055,4.2465753 c 0.2731656,-0.021013 0.5479452,0 0.8219178,0 0.3652968,0 0.7305936,0 1.0958904,0 0.1369863,0 0.2739723,0 0.4109593,0 0.09132,0 0.187334,-0.028879 0.273972,0 0.06126,0.020421 0.08532,0.098241 0.136987,0.1369863 0.914027,0.6855204 -0.0759,-0.2432466 0.684931,0.8219179 0.112602,0.1576428 0.294722,0.2559766 0.410959,0.4109589 0.159752,0.2130028 0.237684,0.4827767 0.410959,0.6849315 0.107144,0.1250017 0.326254,0.1327975 0.410959,0.2739726 0.01761,0.02935 -0.01612,0.7252245 0,0.8219178 0.02374,0.1424316 0.108668,0.2693667 0.136986,0.4109589 0.01791,0.089551 0,0.1826484 0,0.2739726 0,0.4964551 0.03753,1.0269184 -0.136986,1.5068493 -0.09099,0.250223 -0.273973,0.4566209 -0.410959,0.6849319 -0.136986,0.319634 -0.30869,0.626529 -0.410959,0.958904 -0.535629,1.740794 0.315971,-0.100796 -0.410959,1.643835 -0.304145,0.729948 -0.858295,1.386908 -0.958904,2.191781 -0.02266,0.181238 0.02017,0.366414 0,0.547945 -0.02571,0.231408 -0.113819,0.453255 -0.136986,0.684932 -0.06496,0.649587 0.08531,1.907498 0.410959,2.465753 0.179696,0.308052 0.443034,0.559863 0.684931,0.821918 0.98871,1.071102 1.092755,1.122914 2.465754,1.917808 0.353452,0.204631 0.7047,0.430588 1.09589,0.547945 1.490782,0.447235 1.674704,0.191974 3.150685,0.273973 0.322383,0.01791 0.636653,0.116846 0.958904,0.136986 0.410159,0.02563 0.821918,0 1.232877,0 0.837026,0 0.850493,0.08664 1.643836,-0.273972 0.442464,-0.20112 1.126447,-0.678607 1.369863,-1.095891 0.167499,-0.287141 0.186505,-0.638192 0.273972,-0.958904 0.22834,-0.837246 0.135812,-0.606458 0.273973,-1.780822 0.134339,-1.141882 0.196843,-1.131625 0.136986,-2.328767 -0.02519,-0.503725 0.0053,-1.022989 -0.136986,-1.506849 -0.09291,-0.315894 -0.371166,-0.544122 -0.547945,-0.821918 -0.142945,-0.224628 -0.237684,-0.482777 -0.410959,-0.684931 -0.107145,-0.125002 -0.273973,-0.182649 -0.410959,-0.273973 -0.136987,-0.09132 -0.259634,-0.209119 -0.410959,-0.273973 -0.173047,-0.07416 -0.365297,-0.09132 -0.547945,-0.136986 -0.182649,-0.04566 -0.36061,-0.118253 -0.547946,-0.136986 -0.554844,-0.05549 -1.403603,0.04057 -1.917808,0.136986 -0.37009,0.06939 -0.732065,0.176953 -1.09589,0.273973 -0.266629,0.0711 -1.486183,0.414018 -1.780822,0.547945 -0.57119,0.259632 -1.224233,0.760824 -1.643836,1.232877 -0.236933,0.26655 -0.515852,0.507913 -0.684931,0.821917 -0.157603,0.292691 -0.146117,0.652051 -0.273973,0.958904 -0.102405,0.245773 -0.315379,0.436425 -0.410959,0.684932 -0.583201,1.516323 -0.02271,0.631218 -0.410959,2.054794 -0.05373,0.197012 -0.240401,0.346517 -0.273972,0.547946 -0.07123,0.427397 0.04452,1.291096 0,1.780822 -0.05029,0.553222 -0.227841,1.090251 -0.273973,1.643835 -0.02275,0.273026 0,0.547945 0,0.821918 0,0.273973 -0.05373,0.553266 0,0.821918 0.04005,0.200241 0.209397,0.354217 0.273973,0.547945 0.07363,0.220884 0.04242,0.472167 0.136986,0.684932 0.177743,0.399921 0.54604,0.643614 0.821918,0.958904 0.192533,0.220038 0.341201,0.478187 0.547945,0.684931 0.116416,0.116416 0.273973,0.182649 0.410959,0.273973 0.136986,0.09132 0.273973,0.182648 0.410959,0.273972 0.04311,0.02874 0.544522,0.387558 0.684931,0.410959 0.180164,0.03003 0.365297,0 0.547946,0 0.182648,0.09132 0.347703,0.233925 0.547945,0.273973 0.268652,0.05373 0.547945,0 0.821918,0 0.547945,0 1.09589,0 1.643835,0 0.365297,0 0.730594,0 1.095891,0 0.09132,0 0.190032,0.03597 0.273972,0 0.634498,-0.271928 0.760471,-0.486498 1.232877,-0.958904 0.09132,-0.09132 0.198904,-0.168878 0.273973,-0.273973 0.01566,-0.02193 0.813868,-1.360664 0.821917,-1.369863 0.150344,-0.171821 0.397602,-0.239138 0.547946,-0.410959 0.175329,-0.200376 0.222689,-0.496662 0.410958,-0.684931 0.18827,-0.18827 0.482777,-0.237684 0.684932,-0.410959 0.125002,-0.107145 0.148971,-0.303815 0.273973,-0.410959 0.411727,-0.352909 0.647657,-0.398534 1.09589,-0.547945 0.136986,-0.04566 0.281807,-0.07241 0.410959,-0.136987 0.147256,-0.07363 0.25477,-0.221909 0.410959,-0.273972 0.129956,-0.04332 0.273972,0 0.410959,0 0.273972,0 0.547945,0 0.821917,0 0.273973,0 0.550699,-0.03875 0.821918,0 0.354598,0.05066 1.673001,0.438861 2.054795,0.547945 0.296709,0.08477 1.460049,0.40214 1.780822,0.547945 1.210291,0.550133 0.295545,0.187413 0.958904,0.684932 1.584815,1.188611 0.154821,-0.134046 1.369863,1.232876 0.171608,0.193059 0.404664,0.333024 0.547945,0.547946 0.1364,0.204599 0.174104,0.460227 0.273973,0.684931 0.116323,0.261727 0.366533,0.647929 0.410959,0.958904 0.02583,0.180813 -0.02017,0.366414 0,0.547945 0.07635,0.687168 0.312576,0.777504 0,1.50685 -0.169691,0.395945 -0.482214,0.715794 -0.684932,1.09589 -0.163648,0.30684 -0.206421,0.677665 -0.410959,0.958904 -0.17197,0.236459 -0.478187,0.341202 -0.684931,0.547946 -0.297681,0.29768 -0.511588,0.674435 -0.821918,0.958904 -0.242726,0.222498 -0.544122,0.371166 -0.821918,0.547945 -0.820065,0.521859 -1.048192,0.601048 -2.054795,0.684931 -0.227521,0.01896 -0.462057,0.04953 -0.684931,0 -0.606282,-0.134729 -1.191622,-0.351545 -1.780822,-0.547945 -0.820345,-0.273448 -2.44388,-0.713581 -3.287671,-1.369863 -0.216017,-0.168013 -0.385419,-0.543301 -0.273973,-0.821918 0.04797,-0.119914 0.182649,-0.182648 0.273973,-0.273972 0.04566,-0.04566 0.08326,-0.101166 0.136986,-0.136987 0.08495,-0.05664 0.182649,-0.09132 0.273973,-0.136986"
   id="path3209"
   inkscape:connector-curvature="0" /></svg>