<?xml version="1.0" encoding="utf-8"?>
<!-- Generator: Adobe Illustrator 15.1.0, SVG Export Plug-In  -->
<!DOCTYPE svg PUBLIC "-//W3C//DTD SVG 1.0//EN" "http://www.w3.org/TR/2001/REC-SVG-20010904/DTD/svg10.dtd" [
	<!ENTITY ns_flows "http://ns.adobe.com/Flows/1.0/">
]>
<svg version="1.0"
	 xmlns="http://www.w3.org/2000/svg" xmlns:xlink="http://www.w3.org/1999/xlink" xmlns:a="http://ns.adobe.com/AdobeSVGViewerExtensions/3.0/"
	 x="0px" y="0px" width="40px" height="40px" viewBox="0 0 40 40" overflow="visible" enable-background="new 0 0 40 40"
	 xml:space="preserve">
<defs>
</defs>
<g>
	<g>
		<polygon fill="#FFFFFF" points="40.7,21.2 31.5,14.3 31.5,18.9 24.6,18.9 24.6,12 29.3,12 22.4,2.8 15.5,12 20,12 20,18.9 
			13.1,18.9 13.1,14.3 3.9,21.2 13.1,28.1 13.1,23.5 20,23.5 20,30.4 15.5,30.4 22.4,39.6 29.3,30.4 24.6,30.4 24.6,23.5 31.5,23.5 
			31.5,28.1 		"/>
	</g>
	<g>
		<polygon fill="#5E4A3E" points="38.7,19.2 29.5,12.3 29.5,16.9 22.6,16.9 22.6,10 27.3,10 20.4,0.8 13.5,10 18,10 18,16.9 
			11.1,16.9 11.1,12.3 1.9,19.2 11.1,26.1 11.1,21.5 18,21.5 18,28.4 13.5,28.4 20.4,37.6 27.3,28.4 22.6,28.4 22.6,21.5 29.5,21.5 
			29.5,26.1 		"/>
	</g>
</g>
<rect id="_x3C_Slice_x3E__68_" fill="none" width="40" height="40"/>
</svg>
