<?xml version="1.0" encoding="utf-8"?>
<!-- Generator: Adobe Illustrator 15.1.0, SVG Export Plug-In  -->
<!DOCTYPE svg PUBLIC "-//W3C//DTD SVG 1.0//EN" "http://www.w3.org/TR/2001/REC-SVG-20010904/DTD/svg10.dtd" [
	<!ENTITY ns_flows "http://ns.adobe.com/Flows/1.0/">
]>
<svg version="1.0"
	 xmlns="http://www.w3.org/2000/svg" xmlns:xlink="http://www.w3.org/1999/xlink" xmlns:a="http://ns.adobe.com/AdobeSVGViewerExtensions/3.0/"
	 x="0px" y="0px" width="40px" height="40px" viewBox="0 0 40 40" overflow="visible" enable-background="new 0 0 40 40"
	 xml:space="preserve">
<defs>
</defs>
<g>
	<g>
		<path fill="#FFFFFF" d="M22,8.2c0.3-0.6,0.7-0.6,1,0l4,9.1c0.3,0.6,1.1,1.2,1.8,1.3l9.9,1c0.7,0.1,0.8,0.5,0.3,1l-7.5,6.6
			c-0.5,0.5-0.8,1.4-0.7,2.1l2.1,9.7c0.1,0.7-0.2,0.9-0.8,0.6l-8.6-5c-0.6-0.4-1.6-0.4-2.2,0l-8.6,5c-0.6,0.3-1,0.1-0.8-0.6l2.1-9.7
			c0.2-0.7-0.2-1.6-0.7-2.1l-7.4-6.6c-0.5-0.5-0.4-0.9,0.3-1l9.9-1c0.7-0.1,1.5-0.6,1.8-1.3L22,8.2z"/>
	</g>
	<g>
		<path fill="#5E4A3E" d="M20,6.2c0.3-0.6,0.7-0.6,1,0l4,9.1c0.3,0.6,1.1,1.2,1.8,1.3l9.9,1c0.7,0.1,0.8,0.5,0.3,1l-7.5,6.6
			c-0.5,0.5-0.8,1.4-0.7,2.1l2.1,9.7c0.1,0.7-0.2,0.9-0.8,0.6l-8.6-5c-0.6-0.4-1.6-0.4-2.2,0l-8.6,5c-0.6,0.3-1,0.1-0.8-0.6l2.1-9.7
			c0.2-0.7-0.2-1.6-0.7-2.1l-7.4-6.6c-0.5-0.5-0.4-0.9,0.3-1l9.9-1c0.7-0.1,1.5-0.6,1.8-1.3L20,6.2z"/>
	</g>
</g>
<rect id="_x3C_Slice_x3E__68_" fill="none" width="40" height="40"/>
</svg>
