<?xml version="1.0" encoding="utf-8"?>
<!-- Generator: Adobe Illustrator 15.1.0, SVG Export Plug-In  -->
<!DOCTYPE svg PUBLIC "-//W3C//DTD SVG 1.0//EN" "http://www.w3.org/TR/2001/REC-SVG-20010904/DTD/svg10.dtd" [
	<!ENTITY ns_flows "http://ns.adobe.com/Flows/1.0/">
]>
<svg version="1.0"
	 xmlns="http://www.w3.org/2000/svg" xmlns:xlink="http://www.w3.org/1999/xlink" xmlns:a="http://ns.adobe.com/AdobeSVGViewerExtensions/3.0/"
	 x="0px" y="0px" width="40px" height="40px" viewBox="0 0 40 40" overflow="visible" enable-background="new 0 0 40 40"
	 xml:space="preserve">
<defs>
</defs>
<g>
	<g>
		<path fill="#FFFFFF" d="M37.7,25.6c0.5,0,0.9-0.4,0.9-0.9v-2.6c0-0.5-0.4-0.9-0.9-0.9h-2.2c-0.5,0-1.1-0.4-1.2-0.9L33,17.1
			c-0.2-0.4-0.2-1.1,0.2-1.5l1.6-1.6c0.4-0.4,0.4-1,0-1.3L33,11c-0.4-0.4-1-0.4-1.3,0l-1.6,1.6c-0.4,0.4-1,0.5-1.5,0.2l-3.1-1.3
			c-0.5-0.1-0.9-0.7-0.9-1.2V8c0-0.5-0.4-0.9-0.9-0.9h-2.5c-0.5,0-0.9,0.4-0.9,0.9v2.2c0,0.5-0.4,1.1-0.9,1.2l-3.1,1.3
			c-0.4,0.2-1.1,0.2-1.5-0.2L13.2,11c-0.4-0.4-1-0.4-1.3,0L10,12.8c-0.4,0.4-0.4,1,0,1.3l1.6,1.6c0.4,0.4,0.5,1,0.2,1.5l-1.3,3.1
			c-0.1,0.5-0.7,0.9-1.2,0.9H7.1c-0.5,0-0.9,0.4-0.9,0.9v2.6c0,0.5,0.4,0.9,0.9,0.9h2.2c0.5,0,1.1,0.4,1.2,0.9l1.3,3.1
			c0.2,0.5,0.2,1.1-0.2,1.5L10,32.6c-0.4,0.4-0.4,1,0,1.3l1.8,1.8c0.4,0.4,1,0.4,1.3,0l1.6-1.6c0.4-0.4,1-0.5,1.5-0.2l3.1,1.3
			c0.5,0.1,0.9,0.7,0.9,1.2v2.2c0,0.5,0.4,0.9,0.9,0.9h2.5c0.5,0,0.9-0.4,0.9-0.9v-2.2c0-0.5,0.4-1.1,0.9-1.2l3.1-1.3
			c0.4-0.2,1.1-0.2,1.5,0.2l1.6,1.6c0.4,0.4,1,0.4,1.3,0l1.8-1.8c0.4-0.4,0.4-1,0-1.3L33.2,31c-0.4-0.4-0.5-1-0.2-1.5l1.3-3.1
			c0.1-0.5,0.7-0.9,1.2-0.9H37.7z M22.4,30.8c-4.1,0-7.5-3.3-7.5-7.5c0-4.1,3.3-7.5,7.5-7.5c4.1,0,7.5,3.3,7.5,7.5
			C29.9,27.5,26.5,30.8,22.4,30.8z"/>
	</g>
	<g>
		<path fill="#9F928B" d="M35.7,23.6c0.5,0,0.9-0.4,0.9-0.9v-2.6c0-0.5-0.4-0.9-0.9-0.9h-2.2c-0.5,0-1.1-0.4-1.2-0.9L31,15.1
			c-0.2-0.4-0.2-1.1,0.2-1.5l1.6-1.6c0.4-0.4,0.4-1,0-1.3L31,9c-0.4-0.4-1-0.4-1.3,0l-1.6,1.6c-0.4,0.4-1,0.5-1.5,0.2l-3.1-1.3
			c-0.5-0.1-0.9-0.7-0.9-1.2V6c0-0.5-0.4-0.9-0.9-0.9h-2.5c-0.5,0-0.9,0.4-0.9,0.9v2.2c0,0.5-0.4,1.1-0.9,1.2l-3.1,1.3
			c-0.4,0.2-1.1,0.2-1.5-0.2L11.2,9c-0.4-0.4-1-0.4-1.3,0L8,10.8c-0.4,0.4-0.4,1,0,1.3l1.6,1.6c0.4,0.4,0.5,1,0.2,1.5l-1.3,3.1
			c-0.1,0.5-0.7,0.9-1.2,0.9H5.1c-0.5,0-0.9,0.4-0.9,0.9v2.6c0,0.5,0.4,0.9,0.9,0.9h2.2c0.5,0,1.1,0.4,1.2,0.9l1.3,3.1
			C10.1,28,10,28.7,9.6,29L8,30.6c-0.4,0.4-0.4,1,0,1.3l1.8,1.8c0.4,0.4,1,0.4,1.3,0l1.6-1.6c0.4-0.4,1-0.5,1.5-0.2l3.1,1.3
			c0.5,0.1,0.9,0.7,0.9,1.2v2.2c0,0.5,0.4,0.9,0.9,0.9h2.5c0.5,0,0.9-0.4,0.9-0.9v-2.2c0-0.5,0.4-1.1,0.9-1.2l3.1-1.3
			c0.4-0.2,1.1-0.2,1.5,0.2l1.6,1.6c0.4,0.4,1,0.4,1.3,0l1.8-1.8c0.4-0.4,0.4-1,0-1.3L31.2,29c-0.4-0.4-0.5-1-0.2-1.5l1.3-3.1
			c0.1-0.5,0.7-0.9,1.2-0.9H35.7z M20.4,28.8c-4.1,0-7.5-3.3-7.5-7.5c0-4.1,3.3-7.5,7.5-7.5c4.1,0,7.5,3.3,7.5,7.5
			C27.9,25.5,24.5,28.8,20.4,28.8z"/>
	</g>
</g>
<rect id="_x3C_Slice_x3E__68_" fill="none" width="40" height="40"/>
</svg>
