<?xml version="1.0" encoding="utf-8"?>
<!-- Generator: Adobe Illustrator 15.1.0, SVG Export Plug-In  -->
<!DOCTYPE svg PUBLIC "-//W3C//DTD SVG 1.0//EN" "http://www.w3.org/TR/2001/REC-SVG-20010904/DTD/svg10.dtd" [
	<!ENTITY ns_flows "http://ns.adobe.com/Flows/1.0/">
]>
<svg version="1.0"
	 xmlns="http://www.w3.org/2000/svg" xmlns:xlink="http://www.w3.org/1999/xlink" xmlns:a="http://ns.adobe.com/AdobeSVGViewerExtensions/3.0/"
	 x="0px" y="0px" width="40px" height="40px" viewBox="0 0 40 40" overflow="visible" enable-background="new 0 0 40 40"
	 xml:space="preserve">
<defs>
</defs>
<g>
	<g>
		<polygon fill="#FFFFFF" points="8.7,39.6 9.4,34.6 10.1,29.7 14.4,33.9 18.6,38.2 13.7,38.9 		"/>
		<polygon fill="#FFFFFF" points="32.8,21.1 20,33.9 18.6,32.5 31.4,19.7 28.5,16.9 15.8,29.6 14.3,28.2 27.1,15.5 25.7,14 
			11.5,28.2 20,36.7 34.2,22.6 		"/>
		<path fill="#FFFFFF" d="M38.7,18.3c0.8-0.7,0.7-2-0.1-2.8l-5.7-5.7c-0.8-0.8-2-0.8-2.8-0.1C30.1,9.9,30.1,10,30,10l0,0l-2.7,2.7
			l8.5,8.5l2.7-2.7l0,0C38.5,18.4,38.6,18.4,38.7,18.3z"/>
	</g>
	<g>
		<g>
			<polygon fill="#9F928B" points="6.7,37.6 7.4,32.6 8.1,27.7 12.4,31.9 16.6,36.2 11.7,36.9 			"/>
			<polygon fill="#9F928B" points="30.8,19.1 18,31.9 16.6,30.5 29.4,17.7 26.5,14.9 13.8,27.6 12.3,26.2 25.1,13.5 23.7,12 
				9.5,26.2 18,34.7 32.2,20.6 			"/>
			<path fill="#9F928B" d="M36.7,16.3c0.8-0.7,0.7-2-0.1-2.8l-5.7-5.7c-0.8-0.8-2-0.8-2.8-0.1C28.1,7.9,28.1,8,28,8l0,0l-2.7,2.7
				l8.5,8.5l2.7-2.7l0,0C36.5,16.4,36.6,16.4,36.7,16.3z"/>
		</g>
	</g>
</g>
<rect id="_x3C_Slice_x3E__68_" fill="none" width="40" height="40"/>
</svg>
