<?xml version="1.0" encoding="utf-8"?>
<!-- Generator: Adobe Illustrator 15.1.0, SVG Export Plug-In  -->
<!DOCTYPE svg PUBLIC "-//W3C//DTD SVG 1.0//EN" "http://www.w3.org/TR/2001/REC-SVG-20010904/DTD/svg10.dtd" [
	<!ENTITY ns_flows "http://ns.adobe.com/Flows/1.0/">
]>
<svg version="1.0"
	 xmlns="http://www.w3.org/2000/svg" xmlns:xlink="http://www.w3.org/1999/xlink" xmlns:a="http://ns.adobe.com/AdobeSVGViewerExtensions/3.0/"
	 x="0px" y="0px" width="40px" height="40px" viewBox="0 0 40 40" overflow="visible" enable-background="new 0 0 40 40"
	 xml:space="preserve">
<defs>
</defs>
<g>
	<g>
		<path fill="#FFFFFF" d="M38.9,38.6c0,0.6-0.5,1-1,1H10.9c-0.6,0-1-0.5-1-1l0,0c0-0.6,0.5-1,1-1h26.9C38.4,37.5,38.9,38,38.9,38.6
			L38.9,38.6z"/>
		<path fill="#FFFFFF" d="M37.3,17.7l-8.5-8.5c-0.4-0.4-0.9-0.6-1.5-0.6c-0.5,0-1.1,0.2-1.5,0.6L9.3,25.7c-0.8,0.8-0.8,2.1,0,2.9
			l4.8,5.1c0.8,0.8,2.4,1.8,3.5,1.8h3.2c1.1,0,2.7-0.9,3.5-1.8l12.9-13.1C38.1,19.8,38.1,18.5,37.3,17.7z M22.7,32.2
			c-0.4,0.4-1.3,1.1-1.8,1.1h-3.2c-0.6,0-1.7-0.7-2.1-1.1l-4.8-4.9l7.5-7.6l8.3,8.3L22.7,32.2z"/>
	</g>
	<g>
		<g>
			<g>
				<path fill="#5E4A3E" d="M36.9,36.6c0,0.6-0.5,1-1,1H8.9c-0.6,0-1-0.5-1-1l0,0c0-0.6,0.5-1,1-1h26.9C36.4,35.5,36.9,36,36.9,36.6
					L36.9,36.6z"/>
			</g>
			<path fill="#5E4A3E" d="M35.3,15.7l-8.5-8.5c-0.4-0.4-0.9-0.6-1.5-0.6c-0.5,0-1.1,0.2-1.5,0.6L7.3,23.7c-0.8,0.8-0.8,2.1,0,2.9
				l4.8,5.1c0.8,0.8,2.4,1.8,3.5,1.8h3.2c1.1,0,2.7-0.9,3.5-1.8l12.9-13.1C36.1,17.8,36.1,16.5,35.3,15.7z M20.7,30.2
				c-0.4,0.4-1.3,1.1-1.8,1.1h-3.2c-0.6,0-1.7-0.7-2.1-1.1l-4.8-4.9l7.5-7.6l8.3,8.3L20.7,30.2z"/>
		</g>
	</g>
</g>
<rect id="_x3C_Slice_x3E__68_" fill="none" width="40" height="40"/>
</svg>
