<?xml version="1.0" standalone="no"?>
<!DOCTYPE svg PUBLIC "-//W3C//DTD SVG 1.1//EN" "http://www.w3.org/Graphics/SVG/1.1/DTD/svg11.dtd" >
<svg>
<metadata>
Created by FontForge 20090914 at Mon Dec 17 02:50:25 2012
 By www-data
Copyright 1999 Ron Carpenter and Dalton Maag Ltd. All rights reserved. DaMa is a trademark of Dalton Maag Ltd. The use of this font without a valid license is illegal and will be prosecuted.
</metadata>
<defs>
<font id="LexiaDaMa" horiz-adv-x="539" >
  <font-face 
    font-family="Lexia DaMa"
    font-weight="550"
    font-stretch="normal"
    units-per-em="1000"
    panose-1="2 0 6 3 4 0 0 2 0 3"
    ascent="800"
    descent="-200"
    x-height="507"
    cap-height="729"
    bbox="-204 -218 1017 923.005"
    underline-thickness="50"
    underline-position="-50"
    unicode-range="U+0020-U+FB02"
  />
<missing-glyph horiz-adv-x="1000" 
 />
    <glyph glyph-name="fi" unicode="fi" horiz-adv-x="596" 
d="M578 31c0 -10.667 -1.99805 -21 -5.99805 -31h-221c-4 10 -6 20.333 -6 31s2 21 6 31h68v383h-225v-383h68c4 -10 6 -20.333 6 -31s-2 -21 -6 -31h-226c-4 10 -6 20.333 -6 31s2 21 6 31h73v383h-79c-4 10 -6 20.333 -6 31s2 21 6 31h79v65
c0 37.333 6.5 68.666 19.5 93.999s29.833 45.5 50.5 60.5s43.667 25.667 69 32s50.333 9.5 75 9.5c30.667 0 58.167 -2.83301 82.5 -8.5s44.166 -11.834 59.499 -18.501v-71c-12.667 5.33301 -31.167 11.333 -55.5 18s-52.833 10 -85.5 10
c-18 0 -34.833 -1.83301 -50.5 -5.5s-29.334 -10.167 -41.001 -19.5s-21 -22.166 -28 -38.499s-10.5 -37.166 -10.5 -62.499v-65h310v-445h68c4 -10 6 -20.333 6 -31z" />
    <glyph glyph-name="fl" unicode="fl" horiz-adv-x="596" 
d="M578 31c0 -10.667 -2.00098 -21 -6.00098 -31h-221c-4 10 -6 20.333 -6 31s2 21 6 31h68v601c-10.667 8 -24.5 15.833 -41.5 23.5s-40.5 11.5 -70.5 11.5c-41.333 0 -70.5 -11.667 -87.5 -35s-25.5 -55.333 -25.5 -96v-60h110c4 -10 6 -20.333 6 -31s-2 -21 -6 -31h-110
v-383h68c4 -10 6 -20.333 6 -31s-2 -21 -6 -31h-226c-4 10 -6 20.333 -6 31s2 21 6 31h73v383h-79c-4 10 -6 20.333 -6 31s2 21 6 31h79v66c0 58.667 16.833 105.834 50.5 141.501s82.834 53.5 147.501 53.5c29.333 0 55 -2.83301 77 -8.5s41 -12.334 57 -20.001
s29 -15.667 39 -24s18 -15.5 24 -21.5v-632h68c4 -10 6 -20.333 6 -31z" />
    <glyph glyph-name=".notdef" horiz-adv-x="1000" 
 />
    <glyph glyph-name="space" unicode=" " horiz-adv-x="269" 
 />
    <glyph glyph-name="exclam" unicode="!" horiz-adv-x="269" 
d="M196 53c0 -18.667 -5.83301 -34.5 -17.5 -47.5s-26.167 -19.5 -43.5 -19.5s-31.833 6.5 -43.5 19.5s-17.5 28.833 -17.5 47.5s5.83301 34.5 17.5 47.5s26.167 19.5 43.5 19.5s31.833 -6.5 43.5 -19.5s17.5 -28.833 17.5 -47.5zM170 189h-70l-18 540h106z" />
    <glyph glyph-name="quotedbl" unicode="&#x22;" horiz-adv-x="462" 
d="M169 468h-57l-22 261h101zM348 468h-57l-22 261h101z" />
    <glyph glyph-name="numbersign" unicode="#" horiz-adv-x="575" 
d="M256 448l-45 -168h107l46 168h-108zM550 448h-113l-47 -168h114l-15 -57h-112l-60 -223h-72l59 223h-109l-59 -223h-72l59 223h-113l15 57h113l46 168h-113l15 57h113l61 224h72l-61 -224h108l62 224h72l-61 -224h113z" />
    <glyph glyph-name="dollar" unicode="$" 
d="M428 165c0 34 -11.5 60.5 -34.5 79.5s-56.5 35.5 -100.5 49.5v-241c48 1.33301 82.5 12.333 103.5 33s31.5 47 31.5 79zM243 616c-42 -0.666992 -73.833 -10.833 -95.5 -30.5s-32.5 -47.167 -32.5 -82.5c0 -18 3.66699 -33 11 -45s16.833 -22 28.5 -30
s24.667 -14.5 39 -19.5s28.5 -9.5 42.5 -13.5l7 -2v223zM513 166.001c0 -26.667 -5 -51.001 -15 -73.001s-24.5 -41 -43.5 -57s-42 -28.5 -69 -37.5s-57.833 -13.833 -92.5 -14.5v-96h-50v98c-42.667 5.33301 -75.834 16.166 -99.501 32.499s-42.167 34.166 -55.5 53.499
v-72c-10 -4 -21 -6 -33 -6c-10.667 0 -21 2 -31 6v215c12 3.33301 23 5 33 5c12.667 0 23.334 -1.66699 32.001 -5v-20c0 -15.333 2.83301 -30.5 8.5 -45.5s14.834 -29 27.501 -42s28.667 -24.167 48 -33.5s42.666 -15.666 69.999 -18.999v254l-69 20
c-18 5.33301 -35.333 12.5 -52 21.5s-31.334 20.167 -44.001 33.5s-22.834 29 -30.501 47s-11.5 38.333 -11.5 61c0 30 5 56.833 15 80.5s24.167 43.667 42.5 60s40.166 28.833 65.499 37.5s53.333 13 84 13v69h50v-73c34.667 -5.33301 61.834 -16.166 81.501 -32.499
s33.167 -32.5 40.5 -48.5v69c8.66699 4 19 6 31 6s22.667 -2 32 -6v-200c-8.66699 -3.33301 -19.667 -5 -33 -5c-6 0 -11.667 0.333008 -17 1s-10 2 -14 4v14c0 12.667 -2.16699 25.834 -6.5 39.501s-11.166 26.5 -20.499 38.5s-21.666 22.833 -36.999 32.5
s-34.333 16.5 -57 20.5v-235l48 -15c26.667 -8 50.5 -17.333 71.5 -28s39 -23.5 54 -38.5s26.5 -33 34.5 -54s12 -46.167 12 -75.5z" />
    <glyph glyph-name="percent" unicode="%" horiz-adv-x="914" 
d="M328 506c0 15.333 -2.99902 29.834 -8.99902 43.501s-14 25.5 -24 35.5s-21.667 17.833 -35 23.5s-27.666 8.5 -42.999 8.5c-16 0 -30.833 -3 -44.5 -9s-25.667 -14 -36 -24s-18.333 -21.833 -24 -35.5s-8.5 -27.834 -8.5 -42.501c0 -17.333 3 -33 9 -47
s14.167 -25.833 24.5 -35.5s22.166 -17.167 35.499 -22.5s27.666 -8 42.999 -8c16 0 30.833 3 44.5 9s25.5 14.167 35.5 24.5s17.833 22.333 23.5 36s8.5 28.167 8.5 43.5zM810.001 163.001c0 15.333 -2.99902 29.834 -8.99902 43.501s-14 25.5 -24 35.5
s-21.667 17.833 -35 23.5s-27.666 8.5 -42.999 8.5c-16 0 -30.833 -3 -44.5 -9s-25.667 -14 -36 -24s-18.333 -21.833 -24 -35.5s-8.5 -27.834 -8.5 -42.501c0 -17.333 3 -33 9 -47s14.167 -25.833 24.5 -35.5s22.166 -17.167 35.499 -22.5s27.666 -8 42.999 -8
c16 0 30.833 3 44.5 9s25.5 14.167 35.5 24.5s17.833 22.333 23.5 36s8.5 28.167 8.5 43.5zM394.002 506.002c0 -24.667 -4.66699 -47.835 -14 -69.502s-22 -40.667 -38 -57s-34.667 -29.166 -56 -38.499s-44.333 -14 -69 -14s-47.834 4.66699 -69.501 14s-40.667 22 -57 38
s-29.166 34.833 -38.499 56.5s-14 45.167 -14 70.5c0 24.667 4.66699 47.834 14 69.501s22.166 40.5 38.499 56.5s35.333 28.5 57 37.5s44.834 13.5 69.501 13.5c24 0 46.833 -4.66699 68.5 -14s40.5 -22 56.5 -38s28.667 -34.667 38 -56s14 -44.333 14 -69z
M303.002 -15.999h-75l387 699h75zM876.002 163.001c0 -24.667 -4.66699 -47.835 -14 -69.502s-22 -40.667 -38 -57s-34.667 -29.166 -56 -38.499s-44.333 -14 -69 -14s-47.834 4.66699 -69.501 14s-40.667 22 -57 38s-29.166 34.833 -38.499 56.5s-14 45.167 -14 70.5
c0 24.667 4.66699 47.834 14 69.501s22.166 40.5 38.499 56.5s35.333 28.5 57 37.5s44.834 13.5 69.501 13.5c24 0 46.833 -4.66699 68.5 -14s40.5 -22 56.5 -38s28.667 -34.667 38 -56s14 -44.333 14 -69z" />
    <glyph glyph-name="ampersand" unicode="&#x26;" horiz-adv-x="687" 
d="M258 333c-42 -20 -72.166 -42.5 -90.499 -67.5s-27.5 -52.833 -27.5 -83.5c0 -37.333 12 -67.5 36 -90.5s54.667 -34.5 92 -34.5c34 0 63.167 7.5 87.5 22.5s45.166 34.167 62.499 57.5zM687.001 31c0 -10.667 -1.99902 -20.999 -5.99902 -30.999h-151l-64 79
c-23.333 -26 -51.666 -48.333 -84.999 -67s-74 -28 -122 -28c-40 0 -73.333 6.66699 -100 20s-47.834 29.5 -63.501 48.5s-26.667 38.667 -33 59s-9.5 37.166 -9.5 50.499c0 24.667 2.66699 47.5 8 68.5s14.166 40.667 26.499 59s28.666 35.666 48.999 51.999
s45.833 32.166 76.5 47.499c-16.667 22 -29.667 41 -39 57s-16.333 29.667 -21 41s-7.5 20.833 -8.5 28.5s-1.5 14.167 -1.5 19.5v6c0.666992 46 16.167 83.333 46.5 112s72.5 43 126.5 43c32.667 0 61.167 -4.66699 85.5 -14s46.166 -19 65.499 -29v-81
c-23.333 14.667 -45.666 27 -66.999 37s-47.333 15 -78 15c-36 0 -61 -8 -75 -24s-21 -34.333 -21 -55c0 -19.333 7.83301 -40.666 23.5 -63.999s38.167 -52.666 67.5 -87.999l144 -176c11.333 28 19.333 54.167 24 78.5s7.66699 41.833 9 52.5h137c4 -10 6 -20.333 6 -31
s-2 -21 -6 -31h-68c-1.33301 -8.66699 -5.66602 -25.667 -12.999 -51s-19 -53 -35 -83l73 -90h93c4 -10 6 -20.333 6 -31z" />
    <glyph glyph-name="quotesingle" unicode="'" horiz-adv-x="269" 
d="M160 468h-55l-24 261h103z" />
    <glyph glyph-name="parenleft" unicode="(" horiz-adv-x="323" 
d="M224 -180c-26 40 -49 78.8311 -69 116.498s-36.5 75.834 -49.5 114.501s-22.833 77.834 -29.5 117.501s-10 81.5 -10 125.5s3.33301 85.833 10 125.5s16.5 78.667 29.5 117s29.5 76.5 49.5 114.5s43 76.667 69 116h75l-55.5 -113
c-16.333 -34 -30.166 -68.833 -41.499 -104.5s-20 -73.667 -26 -114s-9 -87.166 -9 -140.499c0 -54 3 -101.333 9 -142s14.667 -78.834 26 -114.501s25.166 -70.667 41.499 -105l55.5 -113.5h-75z" />
    <glyph glyph-name="parenright" unicode=")" horiz-adv-x="323" 
d="M257 294c0 -44 -3.33301 -85.8311 -10 -125.498s-16.5 -78.667 -29.5 -117s-29.5 -76.5 -49.5 -114.5s-43 -76.667 -69 -116h-75l55.5 112.5c16.333 34.333 30.166 69.333 41.499 105s20 73.667 26 114s9 87.166 9 140.499c0 54 -3 101.333 -9 142
s-14.667 78.834 -26 114.501s-25.166 70.667 -41.499 105l-55.5 113.5h75c26 -40 49 -78.833 69 -116.5s36.5 -75.834 49.5 -114.501s22.833 -77.834 29.5 -117.501s10 -81.5 10 -125.5z" />
    <glyph glyph-name="asterisk" unicode="*" horiz-adv-x="377" 
d="M234 596l68 -88l-54 -35l-60 92l-59 -92l-54 35l67 88l-105 29l21 60l102 -37l-4 110h64l-4 -110l102 38l21 -60z" />
    <glyph glyph-name="plus" unicode="+" 
d="M305 299v-209h-71v209h-210v71h210v210h71v-210h209v-71h-209z" />
    <glyph glyph-name="comma" unicode="," horiz-adv-x="269" 
d="M204 17c0 -38 -5.66797 -68.833 -17.001 -92.5s-24.333 -42.334 -39 -56.001s-29 -23.167 -43 -28.5s-23.667 -8.33301 -29 -9v50c25.333 11.333 43 26.5 53 45.5s15 40.5 15 64.5c-5.33301 -1.33301 -10.666 -2 -15.999 -2c-22 0 -37.5 6.66699 -46.5 20
s-13.5 28 -13.5 44c0 17.333 5.16699 32.833 15.5 46.5s25.833 20.5 46.5 20.5c12 0 22.667 -2.83301 32 -8.5s17 -13.167 23 -22.5s10.667 -20.166 14 -32.499s5 -25.5 5 -39.5z" />
    <glyph glyph-name="hyphen" unicode="-" horiz-adv-x="323" 
d="M280 268c0 -14.667 -2 -28.334 -6 -41.001h-225c-4 12.667 -6 26.334 -6 41.001s2 28.667 6 42h225c4 -13.333 6 -27.333 6 -42z" />
    <glyph glyph-name="hyphen" unicode="&#xad;" horiz-adv-x="323" 
d="M280 268c0 -14.667 -2 -28.334 -6 -41.001h-225c-4 12.667 -6 26.334 -6 41.001s2 28.667 6 42h225c4 -13.333 6 -27.333 6 -42z" />
    <glyph glyph-name="period" unicode="." horiz-adv-x="269" 
d="M195 53c0 -18.667 -5.83301 -34.5 -17.5 -47.5s-26.167 -19.5 -43.5 -19.5s-31.833 6.5 -43.5 19.5s-17.5 28.833 -17.5 47.5s5.83301 34.5 17.5 47.5s26.167 19.5 43.5 19.5s31.833 -6.5 43.5 -19.5s17.5 -28.833 17.5 -47.5z" />
    <glyph glyph-name="slash" unicode="/" horiz-adv-x="324" 
d="M74 -18h-74l250 776h74z" />
    <glyph glyph-name="zero" unicode="0" 
d="M413 335c0 42.667 -2.83301 80.8311 -8.5 114.498s-14.5 62.334 -26.5 86.001s-27 41.834 -45 54.501s-39.333 19 -64 19c-48.667 0 -84.667 -24.333 -108 -73s-35 -115.667 -35 -201c0 -42.667 2.83301 -81.167 8.5 -115.5s14.5 -63.5 26.5 -87.5s27 -42.333 45 -55
s39 -19 63 -19c24.667 0 46 6.33301 64 19s33 31 45 55s20.833 53.167 26.5 87.5s8.5 72.833 8.5 115.5zM503 334.997c0 -35.333 -3 -73.5 -9 -114.5s-17.5 -79 -34.5 -114s-40.833 -64.167 -71.5 -87.5s-70.334 -35 -119.001 -35c-32.667 0 -61 5.33301 -85 16
s-44.667 25.167 -62 43.5s-31.5 39.333 -42.5 63s-19.833 48.5 -26.5 74.5s-11.167 52.167 -13.5 78.5s-3.5 51.5 -3.5 75.5c0 35.333 3 73.333 9 114s17.5 78.334 34.5 113.001s40.667 63.5 71 86.5s69.833 34.5 118.5 34.5s88.334 -11.5 119.001 -34.5
s54.5 -51.833 71.5 -86.5s28.5 -72.334 34.5 -113.001s9 -78.667 9 -114z" />
    <glyph glyph-name="one" unicode="1" 
d="M458 33c0 -5.33301 -0.5 -10.833 -1.5 -16.5s-2.5 -11.167 -4.5 -16.5h-346c-2 5.33301 -3.5 10.833 -4.5 16.5s-1.5 11.167 -1.5 16.5c0 10 2 21 6 33h133v535h-133c-4 12 -6 23 -6 33c0 5.33301 0.5 10.833 1.5 16.5s2.5 11.167 4.5 16.5h222v-601h124
c4 -12 6 -23 6 -33z" />
    <glyph glyph-name="two" unicode="2" 
d="M26 0c0 31.333 4.49902 60.167 13.499 86.5s22.5 51.5 40.5 75.5s40.333 47.667 67 71s57.667 48 93 74l26 19l49 37c15.333 12 28.833 24.5 40.5 37.5s20.834 26.833 27.501 41.5s10 31 10 49c0 37.333 -11.333 66.166 -34 86.499s-54 30.5 -94 30.5
c-23.333 0 -44.666 -3.16699 -63.999 -9.5s-37 -14.5 -53 -24.5s-30.833 -21 -44.5 -33s-26.167 -24 -37.5 -36v91c8.66699 7.33301 19.5 16 32.5 26s28.5 19.5 46.5 28.5s38.167 16.667 60.5 23s47.166 9.5 74.499 9.5c26.667 0 52.167 -3.83301 76.5 -11.5
s45.833 -19.334 64.5 -35.001s33.5 -35.167 44.5 -58.5s16.5 -50.666 16.5 -81.999c0 -28 -5 -53.333 -15 -76s-23.5 -43.5 -40.5 -62.5s-37 -37.167 -60 -54.5s-47.5 -34.666 -73.5 -51.999l-27 -18c-46 -30.667 -80.333 -60.667 -103 -90s-36.334 -52 -41.001 -68h292v111
c12.667 4 25.334 6 38.001 6c14 0 27 -2 39 -6v-186h-465z" />
    <glyph glyph-name="three" unicode="3" 
d="M486 193c0 -26 -4.66895 -51.499 -14.002 -76.499s-23.833 -47.333 -43.5 -67s-44.834 -35.5 -75.501 -47.5s-67.667 -18 -111 -18s-82.833 6.33301 -118.5 19s-63.5 26.334 -83.5 41.001v99c12 -8 24.5 -17 37.5 -27s27.833 -19.167 44.5 -27.5
s35.334 -15.333 56.001 -21s44 -8.5 70 -8.5c22 0 42.167 3.16699 60.5 9.5s34.166 15.166 47.499 26.499s23.666 25 30.999 41s11 34 11 54c0 28.667 -5.66699 51.167 -17 67.5s-25.333 28.833 -42 37.5s-34.167 14.167 -52.5 16.5s-34.833 3.5 -49.5 3.5h-36
c-4 12.667 -6 24.667 -6 36c0 6.66699 0.5 12.5 1.5 17.5s2.5 10.833 4.5 17.5h42c16.667 0 32.834 2.16699 48.501 6.5s29.667 11.166 42 20.499s22.333 21.5 30 36.5s11.5 33.167 11.5 54.5c0 10 -2 21.167 -6 33.5s-10.833 23.833 -20.5 34.5s-22.667 19.5 -39 26.5
s-37.166 10.5 -62.499 10.5c-24 0 -45.833 -3.33301 -65.5 -10s-37.5 -15 -53.5 -25s-29.667 -20.333 -41 -31s-20.333 -20 -27 -28v89c10 11.333 22.333 21.833 37 31.5s30.834 18 48.501 25s36 12.5 55 16.5s37.833 6 56.5 6c31.333 0 59.5 -4.5 84.5 -13.5
s46.333 -21.5 64 -37.5s31.167 -34.667 40.5 -56s14 -44.333 14 -69c0 -22 -2.83301 -41.167 -8.5 -57.5s-12.667 -30.5 -21 -42.5s-17.666 -22.167 -27.999 -30.5s-20.5 -15.5 -30.5 -21.5c16 -5.33301 31 -12.333 45 -21s26.167 -19.5 36.5 -32.5s18.333 -28.333 24 -46
s8.5 -38.5 8.5 -62.5z" />
    <glyph glyph-name="four" unicode="4" 
d="M327 568l-234 -332h234v332zM516 202c0 -12 -2 -23.333 -6 -34h-103v-106h74c4 -10 6 -20.333 6 -31s-2 -21 -6 -31h-239c-4 10 -6 20.333 -6 31s2 21 6 31h85v106h-303v81l312 432h71v-445h103c4 -10 6 -21.333 6 -34z" />
    <glyph glyph-name="five" unicode="5" 
d="M483 221c0 -21.333 -3.33203 -45.832 -9.99902 -73.499s-18.667 -53.834 -36 -78.501s-41.333 -45.334 -72 -62.001s-70 -25 -118 -25c-26 0 -49.5 2 -70.5 6s-39.5 8.83301 -55.5 14.5s-29.833 11.834 -41.5 18.501s-21.167 12.667 -28.5 18v91
c13.333 -11.333 26.833 -21.333 40.5 -30s28.167 -16.334 43.5 -23.001s32.166 -11.667 50.499 -15s39.166 -5 62.499 -5c22 0 42 3.83301 60 11.5s33.5 18.334 46.5 32.001s23 30 30 49s10.5 39.833 10.5 62.5c0 52.667 -12.833 91.334 -38.5 116.001s-59.167 37 -100.5 37
c-29.333 0 -53.333 -5.66699 -72 -17s-34.667 -27.333 -48 -48h-70l36 367h346c4 -12 6 -24.667 6 -38c0 -6 -0.5 -13.167 -1.5 -21.5s-2.5 -15.5 -4.5 -21.5h-284l-19 -190c11.333 11.333 27.166 21.166 47.499 29.499s48.5 12.5 84.5 12.5
c24.667 0 49.334 -4.33301 74.001 -13s46.834 -21.834 66.501 -39.501s35.5 -40.167 47.5 -67.5s18 -59.666 18 -96.999z" />
    <glyph glyph-name="six" unicode="6" 
d="M418 214c0 16.667 -2.16504 34.0029 -6.49805 52.0029s-11.833 34.167 -22.5 48.5s-24.834 26.166 -42.501 35.499s-39.834 14 -66.501 14c-23.333 0 -43.833 -4.33301 -61.5 -13s-32.167 -20.167 -43.5 -34.5s-19.833 -30.833 -25.5 -49.5s-8.5 -38 -8.5 -58
c0 -18 2.83301 -36.167 8.5 -54.5s14.167 -35 25.5 -50s26 -27.167 44 -36.5s39.667 -14 65 -14c20.667 0 39.167 4 55.5 12s30.333 19.167 42 33.5s20.667 31.166 27 50.499s9.5 40.666 9.5 63.999zM504.002 218.003c0 -37.333 -5.50195 -70.501 -16.502 -99.501
s-26.5 -53.5 -46.5 -73.5s-44.333 -35.167 -73 -45.5s-61 -15.5 -97 -15.5c-29.333 0 -55 4.5 -77 13.5s-41 20.5 -57 34.5c-20 17.333 -36.167 37.833 -48.5 61.5s-21.833 48.334 -28.5 74.001s-11.167 51.334 -13.5 77.001s-3.5 49.167 -3.5 70.5
c0 37.333 4.16699 77.5 12.5 120.5s22.666 82.833 42.999 119.5s47.666 67.167 81.999 91.5s77.166 36.5 128.499 36.5c38 0 69.5 -4.33301 94.5 -13s48.167 -18 69.5 -28v-87c-23.333 15.333 -47 28.166 -71 38.499s-52.667 15.5 -86 15.5
c-38 0 -69.167 -9.83301 -93.5 -29.5s-43.166 -43.167 -56.499 -70.5s-22.5 -55.666 -27.5 -84.999s-7.5 -53.666 -7.5 -72.999c5.33301 9.33301 12.833 18.833 22.5 28.5s21.334 18.5 35.001 26.5s29.334 14.667 47.001 20s37.167 8 58.5 8
c22.667 0 46.334 -3.66699 71.001 -11s47.334 -19.333 68.001 -36s37.667 -38.834 51 -66.501s20 -61.834 20 -102.501z" />
    <glyph glyph-name="seven" unicode="7" 
d="M212 0h-95l301 584h-289v-111c-13.333 -4 -26 -6 -38 -6c-14 0 -27 2 -39 6v194h445v-75z" />
    <glyph glyph-name="eight" unicode="8" 
d="M411 189c0 22.667 -3.83301 42.5 -11.5 59.5s-18 30.833 -31 41.5s-28 18.667 -45 24s-35.167 8 -54.5 8s-37.5 -2.66699 -54.5 -8s-32 -13.333 -45 -24s-23.333 -24.5 -31 -41.5s-11.5 -36.833 -11.5 -59.5c0 -26.667 4.5 -48.5 13.5 -65.5s20.5 -30.5 34.5 -40.5
s29.333 -16.833 46 -20.5s32.667 -5.5 48 -5.5s31.333 1.83301 48 5.5s32 10.5 46 20.5s25.5 23.5 34.5 40.5s13.5 38.833 13.5 65.5zM391 502c0 10.667 -1.66699 22.334 -5 35.001s-9.5 24.667 -18.5 36s-21.5 20.833 -37.5 28.5s-36.333 11.5 -61 11.5
c-25.333 0 -45.833 -3.83301 -61.5 -11.5s-28 -17.167 -37 -28.5s-15.167 -23.333 -18.5 -36s-5 -24.334 -5 -35.001c0 -31.333 11.167 -57.666 33.5 -78.999s51.833 -32 88.5 -32s66.167 10.667 88.5 32s33.5 47.666 33.5 78.999zM499 198
c0 -29.333 -4.49805 -56.833 -13.498 -82.5s-22.833 -48.334 -41.5 -68.001s-42.5 -35.167 -71.5 -46.5s-63.5 -17 -103.5 -17s-74.5 5.66699 -103.5 17s-52.833 26.833 -71.5 46.5s-32.5 42.334 -41.5 68.001s-13.5 53.167 -13.5 82.5c0 12.667 2 26.834 6 42.501
s10.333 31.167 19 46.5s20 29.666 34 42.999s31 24.333 51 33c-9.33301 4.66699 -19 10.834 -29 18.501s-19.333 17.167 -28 28.5s-15.834 24.833 -21.501 40.5s-8.5 34.167 -8.5 55.5c0 22 3.66699 43.667 11 65s19.333 40.333 36 57s38 30 64 40s58 15 96 15s70 -5 96 -15
s47.333 -23.333 64 -40s28.667 -35.667 36 -57s11 -43 11 -65c0 -21.333 -2.83301 -39.833 -8.5 -55.5s-12.834 -29.167 -21.501 -40.5s-18.167 -20.833 -28.5 -28.5s-19.833 -13.834 -28.5 -18.501c20 -8.66699 37 -19.667 51 -33s25.333 -27.666 34 -42.999
s15 -30.833 19 -46.5s6 -29.834 6 -42.501z" />
    <glyph glyph-name="nine" unicode="9" 
d="M399 459c0 20.667 -2.67188 40.5029 -8.00488 59.5029s-13.666 35.667 -24.999 50s-25.666 25.666 -42.999 33.999s-37.666 12.5 -60.999 12.5c-22 0 -41.667 -4 -59 -12s-32 -19.333 -44 -34s-21.167 -31.834 -27.5 -51.501s-9.5 -40.834 -9.5 -63.501
c0 -17.333 2.16699 -35 6.5 -53s11.833 -34.333 22.5 -49s24.834 -26.5 42.501 -35.5s39.834 -13.5 66.501 -13.5c23.333 0 43.666 4.33301 60.999 13s31.833 20.167 43.5 34.5s20.334 31 26.001 50s8.5 38.5 8.5 58.5zM496.995 352.003
c0 -40 -3.99707 -81.665 -11.9971 -124.998s-22 -83 -42 -119s-46.833 -65.667 -80.5 -89s-76.167 -35 -127.5 -35c-38 0 -70.333 4 -97 12s-51.667 18 -75 30v89c12.667 -8 25 -15.333 37 -22s24.667 -12.5 38 -17.5s28 -8.83301 44 -11.5s34 -4 54 -4
c36 0 65.333 8.83301 88 26.5s40.5 39.5 53.5 65.5s21.833 53.667 26.5 83s7 55.666 7 78.999c-4.66699 -7.33301 -11.834 -15.666 -21.501 -24.999s-21.667 -18.166 -36 -26.499s-30.5 -15.333 -48.5 -21s-37.667 -8.5 -59 -8.5c-22.667 0 -46.334 3.5 -71.001 10.5
s-47.334 18.833 -68.001 35.5s-37.667 38.667 -51 66s-20 61.333 -20 102c0 35.333 5.33301 67.5 16 96.5s26 53.833 46 74.5s44.167 36.667 72.5 48s60.5 17 96.5 17c34 0 63.333 -5.33301 88 -16s45.5 -24.667 62.5 -42s30.667 -37.333 41 -60s18.333 -46.334 24 -71.001
s9.5 -49.334 11.5 -74.001s3 -47.334 3 -68.001z" />
    <glyph glyph-name="colon" unicode=":" horiz-adv-x="269" 
d="M195 53c0 -18.667 -5.83301 -34.5 -17.5 -47.5s-26.167 -19.5 -43.5 -19.5s-31.833 6.5 -43.5 19.5s-17.5 28.833 -17.5 47.5s5.83301 34.5 17.5 47.5s26.167 19.5 43.5 19.5s31.833 -6.5 43.5 -19.5s17.5 -28.833 17.5 -47.5zM195 440
c0 -18.667 -5.83301 -34.5 -17.5 -47.5s-26.167 -19.5 -43.5 -19.5s-31.833 6.5 -43.5 19.5s-17.5 28.833 -17.5 47.5s5.83301 34.5 17.5 47.5s26.167 19.5 43.5 19.5s31.833 -6.5 43.5 -19.5s17.5 -28.833 17.5 -47.5z" />
    <glyph glyph-name="semicolon" unicode=";" horiz-adv-x="269" 
d="M204 17c0 -38 -5.66797 -68.833 -17.001 -92.5s-24.333 -42.334 -39 -56.001s-29 -23.167 -43 -28.5s-23.667 -8.33301 -29 -9v50c25.333 11.333 43 26.5 53 45.5s15 40.5 15 64.5c-5.33301 -1.33301 -10.666 -2 -15.999 -2c-22 0 -37.5 6.66699 -46.5 20
s-13.5 28 -13.5 44c0 17.333 5.16699 32.833 15.5 46.5s25.833 20.5 46.5 20.5c12 0 22.667 -2.83301 32 -8.5s17 -13.167 23 -22.5s10.667 -20.166 14 -32.499s5 -25.5 5 -39.5zM198.999 440c0 -18.667 -5.83301 -34.5 -17.5 -47.5s-26.167 -19.5 -43.5 -19.5
s-31.833 6.5 -43.5 19.5s-17.5 28.833 -17.5 47.5s5.83301 34.5 17.5 47.5s26.167 19.5 43.5 19.5s31.833 -6.5 43.5 -19.5s17.5 -28.833 17.5 -47.5z" />
    <glyph glyph-name="semicolon" unicode="&#x37e;" horiz-adv-x="269" 
d="M204 17c0 -38 -5.66797 -68.833 -17.001 -92.5s-24.333 -42.334 -39 -56.001s-29 -23.167 -43 -28.5s-23.667 -8.33301 -29 -9v50c25.333 11.333 43 26.5 53 45.5s15 40.5 15 64.5c-5.33301 -1.33301 -10.666 -2 -15.999 -2c-22 0 -37.5 6.66699 -46.5 20
s-13.5 28 -13.5 44c0 17.333 5.16699 32.833 15.5 46.5s25.833 20.5 46.5 20.5c12 0 22.667 -2.83301 32 -8.5s17 -13.167 23 -22.5s10.667 -20.166 14 -32.499s5 -25.5 5 -39.5zM198.999 440c0 -18.667 -5.83301 -34.5 -17.5 -47.5s-26.167 -19.5 -43.5 -19.5
s-31.833 6.5 -43.5 19.5s-17.5 28.833 -17.5 47.5s5.83301 34.5 17.5 47.5s26.167 19.5 43.5 19.5s31.833 -6.5 43.5 -19.5s17.5 -28.833 17.5 -47.5z" />
    <glyph glyph-name="less" unicode="&#x3c;" 
d="M33 301v68l473 201v-78l-378 -157l378 -157v-77z" />
    <glyph glyph-name="equal" unicode="=" 
d="M24 201v71h490v-71h-490zM24 397v71h490v-71h-490z" />
    <glyph glyph-name="greater" unicode="&#x3e;" 
d="M33 101v77l378 157l-378 157v78l473 -201v-68z" />
    <glyph glyph-name="question" unicode="?" 
d="M314 53c0 -18.667 -5.83301 -34.5 -17.5 -47.5s-26.167 -19.5 -43.5 -19.5s-31.833 6.5 -43.5 19.5s-17.5 28.833 -17.5 47.5s5.83301 34.5 17.5 47.5s26.167 19.5 43.5 19.5s31.833 -6.5 43.5 -19.5s17.5 -28.833 17.5 -47.5zM480 567
c0 -36.667 -8.33984 -69.334 -25.0068 -98.001s-41.667 -60.334 -75 -95.001l-40 -43c-11.333 -12.667 -20.666 -25.834 -27.999 -39.501s-12.666 -28.5 -15.999 -44.5s-5 -35.333 -5 -58h-81c0 26 1.5 48.667 4.5 68s8 37.166 15 53.499s16.333 32 28 47
s25.834 31.5 42.501 49.5c10.667 12 21.334 23.333 32.001 34s20.334 21.834 29.001 33.501s15.5 24.334 20.5 38.001s7.5 29.167 7.5 46.5c0 13.333 -2.16699 26.666 -6.5 39.999s-11.833 25.333 -22.5 36s-24.5 19.334 -41.5 26.001s-37.833 10 -62.5 10
c-17.333 0 -35 -2.83301 -53 -8.5s-35.333 -13.167 -52 -22.5s-32.167 -19.666 -46.5 -30.999s-26.5 -22.666 -36.5 -33.999v89c10 9.33301 22 18.833 36 28.5s29.833 18.5 47.5 26.5s36.834 14.667 57.501 20s42.334 8 65.001 8c30.667 0 58.667 -4.5 84 -13.5
s47 -21.5 65 -37.5s32 -35 42 -57s15 -46 15 -72z" />
    <glyph glyph-name="at" unicode="@" horiz-adv-x="841" 
d="M412 351c-29.333 -3.33301 -51.999 -11.1689 -67.999 -23.502s-24.333 -32.166 -25 -59.499v-4c-0.666992 -18 5.5 -32.333 18.5 -43s30.833 -16 53.5 -16c13.333 0 26.833 2.16699 40.5 6.5s26.167 10.5 37.5 18.5s20.666 17.833 27.999 29.5s11.333 24.834 12 39.501
l3 63zM786.001 430.997c0 -46 -7.50293 -86.167 -22.5029 -120.5s-35.5 -63.166 -61.5 -86.499s-56 -40.666 -90 -51.999s-70 -17 -108 -17l3 47c-10.667 -14.667 -26 -28 -46 -40s-48.667 -18 -86 -18c-38 0 -69.333 10.167 -94 30.5s-37 49.166 -37 86.499v8
c2 36.667 14.833 67.667 38.5 93s62.167 40.666 115.5 45.999l117 11l1 11c0 2.66699 0.166992 5.33398 0.5 8.00098s0.5 5.33398 0.5 8.00098c0 23.333 -6.66699 41.333 -20 54s-37 19 -71 19c-14 0 -27.5 -1.83301 -40.5 -5.5s-25.333 -8.33398 -37 -14.001
s-22.334 -11.667 -32.001 -18s-18.167 -12.166 -25.5 -17.499l4 71c6 4 13.667 8.83301 23 14.5s20.166 10.834 32.499 15.501s26.5 8.66699 42.5 12s33.667 5 53 5c12 0 26.167 -1.16699 42.5 -3.5s32 -8 47 -17s27.833 -22 38.5 -39s16 -40.5 16 -70.5v-12l-11 -214
c20 4.66699 38.333 13.167 55 25.5s31 27.166 43 44.499s21.333 37 28 59s10 45 10 69c0 39.333 -7.5 74.833 -22.5 106.5s-35.167 58.5 -60.5 80.5s-54.666 39 -87.999 51s-68.666 18 -105.999 18c-44.667 0 -85.5 -8 -122.5 -24s-69 -38.333 -96 -67
s-48 -62.334 -63 -101.001s-22.5 -81 -22.5 -127c0 -47.333 7.83301 -90.333 23.5 -129s37.334 -71.5 65.001 -98.5s60.5 -47.833 98.5 -62.5s79.333 -22 124 -22c28.667 0 55 1.83301 79 5.5s46.333 9 67 16s40.5 15.333 59.5 25s38.5 20.167 58.5 31.5l34 -58
c-41.333 -24.667 -85.833 -45.334 -133.5 -62.001s-103.167 -25 -166.5 -25c-56 0 -107.667 9.33301 -155 28s-88.166 44.834 -122.499 78.501s-61.333 74.167 -81 121.5s-29.5 99.666 -29.5 156.999c0 54.667 10.167 105.167 30.5 151.5s47.833 86.5 82.5 120.5
s75.334 60.5 122.001 79.5s96 28.5 148 28.5c46.667 0 91 -7.83301 133 -23.5s79 -37.5 111 -65.5s57.333 -61.333 76 -100s28 -81 28 -127z" />
    <glyph glyph-name="A" unicode="A" horiz-adv-x="732" 
d="M363 645l-118 -339h233zM724 35c0 -11.333 -2 -23 -6 -35h-246c-4.66699 11.333 -7 23 -7 35s2.33301 23.667 7 35h86l-55 161h-284l-56 -161h86c4 -12 6 -23.667 6 -35s-2 -23 -6 -35h-235c-4 12 -6 23.667 -6 35s2 23 6 35h67l240 668h99l231 -668h67
c4 -12 6 -23.667 6 -35z" />
    <glyph glyph-name="B" unicode="B" horiz-adv-x="690" 
d="M536 211c0 26 -4.66602 47.334 -13.999 64.001s-21.5 30 -36.5 40s-32.167 17 -51.5 21s-39 6 -59 6h-175v-266h186c51.333 0 89.166 12.667 113.499 38s36.5 57.666 36.5 96.999zM497.001 540.001c0 16.667 -2.33496 31.833 -7.00195 45.5s-12.667 25.5 -24 35.5
s-26.166 17.833 -44.499 23.5s-41.166 8.5 -68.499 8.5h-153v-235h152c46 0 81.667 9.66699 107 29s38 50.333 38 93zM631.999 213c0 -28 -4.83105 -54.8311 -14.498 -80.498s-24.334 -48.334 -44.001 -68.001s-44.334 -35.334 -74.001 -47.001s-64.5 -17.5 -104.5 -17.5
h-359c-4 12 -6 23.667 -6 35s2 23 6 35h75v589h-75c-4 12 -6 23.667 -6 35s2 23 6 35h346c36.667 0 68.167 -5.16699 94.5 -15.5s48 -24 65 -41s29.5 -36.5 37.5 -58.5s12 -45 12 -69c0 -11.333 -1.16699 -23.833 -3.5 -37.5s-6.83301 -27.5 -13.5 -41.5
s-15.667 -27.5 -27 -40.5s-26.333 -23.833 -45 -32.5c14 -5.33301 28.667 -12.5 44 -21.5s29.333 -20.5 42 -34.5s23.167 -31.167 31.5 -51.5s12.5 -44.5 12.5 -72.5z" />
    <glyph glyph-name="C" unicode="C" horiz-adv-x="715" 
d="M646 450c-14 -4 -27.6699 -6 -41.0029 -6s-27 2 -41 6v48c0 24 -4 46.333 -12 67s-19.667 38.667 -35 54s-34.5 27.333 -57.5 36s-49.5 13 -79.5 13c-41.333 0 -76.333 -9.5 -105 -28.5s-52 -43.333 -70 -73s-31 -62.667 -39 -99s-12 -71.833 -12 -106.5
c0 -52.667 6.83301 -97.667 20.5 -135s31.834 -68 54.501 -92s48.667 -41.667 78 -53s60 -17 92 -17s61 4.5 87 13.5s49.333 19.833 70 32.5s38.167 25.834 52.5 39.501s25.5 24.834 33.5 33.501v-107c-9.33301 -8.66699 -22 -18.5 -38 -29.5s-34.667 -21.167 -56 -30.5
s-44.666 -17.333 -69.999 -24s-52.333 -10 -81 -10c-57.333 0 -107.5 9.83301 -150.5 29.5s-78.667 46.5 -107 80.5s-49.5 73.667 -63.5 119s-21 93.666 -21 144.999c0 49.333 6.83301 97.5 20.5 144.5s34.167 88.667 61.5 125s61.333 65.666 102 87.999s88 33.5 142 33.5
c36.667 0 71 -6.33301 103 -19s60.667 -32.667 86 -60v61c12.667 4 25.334 6 38.001 6c13.333 0 26 -2 38 -6v-279z" />
    <glyph glyph-name="D" unicode="D" horiz-adv-x="735" 
d="M581 368c0 44 -5.00293 83.5 -15.0029 118.5s-24.5 64.667 -43.5 89s-42.333 43 -70 56s-59.167 19.5 -94.5 19.5h-156v-573h177c30.667 0 58.334 6.83301 83.001 20.5s45.834 33.167 63.501 58.5s31.334 55.833 41.001 91.5s14.5 75.5 14.5 119.5zM679.997 374
c0 -39.333 -4.66699 -80.833 -14 -124.5s-25.333 -84 -48 -121s-53 -67.667 -91 -92s-85.667 -36.5 -143 -36.5h-348c-4 12 -6 23.667 -6 35s2 23 6 35h75v589h-75c-4 12 -6 23.667 -6 35s2 23 6 35h338c48.667 0 92 -9 130 -27s70 -43 96 -75s45.833 -69.667 59.5 -113
s20.5 -90 20.5 -140z" />
    <glyph glyph-name="E" unicode="E" horiz-adv-x="644" 
d="M36 0c-4 12 -6 23.667 -6 35s2 23 6 35h75v589h-75c-4 12 -6 23.667 -6 35s2 23 6 35h547v-212c-13.333 -4 -26.333 -6 -39 -6c-13.333 0 -26.333 2 -39 6v134h-303v-237h303c4 -13.333 6 -26.333 6 -39c0 -13.333 -2 -26.333 -6 -39h-303v-258h310v137c14 4 27 6 39 6
c13.333 0 26 -2 38 -6v-215h-553z" />
    <glyph glyph-name="F" unicode="F" horiz-adv-x="609" 
d="M573 512c-12 -4.66699 -25 -7.00195 -39 -7.00195s-27 2.33301 -39 7v137h-293v-234h279c4.66699 -13.333 7 -26.666 7 -39.999s-2.33301 -26.666 -7 -39.999h-279v-264h90c4.66699 -12 7 -24 7 -36s-2.33301 -23.667 -7 -35h-256c-4 12 -6 23.667 -6 35s2 23 6 35h75
v589h-75c-4 12 -6 23.667 -6 35s2 23 6 35h537v-217z" />
    <glyph glyph-name="G" unicode="G" horiz-adv-x="757" 
d="M728 316c0 -11.333 -2.00195 -23.002 -6.00195 -35.002h-65v-221c0 -2.66699 -0.5 -5.5 -1.5 -8.5s-3.5 -5.5 -7.5 -7.5c-8.66699 -5.33301 -21.167 -11.666 -37.5 -18.999s-35.166 -14.166 -56.499 -20.499s-44.833 -11.666 -70.5 -15.999s-51.834 -6.5 -78.501 -6.5
c-62 0 -115.167 10.667 -159.5 32s-80.5 49.666 -108.5 84.999s-48.667 76 -62 122s-20 93.667 -20 143s7 97 21 143s34.667 86.833 62 122.5s60.833 64.167 100.5 85.5s85.5 32 137.5 32c77.333 0 141 -26.333 191 -79v60c12.667 4 25.334 6 38.001 6c13.333 0 26 -2 38 -6
v-256c-13.333 -4 -26.666 -6 -39.999 -6c-14 0 -27.333 2 -40 6v38c0 20.667 -4 40.5 -12 59.5s-19.833 35.833 -35.5 50.5s-34.834 26.167 -57.501 34.5s-48.667 12.5 -78 12.5c-40.667 0 -75.334 -9 -104.001 -27s-52 -41.333 -70 -70s-31.167 -61.167 -39.5 -97.5
s-12.5 -72.833 -12.5 -109.5c0 -47.333 6.33301 -89.5 19 -126.5s30.334 -68.333 53.001 -94s49.334 -45.167 80.001 -58.5s63.667 -20 99 -20c19.333 0 36.5 0.666992 51.5 2s28.667 3.5 41 6.5s24 6.5 35 10.5s22.167 8.66699 33.5 14v184h-104c-4 12 -6 23.667 -6 35
s2 23 6 35h260c4 -12 6 -23.667 6 -35z" />
    <glyph glyph-name="H" unicode="H" horiz-adv-x="763" 
d="M733 35c0 -11.333 -2 -23 -6 -35h-241c-4 12 -6 23.667 -6 35s2 23 6 35h75v275h-359v-275h75c4 -12 6 -23.667 6 -35s-2 -23 -6 -35h-241c-4 12 -6 23.667 -6 35s2 23 6 35h75v589h-75c-4 12 -6 23.667 -6 35s2 23 6 35h241c4 -12 6 -23.667 6 -35s-2 -23 -6 -35h-75
v-236h359v236h-75c-4 12 -6 23.667 -6 35s2 23 6 35h241c4 -12 6 -23.667 6 -35s-2 -23 -6 -35h-75v-589h75c4 -12 6 -23.667 6 -35z" />
    <glyph glyph-name="I" unicode="I" horiz-adv-x="330" 
d="M292 35c0 -11.333 -2 -23 -6 -35h-242c-4 12 -6 23.667 -6 35s2 23 6 35h75v589h-75c-4 12 -6 23.667 -6 35s2 23 6 35h242c4 -12 6 -23.667 6 -35s-2 -23 -6 -35h-76v-589h76c4 -12 6 -23.667 6 -35z" />
    <glyph glyph-name="J" unicode="J" horiz-adv-x="516" 
d="M488 694c0 -11.333 -2.00098 -22.999 -6.00098 -34.999h-76v-429c0 -45.333 -5.33301 -83.5 -16 -114.5s-25.667 -56 -45 -75s-42.333 -32.5 -69 -40.5s-55.667 -12 -87 -12c-18.667 0 -36.667 2 -54 6s-33.333 8.66699 -48 14s-27.667 10.833 -39 16.5
s-20.333 10.5 -27 14.5v88c6 -4.66699 14.5 -10.5 25.5 -17.5s23.833 -13.833 38.5 -20.5s31 -12.334 49 -17.001s37.333 -7 58 -7c46.667 0 78.834 13.167 96.501 39.5s26.5 67.5 26.5 123.5v431h-89c-4 12 -6 23.667 -6 35s2 23 6 35h256c4 -12 6 -23.667 6 -35z" />
    <glyph glyph-name="K" unicode="K" horiz-adv-x="699" 
d="M696 35c0 -11.333 -2 -23 -6 -35h-262c-4 12 -6 23.667 -6 35s2 23 6 35h82l-204 312l-104 -103v-209h75c4 -12 6 -23.667 6 -35s-2 -23 -6 -35h-241c-4 12 -6 23.667 -6 35s2 23 6 35h75v589h-75c-4 12 -6 23.667 -6 35s2 23 6 35h241c4 -12 6 -23.667 6 -35
s-2 -23 -6 -35h-75v-283l283 283h-91c-4 12 -6 23.667 -6 35s2 23 6 35h262c4 -12 6 -23.667 6 -35s-2 -23 -6 -35h-70l-216 -214l249 -375h71c4 -12 6 -23.667 6 -35z" />
    <glyph glyph-name="L" unicode="L" horiz-adv-x="591" 
d="M36 0c-4 12 -6 23.667 -6 35s2 23 6 35h75v589h-75c-4 12 -6 23.667 -6 35s2 23 6 35h252c4 -12 6 -23.667 6 -35s-2 -23 -6 -35h-86v-581h276v165c14 4 27 6 39 6c13.333 0 26 -2 38 -6v-243h-519z" />
    <glyph glyph-name="M" unicode="M" horiz-adv-x="907" 
d="M877 35c0 -11.333 -2 -23.001 -6 -35.001h-239c-4 12 -6 23.667 -6 35s2 23 6 35h75v492c0 14.667 0.166992 32.5 0.5 53.5s0.833008 40.167 1.5 57.5l-217 -654h-89l-216 650c0.666992 -18 1.16699 -37 1.5 -57s0.5 -36.667 0.5 -50v-492h76c4 -12 6 -23.667 6 -35
s-2 -23 -6 -35h-229c-4 12 -6 23.667 -6 35s2 23 6 35h75v589h-75c-4 12 -6 23.667 -6 35s2 23 6 35h212l170 -512c2.66699 -7.33301 5.5 -16.333 8.5 -27l9.5 -33.5l9.5 -34c3 -11 5.5 -20.5 7.5 -28.5c2 8.66699 4.66699 18.834 8 30.501l9.5 34.5c3 11.333 6 22 9 32
s5.5 18 7.5 24l170 514h214c4 -12 6 -23.667 6 -35s-2 -23 -6 -35h-76v-589h76c4 -12 6 -23.667 6 -35z" />
    <glyph glyph-name="N" unicode="N" horiz-adv-x="757" 
d="M733 694c0 -11.333 -2 -23 -6 -35h-80v-668h-95l-310 538c-4 6.66699 -8.5 14.834 -13.5 24.501l-15 30l-14.5 31l-13 28.5c0.666992 -10.667 1.16699 -22.834 1.5 -36.501l1 -40c0.333008 -13 0.666016 -25 0.999023 -36s0.5 -18.833 0.5 -23.5v-437h78
c4 -12 6 -23.667 6 -35s-2 -23 -6 -35h-232c-4 12 -6 23.667 -6 35s2 23 6 35h75v589h-75c-4 12 -6 23.667 -6 35s2 23 6 35h185l294 -509c3.33301 -6 7.16602 -13.333 11.499 -22l14 -29l15 -33l14.5 -33c0 10 -0.166992 21.5 -0.5 34.5s-0.666016 25.333 -0.999023 37
s-0.666016 22 -0.999023 31s-0.5 15.167 -0.5 18.5v435h-81c-4 12 -6 23.667 -6 35s2 23 6 35h241c4 -12 6 -23.667 6 -35z" />
    <glyph glyph-name="O" unicode="O" horiz-adv-x="789" 
d="M635 364c0 46.667 -6 89 -18 127s-28.667 70.333 -50 97s-46.666 47.167 -75.999 61.5s-61.333 21.5 -96 21.5s-66.667 -7.16699 -96 -21.5s-54.833 -34.833 -76.5 -61.5s-38.5 -59 -50.5 -97s-18 -80.333 -18 -127s6 -88.834 18 -126.501s28.833 -69.834 50.5 -96.501
s47.167 -47.167 76.5 -61.5s61.333 -21.5 96 -21.5s66.667 7.16699 96 21.5s54.666 34.833 75.999 61.5s38 58.834 50 96.501s18 79.834 18 126.501zM734 364c0 -28 -2.33301 -56.668 -7 -86.001s-12.334 -58.166 -23.001 -86.499s-24.667 -55.166 -42 -80.499
s-38.666 -47.5 -63.999 -66.5s-54.666 -34.167 -87.999 -45.5s-71.666 -17 -114.999 -17c-65.333 0 -119.666 12.167 -162.999 36.5s-78.166 55.166 -104.499 92.499s-45 78.5 -56 123.5s-16.5 88.167 -16.5 129.5c0 42 5.5 85.5 16.5 130.5s29.667 86.167 56 123.5
s61.166 68.166 104.499 92.499s97.666 36.5 162.999 36.5c43.333 0 81.666 -5.66699 114.999 -17s62.666 -26.5 87.999 -45.5s46.666 -41.167 63.999 -66.5s31.333 -52.166 42 -80.499s18.334 -57.333 23.001 -87s7 -58.5 7 -86.5z" />
    <glyph glyph-name="P" unicode="P" horiz-adv-x="637" 
d="M510 523c0 44.667 -12.5 77.5 -37.5 98.5s-58.833 31.5 -101.5 31.5h-171v-264h167c44 0 78.833 10.5 104.5 31.5s38.5 55.167 38.5 102.5zM606 524c0 -24 -3.66992 -48.499 -11.0029 -73.499s-19.166 -47.667 -35.499 -68s-37.666 -37 -63.999 -50
s-58.5 -19.5 -96.5 -19.5h-199v-243h86c4 -12 6 -23.667 6 -35s-2 -23 -6 -35h-250c-4 12 -6 23.667 -6 35s2 23 6 35h75v589h-75c-4 12 -6 23.667 -6 35s2 23 6 35h363c33.333 0 62.833 -5.33301 88.5 -16s47.334 -25.334 65.001 -44.001s31 -40.5 40 -65.5
s13.5 -51.5 13.5 -79.5z" />
    <glyph glyph-name="Q" unicode="Q" horiz-adv-x="789" 
d="M635 364c0 46 -6 87.833 -18 125.5s-28.667 69.667 -50 96s-46.666 46.666 -75.999 60.999s-61.333 21.5 -96 21.5s-66.667 -7.16699 -96 -21.5s-54.833 -34.666 -76.5 -60.999s-38.5 -58.333 -50.5 -96s-18 -79.5 -18 -125.5s6 -87.667 18 -125
s28.833 -69.166 50.5 -95.499s47.167 -46.666 76.5 -60.999s61.333 -21.5 96 -21.5s66.667 7.16699 96 21.5s54.666 34.666 75.999 60.999s38 58.166 50 95.499s18 79 18 125zM734 -93c-15.333 -7.33301 -37.4971 -15.002 -66.4971 -23.002s-62.5 -12 -100.5 -12
c-48 0 -91.333 10.667 -130 32s-70.667 49 -96 83c-52.667 4.66699 -97.167 19.5 -133.5 44.5s-65.833 55.333 -88.5 91s-39 74.834 -49 117.501s-15 84 -15 124c0 42 5.5 85.5 16.5 130.5s29.667 86.167 56 123.5s61.166 68.166 104.499 92.499s97.666 36.5 162.999 36.5
c43.333 0 81.666 -5.66699 114.999 -17s62.666 -26.5 87.999 -45.5s46.666 -41.167 63.999 -66.5s31.333 -52.166 42 -80.499s18.334 -57.333 23.001 -87s7 -58.5 7 -86.5c0 -36.667 -4.16699 -75.167 -12.5 -115.5s-22.833 -78.5 -43.5 -114.5s-48.5 -67.333 -83.5 -94
s-79.167 -44.334 -132.5 -53.001c26.667 -26.667 63 -40 109 -40c10.667 0 21.834 0.333008 33.501 1s24.167 2.33398 37.5 5.00098s27.5 6.83398 42.5 12.501s31.5 13.167 49.5 22.5v-81z" />
    <glyph glyph-name="R" unicode="R" horiz-adv-x="700" 
d="M520 526c0 44.667 -12.667 77 -38 97s-59 30 -101 30h-181v-258h177c43.333 0 78 10 104 30s39 53.667 39 101zM685 35c0 -11.333 -2.00195 -23.001 -6.00195 -35.001h-152l-159 319h-168v-249h91c4 -12 6 -23.667 6 -35s-2 -23 -6 -35h-255c-4 12 -6 23.667 -6 35
s2 23 6 35h75v589h-75c-4 12 -6 23.667 -6 35s2 23 6 35h373c33.333 0 62.833 -5.16699 88.5 -15.5s47.334 -24.666 65.001 -42.999s31 -39.833 40 -64.5s13.5 -51 13.5 -79c0 -19.333 -2.5 -39.333 -7.5 -60s-13.167 -40.5 -24.5 -59.5s-26.666 -35.833 -45.999 -50.5
s-43 -25 -71 -31l139 -256h73c4 -12 6 -23.667 6 -35z" />
    <glyph glyph-name="S" unicode="S" horiz-adv-x="647" 
d="M610 184c0 -32 -6.66699 -60.3281 -20 -84.9951s-31.833 -45.667 -55.5 -63s-51.5 -30.5 -83.5 -39.5s-66.333 -13.5 -103 -13.5c-54.667 0 -99.834 8.33301 -135.501 25s-65.167 39 -88.5 67v-75c-13.333 -4 -26 -6 -38 -6c-12.667 0 -25.334 2 -38.001 6v262
c14 4 27.333 6 40 6c14 0 27 -2 39 -6v-42c0 -20.667 5 -40.667 15 -60s24.333 -36.333 43 -51s41.5 -26.334 68.5 -35.001s57.5 -13 91.5 -13c54 0 95.667 10.667 125 32s44 51 44 89c0 19.333 -3.5 36.166 -10.5 50.499s-16.667 26.833 -29 37.5s-27 19.834 -44 27.501
s-35.5 14.167 -55.5 19.5l-159 43c-20 5.33301 -39.333 12.833 -58 22.5s-35 21.667 -49 36s-25.167 31.166 -33.5 50.499s-12.5 41.666 -12.5 66.999c0 34.667 6.5 65 19.5 91s30.333 47.833 52 65.5s46.834 31 75.501 40s58.667 13.5 90 13.5
c50 0 91.667 -8.33301 125 -25s57.666 -37 72.999 -61v69c12.667 4 25.334 6 38.001 6c13.333 0 26 -2 38 -6v-245c-13.333 -4 -26.333 -6 -39 -6c-13.333 0 -26.333 2 -39 6v33c0 20 -4 39.167 -12 57.5s-20 34.666 -36 48.999s-35.833 25.666 -59.5 33.999
s-51.5 12.5 -83.5 12.5c-44 0 -80.333 -10.167 -109 -30.5s-43 -50.5 -43 -90.5c0 -28 8.33301 -50.333 25 -67s43 -29.667 79 -39l160 -43c30 -8 57 -17.833 81 -29.5s44.333 -26 61 -43s29.334 -37.167 38.001 -60.5s13 -51 13 -83z" />
    <glyph glyph-name="T" unicode="T" horiz-adv-x="685" 
d="M650 504c-13.333 -4 -26.333 -6 -39 -6c-13.333 0 -26.333 2 -39 6v152h-184v-586h79c4 -12 6 -23.667 6 -35s-2 -23 -6 -35h-249c-4 12 -6 23.667 -6 35s2 23 6 35h79v586h-184v-152c-13.333 -4 -26.333 -6 -39 -6c-13.333 0 -26.333 2 -39 6v225h615v-225z" />
    <glyph glyph-name="U" unicode="U" horiz-adv-x="758" 
d="M734 694c0 -11.333 -2.00293 -23 -6.00293 -35h-77v-415c0 -35.333 -5.33301 -68.833 -16 -100.5s-27 -59.5 -49 -83.5s-50.167 -43 -84.5 -57s-75.166 -21 -122.499 -21s-88.333 7 -123 21s-63.167 33 -85.5 57s-38.833 51.833 -49.5 83.5s-16 65.167 -16 100.5v415h-75
c-4 12 -6 23.667 -6 35s2 23 6 35h242c4 -12 6 -23.667 6 -35s-2 -23 -6 -35h-76v-403c0 -38 5.33301 -69.333 16 -94s24.834 -44.334 42.501 -59.001s37.334 -25 59.001 -31s43.5 -9 65.5 -9s44 3 66 9s41.833 16.333 59.5 31s32 34.334 43 59.001s16.5 56 16.5 94v403h-74
c-4 12 -6 23.667 -6 35s2 23 6 35h238c4 -12 6 -23.667 6 -35z" />
    <glyph glyph-name="V" unicode="V" horiz-adv-x="718" 
d="M710 694c0 -11.333 -1.99902 -23.001 -5.99902 -35.001h-67l-237 -668h-91l-228 668h-67c-4 12 -6 23.667 -6 35s2 23 6 35h246c4 -12 6 -23.667 6 -35s-2 -23 -6 -35h-86l119 -348l15.5 -48.5l20 -64c7 -22.333 13.333 -44.166 19 -65.499l13.5 -52
c3.33301 14 8.16602 31.5 14.499 52.5l20 65.5c7 22.667 14 44 21 64l16.5 48l123 348h-86c-4 12 -6 23.667 -6 35s2 23 6 35h234c4 -12 6 -23.667 6 -35z" />
    <glyph glyph-name="W" unicode="W" horiz-adv-x="1025" 
d="M1017 694c0 -11.333 -2.00098 -23.001 -6.00098 -35.001h-69l-182 -668h-93l-117 452c-2 7.33301 -4.83301 18.666 -8.5 33.999s-7.33398 31.5 -11.001 48.5l-10.5 50c-3.33301 16.333 -5.66602 29.5 -6.99902 39.5c-2 -10 -4.83301 -23.167 -8.5 -39.5l-11.5 -50
l-11.5 -48l-8.5 -34.5l-122 -452h-93l-176 668h-68c-4 12 -6 23.667 -6 35s2 23 6 35h245c4 -12 6 -23.667 6 -35s-2 -23 -6 -35h-85l98 -388l8.5 -35c3.66699 -15.333 7.33398 -31.666 11.001 -48.999l10.5 -50.5l8 -39.5c2 10 4.83301 23.333 8.5 40l11.5 51l11.5 48.5
l8.5 34.5l122 458h93l117 -458c2 -7.33301 4.83301 -18.666 8.5 -33.999s7.33398 -31.833 11.001 -49.5l10.5 -51c3.33301 -16.333 5.66602 -29.5 6.99902 -39.5c2 10 4.83301 23.167 8.5 39.5l11.5 50.5l11.5 49l8.5 35l103 388h-84c-4 12 -6 23.667 -6 35s2 23 6 35h233
c4 -12 6 -23.667 6 -35z" />
    <glyph glyph-name="X" unicode="X" horiz-adv-x="723" 
d="M706 35c0 -11.333 -2 -23 -6 -35h-264c-4 12 -6 23.667 -6 35s2 23 6 35h97l-174 237l-180 -237h96c4 -12 6 -23.667 6 -35s-2 -23 -6 -35h-251c-4 12 -6 23.667 -6 35s2 23 6 35h64l226 298l-215 291h-63c-4 12 -6 23.667 -6 35s2 23 6 35h263c4 -12 6 -23.667 6 -35
s-2 -23 -6 -35h-97l164 -223l169 223h-97c-4 12 -6 23.667 -6 35s2 23 6 35h251c4 -12 6 -23.667 6 -35s-2 -23 -6 -35h-63l-215 -283l225 -306h64c4 -12 6 -23.667 6 -35z" />
    <glyph glyph-name="Y" unicode="Y" horiz-adv-x="720" 
d="M712 694c0 -11.333 -2 -23 -6 -35h-58l-247 -367v-222h80c4 -12 6 -23.667 6 -35s-2 -23 -6 -35h-250c-4 12 -6 23.667 -6 35s2 23 6 35h79v223l-238 366h-58c-4 12 -6 23.667 -6 35s2 23 6 35h248c4 -12 6 -23.667 6 -35s-2 -23 -6 -35h-91l191 -293l197 293h-92
c-4 12 -6 23.667 -6 35s2 23 6 35h239c4 -12 6 -23.667 6 -35z" />
    <glyph glyph-name="Z" unicode="Z" horiz-adv-x="630" 
d="M30 0v78l445 573h-347v-138c-13.333 -4 -26.333 -6 -39 -6s-25.334 2 -38.001 6v216h531v-78l-446 -573h387v141c12.667 4 25.334 6 38.001 6c14 0 27 -2 39 -6v-219h-570z" />
    <glyph glyph-name="bracketleft" unicode="[" horiz-adv-x="269" 
d="M59 -168v926h183v-62h-99v-802h99v-62h-183z" />
    <glyph glyph-name="backslash" unicode="\" horiz-adv-x="324" 
d="M250 -18l-250 776h74l250 -776h-74z" />
    <glyph glyph-name="bracketright" unicode="]" horiz-adv-x="269" 
d="M27 -168v62h99v802h-99v62h183v-926h-183z" />
    <glyph glyph-name="asciicircum" unicode="^" horiz-adv-x="552" 
d="M432 256l-158 317l-158 -317h-81l207 411h70l205 -411h-85z" />
    <glyph glyph-name="underscore" unicode="_" horiz-adv-x="500" 
d="M0 -137v64h500v-64h-500z" />
    <glyph glyph-name="grave" unicode="`" horiz-adv-x="342" 
d="M198 575l-126 136h110l87 -136h-71z" />
    <glyph glyph-name="a" unicode="a" horiz-adv-x="533" 
d="M359 256l-125.998 -12.999c-36.667 -4 -64.834 -14 -84.501 -30s-29.5 -41.667 -29.5 -77c0 -24.667 8.66699 -44.334 26 -59.001s41 -22 71 -22c16.667 0 33.667 2.66699 51 8s32.666 13 45.999 23s24.333 22.5 33 37.5s13 32.167 13 51.5v81zM514.002 31.001
c0 -10.667 -2.00098 -21 -6.00098 -31h-145v68c-5.33301 -9.33301 -12 -18.833 -20 -28.5s-18.5 -18.5 -31.5 -26.5s-28.667 -14.5 -47 -19.5s-39.833 -7.5 -64.5 -7.5c-48.667 0 -88.5 13.167 -119.5 39.5s-46.5 63.5 -46.5 111.5c0 22 3.16699 42.667 9.5 62
s16.5 36.5 30.5 51.5s32.333 27.167 55 36.5s50.334 15.666 83.001 18.999l147 14v17c0 18 -1.83301 34 -5.5 48s-10 25.833 -19 35.5s-21.167 17 -36.5 22s-35 7.5 -59 7.5c-18 0 -35 -2.33301 -51 -7s-30.833 -10.167 -44.5 -16.5s-26 -13.166 -37 -20.499
s-19.833 -13.666 -26.5 -18.999v79c6.66699 4.66699 15.334 10.167 26.001 16.5s23.5 12.333 38.5 18s32.167 10.5 51.5 14.5s41 6 65 6c14.667 0 32.5 -1.5 53.5 -4.5s41.167 -10.333 60.5 -22s35.666 -28.834 48.999 -51.501s20 -53.667 20 -93v-288h64
c4 -10 6 -20.333 6 -31z" />
    <glyph glyph-name="b" unicode="b" horiz-adv-x="577" 
d="M450 254c0 16 -1.50195 35.1689 -4.50195 57.502s-9.33301 43.666 -19 63.999s-23.667 37.5 -42 51.5s-42.833 21 -73.5 21c-30 0 -54.167 -7 -72.5 -21s-32.166 -31.333 -41.499 -52s-15.5 -42.334 -18.5 -65.001s-4.5 -43 -4.5 -61c0 -38.667 4.83301 -70.5 14.5 -95.5
s21.5 -44.667 35.5 -59s29 -24.333 45 -30s30.667 -8.5 44 -8.5c22.667 0 42.5 5 59.5 15s31.333 24 43 42s20.334 39 26.001 63s8.5 50 8.5 78zM537.998 269.002c0 -30.667 -3.49805 -62.6621 -10.498 -95.9951s-19 -64 -36 -92s-39.833 -51 -68.5 -69
s-64.667 -27 -108 -27c-30 0 -58 7.5 -84 22.5s-45.333 36.833 -58 65.5v-73h-147c-4.66699 9.33301 -7 19.666 -7 30.999s2.33301 21.666 7 30.999h67v634h-67c-4.66699 9.33301 -7 19.666 -7 30.999s2.33301 21.666 7 30.999h152v-318c5.33301 8 12 16.667 20 26
s18 18 30 26s26.167 14.833 42.5 20.5s35.166 8.5 56.499 8.5c33.333 0 63.166 -6.5 89.499 -19.5s48.5 -30.833 66.5 -53.5s31.667 -49.334 41 -80.001s14 -63.667 14 -99z" />
    <glyph glyph-name="c" unicode="c" horiz-adv-x="497" 
d="M452 298c-12 -4 -23.668 -6.00293 -35.001 -6.00293s-23 2 -35 6v27c0 38 -10 67.833 -30 89.5s-47.667 32.5 -83 32.5c-28.667 0 -52.167 -6.16699 -70.5 -18.5s-32.833 -28.166 -43.5 -47.499s-18 -40.833 -22 -64.5s-6 -47.167 -6 -70.5c0 -30.667 4 -57.5 12 -80.5
s19 -42.167 33 -57.5s30.667 -26.833 50 -34.5s40 -11.5 62 -11.5c20.667 0 40 2.83301 58 8.5s34 12.334 48 20.001s26 15.334 36 23.001s17.667 13.834 23 18.501v-88c-7.33301 -5.33301 -16.333 -11.333 -27 -18s-23.167 -13 -37.5 -19s-30.666 -11 -48.999 -15
s-38.5 -6 -60.5 -6c-38 0 -71.667 6.66699 -101 20s-54 31.666 -74 54.999s-35.167 50.333 -45.5 81s-15.5 63.667 -15.5 99c0 38 4.5 73.667 13.5 107s22.833 62.5 41.5 87.5s42.167 44.833 70.5 59.5s61.5 22 99.5 22c30 0 56 -6 78 -18s37.667 -26.333 47 -43v48
c10.667 4 21 6 31 6c11.333 0 22 -2 32 -6v-206z" />
    <glyph glyph-name="d" unicode="d" horiz-adv-x="576" 
d="M402 249c0 18 -1.50098 38.3301 -4.50098 60.9971s-9.33301 44.334 -19 65.001s-23.5 38 -41.5 52s-41.667 21 -71 21c-30.667 0 -55.167 -7 -73.5 -21s-32.333 -31.167 -42 -51.5s-16 -41.666 -19 -63.999s-4.5 -41.5 -4.5 -57.5c0 -28 2.83301 -54 8.5 -78
s14.334 -44.833 26.001 -62.5s26 -31.5 43 -41.5s36.833 -15 59.5 -15c12.667 0 27 2.83301 43 8.5s31 15.667 45 30s25.833 33.833 35.5 58.5s14.5 56.334 14.5 95.001zM556.999 30.9971c0 -11.333 -2.3291 -21.6689 -6.99609 -31.002h-147v74
c-5.33301 -14 -12.833 -26.333 -22.5 -37s-20.834 -19.834 -33.501 -27.501s-26.334 -13.5 -41.001 -17.5s-29.334 -6 -44.001 -6c-43.333 0 -79.333 8.66699 -108 26s-51.5 39.333 -68.5 66s-29 56.334 -36 89.001s-10.5 64.667 -10.5 96
c0 36.667 4.66699 70.834 14 102.501s23 59 41 82s40 41 66 54s56 19.5 90 19.5c21.333 0 40.166 -2.83301 56.499 -8.5s30.5 -12.667 42.5 -21s22 -17.166 30 -26.499s14.333 -17.666 19 -24.999v256h-66c-4.66699 9.33301 -7 19.666 -7 30.999s2.33301 21.666 7 30.999
h152v-696h66c4.66699 -9.33301 7 -19.666 7 -30.999z" />
    <glyph glyph-name="e" unicode="e" horiz-adv-x="506" 
d="M382 291c0 16.667 -1.83594 34.3311 -5.50293 52.998s-10.167 36 -19.5 52s-22.166 29.167 -38.499 39.5s-37.166 15.5 -62.499 15.5c-23.333 0 -43.166 -5.66699 -59.499 -17s-29.5 -25.166 -39.5 -41.499s-17.167 -33.666 -21.5 -51.999s-6.5 -34.833 -6.5 -49.5h253z
M128.997 228.997c0.666992 -21.333 4.66504 -42.001 11.998 -62.001s17.666 -37.833 30.999 -53.5s29.833 -28.334 49.5 -38.001s42.5 -14.5 68.5 -14.5c36.667 0 67.167 5.66699 91.5 17s46.166 23.333 65.499 36v-84c-17.333 -10 -40.166 -19.833 -68.499 -29.5
s-57.5 -14.5 -87.5 -14.5c-44.667 0 -83 7.5 -115 22.5s-58.167 35 -78.5 60s-35.166 53.5 -44.499 85.5s-14 65.333 -14 100s4.33301 68.167 13 100.5s21.834 60.833 39.501 85.5s40.334 44.334 68.001 59.001s60.5 22 98.5 22c40.667 0 74.5 -7.66699 101.5 -23
s48.833 -35.666 65.5 -60.999s28.5 -54.333 35.5 -87s10.5 -66 10.5 -100v-21h-342z" />
    <glyph glyph-name="f" unicode="f" horiz-adv-x="322" 
d="M342 681l-26.499 11.499c-10.333 4.33301 -25.5 6.5 -45.5 6.5c-20.667 0 -38.5 -7.16699 -53.5 -21.5s-22.5 -38.166 -22.5 -71.499v-99h110c4 -10 6 -20.333 6 -31s-2 -21 -6 -31h-110v-383h99c4 -10 6 -20.333 6 -31s-2 -21 -6 -31h-257c-4 10 -6 20.333 -6 31
s2 21 6 31h73v383h-79c-4 10 -6 20.333 -6 31s2 21 6 31h79v87c0 32 4.33301 59 13 81s20 40 34 54s30.167 24 48.5 30s37.166 9 56.499 9c17.333 0 32.5 -1.5 45.5 -4.5s24.833 -6.83301 35.5 -11.5v-71z" />
    <glyph glyph-name="g" unicode="g" horiz-adv-x="576" 
d="M402 257c0 18 -1.49805 38.001 -4.49805 60.001s-9.33301 42.667 -19 62s-23.334 35.666 -41.001 48.999s-41.5 20 -71.5 20c-30.667 0 -55.167 -6.66699 -73.5 -20s-32.333 -29.5 -42 -48.5s-16 -39.333 -19 -61s-4.5 -40.5 -4.5 -56.5c0 -28 3 -53.667 9 -77
s14.667 -43.5 26 -60.5s25.666 -30.167 42.999 -39.5s37 -14 59 -14c13.333 0 28 2.5 44 7.5s31 14.333 45 28s25.667 32.5 35 56.5s14 55.333 14 94zM557.002 476.001c0 -10.667 -1.99805 -20.999 -5.99805 -30.999h-67v-375c0 -47.333 -5.5 -86.833 -16.5 -118.5
s-26.5 -57.334 -46.5 -77.001s-44.333 -33.667 -73 -42s-60.667 -12.5 -96 -12.5c-20.667 0 -40.5 1.5 -59.5 4.5s-36.333 6.66699 -52 11s-29.5 9.16602 -41.5 14.499s-21.333 10.333 -28 15v80c8 -5.33301 17.667 -11.166 29 -17.499s24.166 -12.333 38.499 -18
s30.166 -10.5 47.499 -14.5s36.333 -6 57 -6c54 0 93.333 12.667 118 38s37 64 37 116v38c-11.333 -24 -29.5 -43.5 -54.5 -58.5s-52.5 -22.5 -82.5 -22.5c-44 0 -80.167 8.16699 -108.5 24.5s-51 37.5 -68 63.5s-28.833 55 -35.5 87s-10 63.667 -10 95
c0 37.333 4.66699 71.333 14 102s23 57 41 79s40 39.167 66 51.5s56 18.5 90 18.5c22.667 0 42.667 -3.16699 60 -9.5s32 -14 44 -23s21.833 -18.5 29.5 -28.5s13.5 -18.333 17.5 -25h2v72h148c4 -10 6 -20.333 6 -31z" />
    <glyph glyph-name="h" unicode="h" horiz-adv-x="585" 
d="M566 31c0 -10.667 -1.99902 -21.001 -5.99902 -31.001h-212c-4 10 -6 20.333 -6 31s2 21 6 31h59v250c0 20.667 -1.33301 39.5 -4 56.5s-7.83398 31.167 -15.501 42.5s-18.167 20.166 -31.5 26.499s-30.333 9.5 -51 9.5c-15.333 0 -30.5 -2.83301 -45.5 -8.5
s-28.5 -15 -40.5 -28s-21.833 -30.5 -29.5 -52.5s-11.5 -49.333 -11.5 -82v-214h59c4 -10 6 -20.333 6 -31s-2 -21 -6 -31h-212c-4 10 -6 20.333 -6 31s2 21 6 31h68v634h-68c-4 10 -6 20.333 -6 31s2 21 6 31h153v-315c12.667 22.667 31.5 41.334 56.5 56.001
s55.5 22 91.5 22c53.333 0 94.5 -15.167 123.5 -45.5s43.5 -75.166 43.5 -134.499v-279h67c4 -10 6 -20.333 6 -31z" />
    <glyph glyph-name="i" unicode="i" horiz-adv-x="292" 
d="M265 31c0 -10.667 -2 -21 -6 -31h-221c-4 10 -6 20.333 -6 31s2 21 6 31h68v383h-68c-4 10 -6 20.333 -6 31s2 21 6 31h153v-445h68c4 -10 6 -20.333 6 -31zM190 671c0 -17.333 -5.5 -31.833 -16.5 -43.5s-24.167 -17.5 -39.5 -17.5s-28.5 5.83301 -39.5 17.5
s-16.5 26.167 -16.5 43.5s5.5 31.833 16.5 43.5s24.167 17.5 39.5 17.5s28.5 -5.83301 39.5 -17.5s16.5 -26.167 16.5 -43.5z" />
    <glyph glyph-name="j" unicode="j" horiz-adv-x="277" 
d="M187 -20c0 -33.333 -4.00195 -60.5 -12.002 -81.5s-18.333 -37.333 -31 -49s-27.167 -19.5 -43.5 -23.5s-32.833 -6 -49.5 -6s-31.667 1.66699 -45 5s-24.666 7.33301 -33.999 12v66c9.33301 -4 19.833 -7.83301 31.5 -11.5s24.167 -5.5 37.5 -5.5
c20.667 0 35.834 5.5 45.501 16.5s14.5 28.5 14.5 52.5v490h-67c-4 10 -6 20.333 -6 31s2 21 6 31h153v-527zM185.998 671c0 -17.333 -5.5 -31.833 -16.5 -43.5s-24.167 -17.5 -39.5 -17.5s-28.5 5.83301 -39.5 17.5s-16.5 26.167 -16.5 43.5s5.5 31.833 16.5 43.5
s24.167 17.5 39.5 17.5s28.5 -5.83301 39.5 -17.5s16.5 -26.167 16.5 -43.5z" />
    <glyph glyph-name="k" unicode="k" horiz-adv-x="556" 
d="M552 31c0 -10.667 -2 -21 -6 -31h-208c-4 10 -6 20.333 -6 31s2 21 6 31h54l-132 210l-82 -69v-141h54c4 -10 6 -20.333 6 -31s-2 -21 -6 -31h-207c-4 10 -6 20.333 -6 31s2 21 6 31h68v634h-68c-4 10 -6 20.333 -6 31s2 21 6 31h153v-482l203 173h-82
c-4 8 -6 17.667 -6 29c0 9.33301 2 19 6 29h229c4 -10 6 -20.333 6 -31s-2 -21 -6 -31h-62l-143 -120l170 -263h53c4 -10 6 -20.333 6 -31z" />
    <glyph glyph-name="l" unicode="l" horiz-adv-x="283" 
d="M258 31c0 -10.667 -2 -21 -6 -31h-221c-4 10 -6 20.333 -6 31s2 21 6 31h68v634h-68c-4 10 -6 20.333 -6 31s2 21 6 31h153v-696h68c4 -10 6 -20.333 6 -31z" />
    <glyph glyph-name="m" unicode="m" horiz-adv-x="858" 
d="M839 31c0 -10.667 -2.00098 -21.0049 -6.00098 -31.0049h-212c-4 10 -6 20.333 -6 31s2 21 6 31h59v250c0 20 -0.833008 38.333 -2.5 55s-5.66699 31 -12 43s-15.5 21.333 -27.5 28s-28.333 10 -49 10c-14.667 0 -29 -2.83301 -43 -8.5s-26.333 -15 -37 -28
s-19.167 -30.667 -25.5 -53s-9.5 -49.833 -9.5 -82.5v-214h59c4 -10 6 -20.333 6 -31s-2 -21 -6 -31h-203c-4 10 -6 20.333 -6 31s2 21 6 31h59v250c0 20 -0.833008 38.333 -2.5 55s-5.66699 31 -12 43s-15.5 21.333 -27.5 28s-28.333 10 -49 10
c-14.667 0 -29 -2.83301 -43 -8.5s-26.333 -15 -37 -28s-19.167 -30.667 -25.5 -53s-9.5 -49.833 -9.5 -82.5v-214h59c4 -10 6 -20.333 6 -31s-2 -21 -6 -31h-212c-4 10 -6 20.333 -6 31s2 21 6 31h68v383h-68c-4 10 -6 20.333 -6 31s2 21 6 31h140v-75
c4.66699 8.66699 10.667 18.334 18 29.001s16.833 20.334 28.5 29.001s25.834 16 42.501 22s36.667 9 60 9c35.333 0 64.333 -6.66699 87 -20s40.667 -33.666 54 -60.999c6 10 13 19.833 21 29.5s17.833 18.334 29.5 26.001s25.667 13.834 42 18.501s35.5 7 57.5 7
c54 0 93.333 -15 118 -45s37 -75 37 -135v-279h68c4 -10 6 -20.333 6 -31z" />
    <glyph glyph-name="n" unicode="n" horiz-adv-x="590" 
d="M571 31c0 -10.667 -2 -21.002 -6 -31.002h-212c-4 10 -6 20.333 -6 31s2 21 6 31h59v250c0 20.667 -1.33301 39.5 -4 56.5s-7.83398 31.167 -15.501 42.5s-18.167 20.166 -31.5 26.499s-30.333 9.5 -51 9.5c-15.333 0 -30.5 -2.83301 -45.5 -8.5s-28.5 -15 -40.5 -28
s-21.833 -30.5 -29.5 -52.5s-11.5 -49.333 -11.5 -82v-214h59c4 -10 6 -20.333 6 -31s-2 -21 -6 -31h-212c-4 10 -6 20.333 -6 31s2 21 6 31h68v383h-68c-4 10 -6 20.333 -6 31s2 21 6 31h140v-75c4.66699 8.66699 11.334 18.334 20.001 29.001s19.5 20.334 32.5 29.001
s28.5 16 46.5 22s38.667 9 62 9c53.333 0 94.333 -15.167 123 -45.5s43 -75.166 43 -134.499v-279h68c4 -10 6 -20.333 6 -31z" />
    <glyph glyph-name="o" unicode="o" horiz-adv-x="549" 
d="M422 254c0 16.667 -2 36.334 -6 59.001s-11.5 44 -22.5 64s-26 37 -45 51s-43.833 21 -74.5 21s-55.5 -7 -74.5 -21s-33.833 -31 -44.5 -51s-18 -41.333 -22 -64s-6 -42.334 -6 -59.001c0 -17.333 2 -37.166 6 -59.499s11.333 -43.666 22 -63.999s25.5 -37.5 44.5 -51.5
s43.833 -21 74.5 -21s55.5 7 74.5 21s34 31.167 45 51.5s18.5 41.666 22.5 63.999s6 42.166 6 59.499zM510 254c0 -32.667 -4.66699 -65 -14 -97s-23.666 -60.667 -42.999 -86s-43.833 -45.833 -73.5 -61.5s-64.834 -23.5 -105.501 -23.5s-75.667 7.83301 -105 23.5
s-53.666 36.167 -72.999 61.5s-33.666 54 -42.999 86s-14 64.333 -14 97s4.66699 65 14 97s23.666 60.5 42.999 85.5s43.666 45.333 72.999 61s64.333 23.5 105 23.5s75.834 -7.83301 105.501 -23.5s54.167 -36 73.5 -61s33.666 -53.5 42.999 -85.5s14 -64.333 14 -97z" />
    <glyph glyph-name="p" unicode="p" horiz-adv-x="577" 
d="M450 254c0 16 -1.50195 35.1689 -4.50195 57.502s-9.33301 43.666 -19 63.999s-23.667 37.5 -42 51.5s-42.833 21 -73.5 21c-30 0 -54.167 -7 -72.5 -21s-32.166 -31.333 -41.499 -52s-15.5 -42.334 -18.5 -65.001s-4.5 -43 -4.5 -61c0 -38.667 4.83301 -70.5 14.5 -95.5
s21.5 -44.667 35.5 -59s29 -24.333 45 -30s30.667 -8.5 44 -8.5c22.667 0 42.5 5 59.5 15s31.333 24 43 42s20.334 39 26.001 63s8.5 50 8.5 78zM537.998 269.002c0 -30.667 -3.33301 -62.665 -10 -95.998s-18.334 -64 -35.001 -92s-39.167 -51 -67.5 -69
s-63.833 -27 -106.5 -27c-13.333 0 -27.166 2 -41.499 6s-28 9.5 -41 16.5s-24.667 15.667 -35 26s-18.166 22.166 -23.499 35.499v-175h73c4 -10 6 -20.333 6 -31s-2 -21 -6 -31h-226c-4 10 -6 20.333 -6 31s2 21 6 31h68v551h-68c-4 10 -6 20.333 -6 31s2 21 6 31h149v-72
h1c4 6.66699 10 15 18 25s18 19.5 30 28.5s26.5 16.667 43.5 23s37.167 9.5 60.5 9.5c33.333 0 63.166 -6.5 89.499 -19.5s48.5 -30.833 66.5 -53.5s31.667 -49.334 41 -80.001s14 -63.667 14 -99z" />
    <glyph glyph-name="q" unicode="q" horiz-adv-x="576" 
d="M402 249c0 18 -1.50195 38.3311 -4.50195 60.998s-9.33301 44.334 -19 65.001s-23.334 38 -41.001 52s-41.5 21 -71.5 21c-31.333 0 -56.166 -7 -74.499 -21s-32.166 -31.167 -41.499 -51.5s-15.5 -41.666 -18.5 -63.999s-4.5 -41.5 -4.5 -57.5
c0 -28 2.83301 -54 8.5 -78s14.334 -45 26.001 -63s26 -32 43 -42s36.833 -15 59.5 -15c12.667 0 27 2.83301 43 8.5s31 15.667 45 30s25.833 34 35.5 59s14.5 56.833 14.5 95.5zM556.998 -137.002c0 -10.667 -2.00098 -21.001 -6.00098 -31.001h-225c-4 10 -6 20.333 -6 31
s2 21 6 31h72v175c-4.66699 -12 -11.5 -23 -20.5 -33s-19.667 -18.833 -32 -26.5s-25.666 -13.667 -39.999 -18s-28.833 -6.5 -43.5 -6.5c-43.333 0 -79.333 8.66699 -108 26s-51.5 39.5 -68.5 66.5s-29 56.833 -36 89.5s-10.5 64.667 -10.5 96
c0 36.667 4.66699 70.834 14 102.501s23 59 41 82s40 41 66 54s56 19.5 90 19.5c22.667 0 42.667 -3.16699 60 -9.5s32 -14 44 -23s21.833 -18.5 29.5 -28.5s13.5 -18.333 17.5 -25h2v72h148c4 -10 6 -20.333 6 -31s-2 -21 -6 -31h-67v-551h67c4 -10 6 -20.333 6 -31z" />
    <glyph glyph-name="r" unicode="r" horiz-adv-x="381" 
d="M362 415c-6 3.33301 -13.8301 6.66992 -23.4971 10.0029s-22.167 5 -37.5 5c-12.667 0 -25.834 -2.66699 -39.501 -8s-26.334 -14.333 -38.001 -27s-21.334 -29.834 -29.001 -51.501s-11.5 -48.834 -11.5 -81.501v-200h73c4 -10 6 -20.333 6 -31s-2 -21 -6 -31h-226
c-4 10 -6 20.333 -6 31s2 21 6 31h68v383h-68c-4 10 -6 20.333 -6 31s2 21 6 31h140v-96c4 10.667 10.333 21.667 19 33s19.334 21.666 32.001 30.999s26.667 17 42 23s31.666 9 48.999 9c11.333 0 21.833 -0.833008 31.5 -2.5s18.5 -4.16699 26.5 -7.5z" />
    <glyph glyph-name="s" unicode="s" horiz-adv-x="496" 
d="M455 130c0 -21.333 -4.83105 -40.666 -14.498 -57.999s-23 -32.166 -40 -44.499s-37.167 -21.833 -60.5 -28.5s-48.666 -10 -75.999 -10c-32 0 -61.333 4.83301 -88 14.5s-48.667 24.834 -66 45.501v-46c-11.333 -4 -22 -6 -32 -6c-10.667 0 -21 2 -31 6v189
c12 4 23 6 33 6c11.333 0 22 -2 32 -6v-22c0 -17.333 4 -33.166 12 -47.499s18.833 -26.5 32.5 -36.5s29.5 -17.667 47.5 -23s37 -8 57 -8c31.333 0 57.333 5.66699 78 17s31 29.333 31 54c0 12.667 -2.16699 23.5 -6.5 32.5s-10.833 16.833 -19.5 23.5
s-19.334 12.5 -32.001 17.5s-27.334 9.83301 -44.001 14.5l-99 27c-34.667 9.33301 -62.5 24.166 -83.5 44.499s-31.5 47.833 -31.5 82.5c0 27.333 5.16699 50.666 15.5 69.999s23.833 35 40.5 47s35.334 20.667 56.001 26s41.667 8 63 8
c35.333 0 64.166 -5.83301 86.499 -17.5s38.166 -25.5 47.499 -41.5v46c10.667 4 21.334 6 32.001 6c11.333 0 22 -2 32 -6v-174c-11.333 -4 -22.666 -6 -33.999 -6s-22.333 2 -33 6v21c0 12 -2.5 24.167 -7.5 36.5s-12.833 23.5 -23.5 33.5s-24 18.167 -40 24.5
s-35 9.5 -57 9.5c-26.667 0 -49.834 -6 -69.501 -18s-29.5 -31.333 -29.5 -58c0 -21.333 7.16699 -36.5 21.5 -45.5s38.166 -17.833 71.499 -26.5l85 -22c24.667 -6.66699 46 -14.334 64 -23.001s33 -19.167 45 -31.5s20.833 -26.833 26.5 -43.5s8.5 -36.334 8.5 -59.001z
" />
    <glyph glyph-name="t" unicode="t" horiz-adv-x="322" 
d="M308 11c-10.667 -6.66699 -24.167 -11.333 -40.5 -14s-30.833 -4 -43.5 -4c-45.333 0 -79.333 12.5 -102 37.5s-34 60.167 -34 105.5v309h-77c-4 10 -6 20.333 -6 31s2 21 6 31h77v136l86 46v-182h120c4 -10 6 -20.333 6 -31s-2 -21 -6 -31h-120v-313
c0 -46.667 20.667 -70 62 -70c18 0 33 2 45 6s21 7.66699 27 11v-68z" />
    <glyph glyph-name="u" unicode="u" horiz-adv-x="584" 
d="M565 31c0 -10.667 -2 -21.002 -6 -31.002h-139v75c-6 -9.33301 -13.333 -19.166 -22 -29.499s-19.5 -20 -32.5 -29s-28.167 -16.5 -45.5 -22.5s-37.666 -9 -60.999 -9c-54 0 -95.333 15.167 -124 45.5s-43 75.5 -43 135.5v279h-67c-4 10 -6 20.333 -6 31s2 21 6 31h152
v-312c0 -21.333 1.5 -40.333 4.5 -57s8.16699 -30.667 15.5 -42s17.666 -20.166 30.999 -26.499s30.333 -9.5 51 -9.5c14.667 0 29.667 2.83301 45 8.5s29 15 41 28s21.833 30.5 29.5 52.5s11.5 49.333 11.5 82v214h-67c-4 10 -6 20.333 -6 31s2 21 6 31h153v-445h67
c4 -10 6 -20.333 6 -31z" />
    <glyph glyph-name="v" unicode="v" horiz-adv-x="537" 
d="M532 476c0 -10.667 -2.00195 -21.001 -6.00195 -31.001h-52l-162 -448h-87l-163 448h-51c-4 10 -6 20.333 -6 31s2 21 6 31h201c4 -10 6 -20.333 6 -31s-2 -21 -6 -31h-64l98 -286l6 -18.5c2.66699 -8.33301 5.33398 -17.333 8.00098 -27l7.5 -27.5l5.5 -20
c0.666992 4.66699 2.33398 11.334 5.00098 20.001l8.5 27.5l8.5 27l6 18.5l97 286h-62c-4 10 -6 20.333 -6 31s2 21 6 31h190c4 -10 6 -20.333 6 -31z" />
    <glyph glyph-name="w" unicode="w" horiz-adv-x="799" 
d="M794 476c0 -10.667 -2 -20.998 -6 -30.998h-52l-134 -448h-89l-75 275c-2.66699 8.66699 -5.66699 20 -9 34l-10.5 44c-3.66699 15.333 -7.16699 30.833 -10.5 46.5s-6 29.834 -8 42.501c-2 -12.667 -4.5 -26.834 -7.5 -42.501s-6.33301 -31.167 -10 -46.5l-10.5 -44
c-3.33301 -14 -6.33301 -25.333 -9 -34l-75 -275h-89l-136 448h-52c-4 10 -6 20.333 -6 31s2 21 6 31h204c4 -10 6 -20.333 6 -31s-2 -21 -6 -31h-63l63 -220c2.66699 -9.33301 5.66699 -21 9 -35l10 -44c3.33301 -15.333 6.5 -30.833 9.5 -46.5s5.5 -29.5 7.5 -41.5l7 41
c2.66699 15.333 5.5 30.666 8.5 45.999l8.5 43.5c2.66699 13.667 5.33398 25.167 8.00098 34.5l77 284h89l76 -283c2.66699 -9.33301 5.5 -20.833 8.5 -34.5s6 -28.167 9 -43.5l9 -46c3 -15.333 5.5 -29 7.5 -41c2 12 4.5 25.667 7.5 41s6.16699 30.666 9.5 45.999
s6.66602 29.833 9.99902 43.5s6.33301 25.167 9 34.5l62 221h-61c-4 10 -6 20.333 -6 31s2 21 6 31h192c4 -10 6 -20.333 6 -31z" />
    <glyph glyph-name="x" unicode="x" horiz-adv-x="536" 
d="M526 31c0 -10.667 -2 -21 -6 -31h-203c-4 10 -6 20.333 -6 31s2 21 6 31h61l-114 146l-119 -146h60c4 -10 6 -20.333 6 -31s-2 -21 -6 -31h-189c-4 10 -6 20.333 -6 31s2 21 6 31h48l161 192l-152 191h-48c-4 10 -6 20.333 -6 31s2 21 6 31h203c4 -10 6 -20.333 6 -31
s-2 -21 -6 -31h-63l108 -137l112 137h-60c-4 10 -6 20.333 -6 31s2 21 6 31h187c4 -10 6 -20.333 6 -31s-2 -21 -6 -31h-47l-153 -183l160 -200h48c4 -10 6 -20.333 6 -31z" />
    <glyph glyph-name="y" unicode="y" horiz-adv-x="537" 
d="M532 476c0 -10.667 -1.99902 -20.999 -5.99902 -30.999h-52l-175 -489c-9.33301 -26.667 -19.833 -48.834 -31.5 -66.501s-24.334 -31.667 -38.001 -42s-28.834 -17.5 -45.501 -21.5s-34.667 -6 -54 -6s-35.166 1.5 -47.499 4.5s-24.166 6.5 -35.499 10.5v67
c11.333 -4 24 -7.33301 38 -10s26.667 -4 38 -4s22 1 32 3s19.167 6.5 27.5 13.5s16.166 17.167 23.499 30.5s14.333 31 21 53l-164 457h-52c-4 10 -6 20.333 -6 31s2 21 6 31h204c4 -10 6 -20.333 6 -31s-2 -21 -6 -31h-64l98 -290l5.5 -17
c2.33301 -7.33301 4.66602 -15.166 6.99902 -23.499l7 -24c2.33301 -7.66699 3.83301 -13.834 4.5 -18.501c0.666992 4.66699 2 10.834 4 18.501s4.33301 15.667 7 24s5.33398 16.166 8.00098 23.499s4.66699 13 6 17l97 290h-62c-4 10 -6 20.333 -6 31s2 21 6 31h193
c4 -10 6 -20.333 6 -31z" />
    <glyph glyph-name="z" unicode="z" horiz-adv-x="446" 
d="M19 0v68l311 377h-228v-104c-12 -4 -23.667 -6 -35 -6s-23 2 -35 6v166h386v-68l-311 -377h250v103c12 4 23.667 6 35 6c12 0 23.667 -2 35 -6v-165h-408z" />
    <glyph glyph-name="braceleft" unicode="{" horiz-adv-x="324" 
d="M215 -168c-12 0 -24.001 2.8291 -36.001 8.49609s-22.667 13.834 -32 24.501s-16.833 23.667 -22.5 39s-8.5 33 -8.5 53v182c0 36.667 -7.5 66.834 -22.5 90.501s-33.5 35.5 -55.5 35.5v62c10.667 0 20.834 3 30.501 9s18 14.5 25 25.5s12.5 24 16.5 39s6 31.5 6 49.5
v183c0 20 2.83301 37.667 8.5 53s13.167 28.333 22.5 39s20 18.834 32 24.501s24 8.5 36 8.5h71v-62h-43c-17.333 0 -29 -7.83301 -35 -23.5s-9 -34.5 -9 -56.5v-183c0 -24 -3.5 -44.333 -10.5 -61s-15.333 -30.334 -25 -41.001s-19.167 -18.667 -28.5 -24
s-16.333 -8.66602 -21 -9.99902v-2c4.66699 -1.33301 11.667 -4.66602 21 -9.99902s18.833 -13.333 28.5 -24s18 -24.5 25 -41.5s10.5 -38.167 10.5 -63.5v-182c0 -21.333 3 -40 9 -56s17.667 -24 35 -24h43v-62h-71z" />
    <glyph glyph-name="bar" unicode="|" horiz-adv-x="252" 
d="M91 -18v776h71v-776h-71z" />
    <glyph glyph-name="braceright" unicode="}" horiz-adv-x="324" 
d="M286 265c-22 0 -40.499 -11.8291 -55.499 -35.4961s-22.5 -53.834 -22.5 -90.501v-182c0 -20 -2.83301 -37.667 -8.5 -53s-13.167 -28.333 -22.5 -39s-20 -18.834 -32 -24.501s-24 -8.5 -36 -8.5h-71v62h43c17.333 0 29 8 35 24s9 34.667 9 56v182
c0 25.333 3.5 46.5 10.5 63.5s15.333 30.833 25 41.5s19.167 18.667 28.5 24s16.333 8.66602 21 9.99902v2c-4.66699 1.33301 -11.667 4.66602 -21 9.99902s-18.833 13.333 -28.5 24s-18 24.334 -25 41.001s-10.5 37 -10.5 61v183c0 22 -3 40.833 -9 56.5
s-17.667 23.5 -35 23.5h-43v62h71c12 0 24 -2.83301 36 -8.5s22.667 -13.834 32 -24.501s16.833 -23.667 22.5 -39s8.5 -33 8.5 -53v-183c0 -18 2 -34.5 6 -49.5s9.5 -28 16.5 -39s15.167 -19.5 24.5 -25.5s19.666 -9 30.999 -9v-62z" />
    <glyph glyph-name="asciitilde" unicode="~" horiz-adv-x="651" 
d="M616 352c-8 -60.667 -25 -105.834 -51 -135.501s-60 -44.5 -102 -44.5c-18.667 0 -35.167 2 -49.5 6s-28.5 8.66699 -42.5 14l-116 44c-10.667 4 -21.834 7.5 -33.501 10.5s-24.5 4.5 -38.5 4.5c-25.333 0 -44.5 -8 -57.5 -24s-22.833 -39.667 -29.5 -71h-61
c8 60.667 25 105.834 51 135.501s60 44.5 102 44.5c18.667 0 35 -1.66699 49 -5s32 -9.33301 54 -18l105 -41c10.667 -4 21.834 -7.5 33.501 -10.5s24.5 -4.5 38.5 -4.5c25.333 0 44.5 8 57.5 24s22.833 39.667 29.5 71h61z" />
    <glyph glyph-name="nonbreakingspace" unicode="&#xa0;" horiz-adv-x="269" 
 />
    <glyph glyph-name="exclamdown" unicode="&#xa1;" horiz-adv-x="269" 
d="M82 -168l18 497h70l18 -497h-106zM196 453c0 -18.667 -5.83301 -34.5 -17.5 -47.5s-26.167 -19.5 -43.5 -19.5s-31.833 6.5 -43.5 19.5s-17.5 28.833 -17.5 47.5s5.83301 34.5 17.5 47.5s26.167 19.5 43.5 19.5s31.833 -6.5 43.5 -19.5s17.5 -28.833 17.5 -47.5z" />
    <glyph glyph-name="cent" unicode="&#xa2;" horiz-adv-x="485" 
d="M234 529c-22 -5.33301 -40.168 -14.834 -54.501 -28.501s-25.666 -29.667 -33.999 -48s-14.166 -38.5 -17.499 -60.5s-5 -43.333 -5 -64c0 -50 10.167 -90.167 30.5 -120.5s47.166 -50.166 80.499 -59.499v381zM450.999 379.999
c-12 -4 -23.666 -6.00488 -34.999 -6.00488s-23 2 -35 6v30c0 33.333 -7.5 60.333 -22.5 81s-36.5 33.667 -64.5 39v-389c19.333 1.33301 37.333 4.83301 54 10.5s31.5 12.334 44.5 20.001s24.167 15.167 33.5 22.5l22 17v-85l-25.5 -16
c-9.66699 -6 -20.834 -11.833 -33.501 -17.5s-26.834 -10.667 -42.501 -15s-33.167 -7.16602 -52.5 -8.49902v-85h-60v87c-32 4 -60.167 13.5 -84.5 28.5s-44.666 33.667 -60.999 56s-28.833 47.833 -37.5 76.5s-13 59 -13 91c0 34.667 4 67.834 12 99.501
s20 59.834 36 84.501s36.333 44.834 61 60.501s53.667 25.5 87 29.5v86h60v-87c22 -3.33301 41.333 -10.5 58 -21.5s28.667 -23.167 36 -36.5v48c10.667 4 21 6 31 6c11.333 0 22 -2 32 -6v-206z" />
    <glyph glyph-name="sterling" unicode="&#xa3;" 
d="M521 127c0 -12 -2.16602 -25.334 -6.49902 -40.001s-12 -28.5 -23 -41.5s-26 -23.833 -45 -32.5s-43.5 -13 -73.5 -13h-342v66l44.5 40c14.333 12.667 26.833 26.5 37.5 41.5s19.167 31.833 25.5 50.5s9.5 41.334 9.5 68.001c0 18.667 -2 35.667 -6 51h-108
c-2 5.33301 -3.5 10.833 -4.5 16.5s-1.5 11.167 -1.5 16.5s0.5 10.833 1.5 16.5s2.5 11.167 4.5 16.5h88c-4 15.333 -8 34.666 -12 57.999s-6 46.666 -6 69.999c0 13.333 2.83301 29.833 8.5 49.5s16 38.5 31 56.5s35.167 33.5 60.5 46.5s57.666 19.5 96.999 19.5
c18.667 0 35.834 -1.33301 51.501 -4s30 -6.33398 43 -11.001s25.167 -9.66699 36.5 -15s22.333 -11 33 -17v-87c-23.333 17.333 -47 31.666 -71 42.999s-52.667 17 -86 17c-44.667 0 -76.167 -10.167 -94.5 -30.5s-27.5 -47.166 -27.5 -80.499c0 -25.333 2 -46.833 6 -64.5
s8.66699 -34.5 14 -50.5h192c2 -5.33301 3.5 -10.833 4.5 -16.5s1.5 -11.167 1.5 -16.5s-0.5 -10.833 -1.5 -16.5s-2.5 -11.167 -4.5 -16.5h-171c1.33301 -7.33301 2.5 -14.833 3.5 -22.5s1.5 -15.834 1.5 -24.501c0 -23.333 -2.5 -44.166 -7.5 -62.499
s-11.833 -35.166 -20.5 -50.499s-18.667 -30 -30 -44s-23.333 -28 -36 -42h239c23.333 0 41 6 53 18s18 26.667 18 44c0 12 -1 22.167 -3 30.5s-4.33301 15.833 -7 22.5c5.33301 2 11.166 3.5 17.499 4.5s12.5 1.5 18.5 1.5c12.667 0 25 -2 37 -6
c3.33301 -7.33301 5.83301 -15.666 7.5 -24.999s2.5 -20.666 2.5 -33.999z" />
    <glyph glyph-name="currency" unicode="&#xa4;" 
d="M441 334c0 23.333 -4.49805 45.666 -13.498 66.999s-21.333 40.166 -37 56.499s-33.834 29.333 -54.501 39s-43 14.5 -67 14.5s-46.333 -4.83301 -67 -14.5s-38.834 -22.667 -54.501 -39s-28 -35.166 -37 -56.499s-13.5 -43.666 -13.5 -66.999
c0 -24 4.5 -46.833 13.5 -68.5s21.167 -40.667 36.5 -57s33.5 -29.333 54.5 -39s43.5 -14.5 67.5 -14.5s46.5 4.83301 67.5 14.5s39.167 22.667 54.5 39s27.5 35.333 36.5 57s13.5 44.5 13.5 68.5zM464.002 484c17.333 -19.333 30.002 -42.166 38.002 -68.499
s12 -53.5 12 -81.5s-4 -54.833 -12 -80.5s-20.667 -49.167 -38 -70.5l54 -56l-45 -45l-55 58c-20 -18.667 -43 -32.5 -69 -41.5s-52.667 -13.5 -80 -13.5s-54 4.5 -80 13.5s-49 22.833 -69 41.5l-55 -58l-45 45l54 56c-17.333 21.333 -30 44.833 -38 70.5s-12 52.5 -12 80.5
s4 55.167 12 81.5s20.667 49.166 38 68.499l-55 54l48 48l57 -56c19.333 16.667 41.666 29.334 66.999 38.001s51.333 13 78 13s52.667 -4.33301 78 -13s47.666 -21.334 66.999 -38.001l57 56l48 -48z" />
    <glyph glyph-name="yen" unicode="&#xa5;" 
d="M538 635c0 -9.33301 -1.66699 -20.001 -5 -32.001h-43l-145 -249h143v-50h-181v-82h181v-50h-181v-108h73c3.33301 -12 5 -22.667 5 -32s-1.66699 -20 -5 -32h-229c-4 10.667 -6 21.334 -6 32.001c0 10 2 20.667 6 32h72v108h-173v50h173v82h-173v50h137l-139 249h-43
c-3.33301 12 -5 22.667 -5 32s1.66699 20 5 32h207c4 -11.333 6 -22 6 -32c0 -10.667 -2 -21.334 -6 -32.001h-73l131 -243l138 243h-74c-4 10.667 -6 21.334 -6 32.001c0 10 2 20.667 6 32h199c3.33301 -12 5 -22.667 5 -32z" />
    <glyph glyph-name="brokenbar" unicode="&#xa6;" horiz-adv-x="252" 
d="M91 -18v258h71v-258h-71zM91 499v259h71v-259h-71z" />
    <glyph glyph-name="section" unicode="&#xa7;" horiz-adv-x="556" 
d="M429 234c0 22 -6.33594 41.332 -19.0029 57.999s-30.334 32.334 -53.001 47.001l-162 103c-19.333 -9.33301 -35.666 -22.833 -48.999 -40.5s-20 -38.167 -20 -61.5c0 -13.333 1.83301 -25 5.5 -35s8.83398 -19 15.501 -27s14.334 -15.167 23.001 -21.5l28 -19.5
l162 -104c16.667 11.333 32.334 25 47.001 41s22 36 22 60zM511.997 252.999c0 -21.333 -2.99707 -39.999 -8.99707 -55.999s-13.833 -30.5 -23.5 -43.5s-20.667 -24.333 -33 -34s-24.833 -18.5 -37.5 -26.5c8 -8 15.167 -16 21.5 -24s11.666 -16.667 15.999 -26
s7.83301 -19.666 10.5 -30.999s4 -24.333 4 -39c0 -24 -5 -45.5 -15 -64.5s-23.167 -35 -39.5 -48s-35.5 -23 -57.5 -30s-45 -10.5 -69 -10.5c-47.333 0 -88 7.66699 -122 23s-61.667 32.666 -83 51.999v94c6.66699 -8.66699 16.5 -18.5 29.5 -29.5s27.667 -21.333 44 -31
s33.833 -17.834 52.5 -24.501s37.667 -10 57 -10c12.667 0 25.667 0.833008 39 2.5s25.666 5.33398 36.999 11.001s20.666 13.5 27.999 23.5s11 23 11 39c0 10 -1.33301 19.167 -4 27.5s-7 16.333 -13 24s-14 15.5 -24 23.5s-22 16.667 -36 26l-165 110
c-19.333 12.667 -34.833 25.5 -46.5 38.5s-20.5 25.5 -26.5 37.5s-10 23.333 -12 34s-3 19.667 -3 27c0 21.333 2.5 40.166 7.5 56.499s12 30.833 21 43.5s19.5 24 31.5 34s25.333 19.333 40 28c-17.333 18.667 -29.5 36.5 -36.5 53.5s-10.5 35.167 -10.5 54.5
c0 23.333 5 44.833 15 64.5s23.667 36.5 41 50.5s37.666 24.833 60.999 32.5s48.333 11.5 75 11.5c20.667 0 40.5 -2.33301 59.5 -7s36.167 -10.5 51.5 -17.5s28.833 -14.167 40.5 -21.5s20.834 -13.333 27.501 -18v-95c-9.33301 10 -19.833 20 -31.5 30s-24.667 19 -39 27
s-30 14.667 -47 20s-35.833 8 -56.5 8c-31.333 0 -57.333 -6.16699 -78 -18.5s-31 -33.5 -31 -63.5c0 -18.667 6.33301 -34.834 19 -48.501s30.667 -27.5 54 -41.5l146 -90c15.333 -9.33301 29.666 -19 42.999 -29s24.833 -21.167 34.5 -33.5s17.334 -26.166 23.001 -41.499
s8.5 -33.333 8.5 -54z" />
    <glyph glyph-name="dieresis" unicode="&#xa8;" horiz-adv-x="342" 
d="M133 638c0 -15.333 -5 -28.333 -15 -39s-21.667 -16 -35 -16s-25.166 5.33301 -35.499 16s-15.5 23.667 -15.5 39s5.16699 28.333 15.5 39s22.166 16 35.499 16s25 -5.33301 35 -16s15 -23.667 15 -39zM310 638c0 -15.333 -5.16699 -28.333 -15.5 -39
s-22.166 -16 -35.499 -16s-25 5.33301 -35 16s-15 23.667 -15 39s5 28.333 15 39s21.667 16 35 16s25.166 -5.33301 35.499 -16s15.5 -23.667 15.5 -39z" />
    <glyph glyph-name="copyright" unicode="&#xa9;" horiz-adv-x="884" 
d="M591 410c-6.66699 -1.33301 -12.1641 -2.49707 -16.4971 -3.49707s-8.83301 -1.5 -13.5 -1.5c-4 0 -8.16699 0.5 -12.5 1.5s-9.83301 2.16699 -16.5 3.5v33c0 26 -8.5 48.167 -25.5 66.5s-42.5 27.5 -76.5 27.5c-22 0 -40.833 -5.33301 -56.5 -16
s-28.5 -24.334 -38.5 -41.001s-17.333 -35.334 -22 -56.001s-7 -41 -7 -61c0 -30 3.83301 -55.667 11.5 -77s17.834 -38.833 30.501 -52.5s27.167 -23.667 43.5 -30s33.166 -9.5 50.499 -9.5c18 0 34.333 2.66699 49 8s28 12 40 20s22.833 16.5 32.5 25.5
s18.167 17.5 25.5 25.5v-79c-6 -6 -14 -12.333 -24 -19s-21.333 -13 -34 -19s-26.667 -11 -42 -15s-31.333 -6 -48 -6c-34.667 0 -64.834 6 -90.501 18s-47 28.167 -64 48.5s-29.667 44.166 -38 71.499s-12.5 56.333 -12.5 87c0 29.333 4.16699 58 12.5 86
s20.666 53 36.999 75s36.666 39.667 60.999 53s52.5 20 84.5 20c41.333 0 76 -12.667 104 -38v25c6 2.66699 11.333 4.33398 16 5.00098s8.66699 1 12 1c4 0 8.33301 -0.333008 13 -1s9.66699 -2.33398 15 -5.00098v-171zM752.003 366.003c0 45.333 -8 87.333 -24 126
s-37.833 72.167 -65.5 100.5s-60.334 50.5 -98.001 66.5s-78.167 24 -121.5 24c-44 0 -84.833 -8 -122.5 -24s-70.5 -38.167 -98.5 -66.5s-50 -61.833 -66 -100.5s-24 -80.667 -24 -126c0 -46 8 -88.5 24 -127.5s38 -72.833 66 -101.5s60.833 -51 98.5 -67
s78.5 -24 122.5 -24c43.333 0 83.833 8 121.5 24s70.334 38.333 98.001 67s49.5 62.5 65.5 101.5s24 81.5 24 127.5zM829.003 366.003c0 -55.333 -10.333 -106.5 -31 -153.5s-48.667 -87.5 -84 -121.5s-76.333 -60.667 -123 -80s-96 -29 -148 -29
c-52.667 0 -102.5 9.66699 -149.5 29s-88.167 46 -123.5 80s-63.333 74.5 -84 121.5s-31 98.167 -31 153.5c0 54.667 10.333 105.334 31 152.001s48.667 87 84 121s76.5 60.5 123.5 79.5s96.833 28.5 149.5 28.5c52 0 101.333 -9.5 148 -28.5s87.667 -45.5 123 -79.5
s63.333 -74.333 84 -121s31 -97.334 31 -152.001z" />
    <glyph glyph-name="ordfeminine" unicode="&#xaa;" horiz-adv-x="380" 
d="M246 575l-81.999 -7c-21.333 -2 -38 -7.5 -50 -16.5s-18 -23.167 -18 -42.5c0 -13.333 5.16699 -24 15.5 -32s24.166 -12 41.499 -12c10 0 20.5 1.5 31.5 4.5s21 7.33301 30 13s16.5 12.667 22.5 21s9 17.833 9 28.5v43zM40.001 314v57h296v-57h-296zM349.001 445
c0 -3.33301 -0.333008 -6.83301 -1 -10.5s-2.33398 -7.83398 -5.00098 -12.501h-95v35c-14.667 -16 -29.5 -27.333 -44.5 -34s-35.167 -10 -60.5 -10c-30 0 -55.5 8.5 -76.5 25.5s-31.5 40.5 -31.5 70.5c0 28.667 9.16699 52.834 27.5 72.501s47.833 31.167 88.5 34.5l95 8
v6c0 20.667 -5.66699 36.5 -17 47.5s-30.666 16.5 -57.999 16.5c-20.667 0 -39.834 -4 -57.501 -12s-34.5 -18.667 -50.5 -32v60c13.333 8 29.5 16.167 48.5 24.5s43.167 12.5 72.5 12.5c8.66699 0 20 -1 34 -3s27.5 -6.66699 40.5 -14s24.167 -18.166 33.5 -32.499
s14 -33.833 14 -58.5v-171h37c2.66699 -4.66699 4.33398 -8.83398 5.00098 -12.501s1 -7.16699 1 -10.5z" />
    <glyph glyph-name="guillemotleft" unicode="&#xab;" horiz-adv-x="490" 
d="M173 28l-147 225l147 225h88l-148 -225l148 -225h-88zM376 28l-147 225l147 225h88l-148 -225l148 -225h-88z" />
    <glyph glyph-name="logicalnot" unicode="&#xac;" 
d="M443 201v196h-419v71h490v-267h-71z" />
    <glyph glyph-name="registered" unicode="&#xae;" horiz-adv-x="884" 
d="M541 462c0 24 -6.83301 41.5 -20.5 52.5s-32.167 16.5 -55.5 16.5h-102v-142h99c24.667 0 44 5.66699 58 17s21 30 21 56zM647 173c0 -6.66699 -1.33398 -14.999 -4.00098 -24.999h-97l-92 187h-91v-136h53c2.66699 -10 4 -18.667 4 -26c0 -6.66699 -1.33301 -15 -4 -25
h-156c-2.66699 5.33301 -4.33398 10 -5.00098 14s-1 7.66699 -1 11c0 4 0.333008 8 1 12s2.33398 8.66699 5.00098 14h42v335h-43c-2 6 -3.33301 10.833 -4 14.5s-1 7.5 -1 11.5s0.333008 7.83301 1 11.5s2.33398 8.16699 5.00098 13.5h221c40 0 71 -11.833 93 -35.5
s33 -52.834 33 -87.501c0 -11.333 -1.5 -23 -4.5 -35s-7.66699 -23.667 -14 -35s-15 -21.5 -26 -30.5s-24.5 -15.833 -40.5 -20.5l77 -142h44c2.66699 -10 4 -18.667 4 -26zM751.999 366.001c0 45.333 -8 87.333 -24 126s-37.833 72.167 -65.5 100.5
s-60.334 50.5 -98.001 66.5s-78.167 24 -121.5 24c-44 0 -84.833 -8 -122.5 -24s-70.5 -38.167 -98.5 -66.5s-50 -61.833 -66 -100.5s-24 -80.667 -24 -126c0 -46 8 -88.5 24 -127.5s38 -72.833 66 -101.5s60.833 -51 98.5 -67s78.5 -24 122.5 -24
c43.333 0 83.833 8 121.5 24s70.334 38.333 98.001 67s49.5 62.5 65.5 101.5s24 81.5 24 127.5zM828.999 366.001c0 -55.333 -10.333 -106.5 -31 -153.5s-48.667 -87.5 -84 -121.5s-76.333 -60.667 -123 -80s-96 -29 -148 -29c-52.667 0 -102.5 9.66699 -149.5 29
s-88.167 46 -123.5 80s-63.333 74.5 -84 121.5s-31 98.167 -31 153.5c0 54.667 10.333 105.334 31 152.001s48.667 87 84 121s76.5 60.5 123.5 79.5s96.833 28.5 149.5 28.5c52 0 101.333 -9.5 148 -28.5s87.667 -45.5 123 -79.5s63.333 -74.333 84 -121
s31 -97.334 31 -152.001z" />
    <glyph glyph-name="macron" unicode="&#xaf;" horiz-adv-x="342" 
d="M17 603v65h307v-65h-307z" />
    <glyph glyph-name="macron" unicode="&#x2c9;" horiz-adv-x="342" 
d="M17 603v65h307v-65h-307z" />
    <glyph glyph-name="degree" unicode="&#xb0;" horiz-adv-x="400" 
d="M282 583c0 24 -7.83301 44.333 -23.5 61s-35.167 25 -58.5 25s-42.833 -8.33301 -58.5 -25s-23.5 -37 -23.5 -61s7.83301 -44.333 23.5 -61s35.167 -25 58.5 -25s42.833 8.33301 58.5 25s23.5 37 23.5 61zM346 583c0 -20.667 -3.66699 -40 -11 -58
s-17.5 -33.5 -30.5 -46.5s-28.5 -23.167 -46.5 -30.5s-37.333 -11 -58 -11s-40 3.66699 -58 11s-33.5 17.5 -46.5 30.5s-23.167 28.5 -30.5 46.5s-11 37.333 -11 58s3.66699 40 11 58s17.5 33.5 30.5 46.5s28.5 23.167 46.5 30.5s37.333 11 58 11s40 -3.66699 58 -11
s33.5 -17.5 46.5 -30.5s23.167 -28.5 30.5 -46.5s11 -37.333 11 -58z" />
    <glyph glyph-name="plusminus" unicode="&#xb1;" 
d="M26 40v71h488v-71h-488zM305 357v-200h-71v200h-210v71h210v200h71v-202h209v-69h-209z" />
    <glyph glyph-name="twosuperior" unicode="&#xb2;" horiz-adv-x="400" 
d="M52 335c0 25.333 5.33008 47.335 15.9971 66.002s24 35 40 49s33.167 26.167 51.5 36.5s35.5 20.5 51.5 30.5s29.333 20 40 30s16 21.333 16 34c0 15.333 -5.5 27.166 -16.5 35.499s-26.5 12.5 -46.5 12.5c-24.667 0 -46.834 -5.5 -66.501 -16.5
s-40.167 -26.167 -61.5 -45.5v68c12 9.33301 29.333 19.666 52 30.999s51 17 85 17c16.667 0 32.834 -2 48.501 -6s29.5 -10.167 41.5 -18.5s21.667 -18.666 29 -30.999s11 -26.833 11 -43.5c0 -24 -8.16699 -44.333 -24.5 -61s-35.666 -31.667 -57.999 -45l-68 -40.5
c-23 -13.667 -41.167 -29.5 -54.5 -47.5h144v52c7.33301 2 13.5 3.33301 18.5 4s9.5 1 13.5 1c4.66699 0 9.33398 -0.333008 14.001 -1s11.334 -2.33398 20.001 -5.00098v-106h-296z" />
    <glyph glyph-name="threesuperior" unicode="&#xb3;" horiz-adv-x="400" 
d="M342 437c0 -14 -2.99805 -27.6729 -8.99805 -41.0059s-15.333 -25 -28 -35s-28.667 -18.167 -48 -24.5s-42.333 -9.5 -69 -9.5s-51.167 3.33301 -73.5 10s-41.166 14.334 -56.499 23.001v63l31 -17c10 -5.33301 20.167 -9.66602 30.5 -12.999s21.166 -6 32.499 -8
s24.333 -3 39 -3c23.333 0 41.833 4.83301 55.5 14.5s20.5 22.834 20.5 39.501c0 11.333 -2.66699 20.333 -8 27s-12 11.667 -20 15s-17 5.5 -27 6.5s-19.333 1.5 -28 1.5h-29c-2.66699 7.33301 -4.33398 12.833 -5.00098 16.5s-1 7.16699 -1 10.5s0.333008 6.83301 1 10.5
s2.66699 8.83398 6 15.501h33c17.333 0 32.666 3.66699 45.999 11s20 19.666 20 36.999c0 4 -0.833008 8.33301 -2.5 13s-5 9.33398 -10 14.001s-11.667 8.5 -20 11.5s-18.833 4.5 -31.5 4.5c-25.333 0 -47.5 -5.33301 -66.5 -16s-37.5 -23 -55.5 -37v62
c14.667 13.333 33.834 24 57.501 32s47.167 12 70.5 12c39.333 0 70.833 -8.83301 94.5 -26.5s35.5 -40.5 35.5 -68.5c0 -18 -4.5 -32.5 -13.5 -43.5s-19.5 -20.167 -31.5 -27.5c17.333 -7.33301 31.666 -17.166 42.999 -29.499s17 -29.166 17 -50.499z" />
    <glyph glyph-name="acute" unicode="&#xb4;" horiz-adv-x="342" 
d="M144 575h-71l87 136h110z" />
    <glyph glyph-name="mu" unicode="&#xb5;" horiz-adv-x="587" 
d="M565 31c0 -10.667 -1.99902 -20.999 -5.99902 -30.999h-139v75c-6 -9.33301 -13.333 -19.166 -22 -29.499s-19 -20 -31 -29s-25.667 -16.5 -41 -22.5s-33 -9 -53 -9c-22.667 0 -41.5 4.16699 -56.5 12.5s-28.167 19.166 -39.5 32.499v-198h-86l1 613h-67
c-4 10 -6 20.333 -6 31s2 21 6 31h152v-336c0 -12.667 1.5 -25.667 4.5 -39s8.16699 -25.333 15.5 -36s17.666 -19.334 30.999 -26.001s30.333 -10 51 -10c14.667 0 29.667 2.83301 45 8.5s29 15 41 28s21.833 30.5 29.5 52.5s11.5 49.333 11.5 82v214h-67
c-4 10 -6 20.333 -6 31s2 21 6 31h153v-445h67c4 -10 6 -20.333 6 -31z" />
    <glyph glyph-name="mu" unicode="&#x3bc;" horiz-adv-x="587" 
d="M565 31c0 -10.667 -1.99902 -20.999 -5.99902 -30.999h-139v75c-6 -9.33301 -13.333 -19.166 -22 -29.499s-19 -20 -31 -29s-25.667 -16.5 -41 -22.5s-33 -9 -53 -9c-22.667 0 -41.5 4.16699 -56.5 12.5s-28.167 19.166 -39.5 32.499v-198h-86l1 613h-67
c-4 10 -6 20.333 -6 31s2 21 6 31h152v-336c0 -12.667 1.5 -25.667 4.5 -39s8.16699 -25.333 15.5 -36s17.666 -19.334 30.999 -26.001s30.333 -10 51 -10c14.667 0 29.667 2.83301 45 8.5s29 15 41 28s21.833 30.5 29.5 52.5s11.5 49.333 11.5 82v214h-67
c-4 10 -6 20.333 -6 31s2 21 6 31h153v-445h67c4 -10 6 -20.333 6 -31z" />
    <glyph glyph-name="paragraph" unicode="&#xb6;" horiz-adv-x="679" 
d="M460 -180v847h-114v-847h-78v535c-32 0 -61.167 4.66699 -87.5 14s-48.833 22.333 -67.5 39s-33.167 36.167 -43.5 58.5s-15.5 46.5 -15.5 72.5c0 66 21 114.167 63 144.5s98 45.5 168 45.5h253v-909h-78z" />
    <glyph glyph-name="periodcentered" unicode="&#xb7;" horiz-adv-x="269" 
d="M195 335c0 -18.667 -5.83301 -34.5 -17.5 -47.5s-26.167 -19.5 -43.5 -19.5s-31.833 6.5 -43.5 19.5s-17.5 28.833 -17.5 47.5s5.83301 34.5 17.5 47.5s26.167 19.5 43.5 19.5s31.833 -6.5 43.5 -19.5s17.5 -28.833 17.5 -47.5z" />
    <glyph glyph-name="periodcentered" unicode="&#x2219;" horiz-adv-x="269" 
d="M195 335c0 -18.667 -5.83301 -34.5 -17.5 -47.5s-26.167 -19.5 -43.5 -19.5s-31.833 6.5 -43.5 19.5s-17.5 28.833 -17.5 47.5s5.83301 34.5 17.5 47.5s26.167 19.5 43.5 19.5s31.833 -6.5 43.5 -19.5s17.5 -28.833 17.5 -47.5z" />
    <glyph glyph-name="cedilla" unicode="&#xb8;" horiz-adv-x="342" 
d="M274 -129c0 -25.333 -9.99902 -46.5 -29.999 -63.5s-48 -25.5 -84 -25.5c-18 0 -34.667 2.16699 -50 6.5s-29.333 9.16602 -42 14.499l14 39c12 -5.33301 22.667 -9.16602 32 -11.499s20 -3.5 32 -3.5c4.66699 0 10.167 0.5 16.5 1.5s12.166 2.83301 17.499 5.5
s10 6.66699 14 12s6 12.666 6 21.999c0 15.333 -5.16699 25.5 -15.5 30.5s-20.5 7.5 -30.5 7.5c-4.66699 0 -10.334 -0.5 -17.001 -1.5s-13.667 -3.16699 -21 -6.5l-16 19l62 83h51l-43 -59c6.66699 2 14.334 3 23.001 3c16 0 29.167 -2.33301 39.5 -7
s18.5 -10.667 24.5 -18s10.333 -15.166 13 -23.499s4 -16.5 4 -24.5z" />
    <glyph glyph-name="onesuperior" unicode="&#xb9;" horiz-adv-x="400" 
d="M316 360c0 -2.66699 -0.334961 -5.99902 -1.00195 -9.99902s-2.66699 -9 -6 -15h-218c-3.33301 6 -5.33301 11 -6 15s-1 7.33301 -1 10c0 3.33301 0.333008 6.66602 1 9.99902s2.33398 8.66602 5.00098 15.999h76v239h-75c-3.33301 6.66699 -5.33301 11.667 -6 15
s-1 6.66602 -1 9.99902s0.333008 7 1 11s2.66699 9 6 15h149v-290h70c2.66699 -7.33301 4.33398 -12.666 5.00098 -15.999s1 -6.66602 1 -9.99902z" />
    <glyph glyph-name="ordmasculine" unicode="&#xba;" horiz-adv-x="375" 
d="M279 580c0 10 -1.16699 21.5 -3.5 34.5s-6.83301 25.333 -13.5 37s-16 21.334 -28 29.001s-27.333 11.5 -46 11.5s-33.834 -3.83301 -45.501 -11.5s-20.834 -17.334 -27.501 -29.001s-11.167 -24 -13.5 -37s-3.5 -24.5 -3.5 -34.5c0 -10.667 1.16699 -22.5 3.5 -35.5
s6.83301 -25.333 13.5 -37s15.834 -21.334 27.501 -29.001s26.834 -11.5 45.501 -11.5s34 3.83301 46 11.5s21.333 17.334 28 29.001s11.167 24 13.5 37s3.5 24.833 3.5 35.5zM40 314v58h296v-58h-296zM343 580c0 -20 -3 -40 -9 -60s-15.167 -38 -27.5 -54
s-28.333 -29 -48 -39s-43.167 -15 -70.5 -15s-50.666 5 -69.999 15s-35.166 23 -47.499 39s-21.333 34 -27 54s-8.5 40 -8.5 60s2.83301 40 8.5 60s14.667 37.833 27 53.5s28.166 28.5 47.499 38.5s42.666 15 69.999 15s50.833 -5 70.5 -15s35.667 -22.833 48 -38.5
s21.5 -33.5 27.5 -53.5s9 -40 9 -60z" />
    <glyph glyph-name="guillemotright" unicode="&#xbb;" horiz-adv-x="490" 
d="M114 28h-88l148 225l-148 225h88l147 -225zM317 28h-88l148 225l-148 225h88l147 -225z" />
    <glyph glyph-name="onequarter" unicode="&#xbc;" horiz-adv-x="914" 
d="M679 252l-112 -130h112v130zM336 360c0 -3.33301 -0.166992 -7 -0.5 -11s-2.16602 -9 -5.49902 -15h-218c-3.33301 6 -5.33301 11 -6 15s-1 7.66699 -1 11s0.166992 6.66602 0.5 9.99902s1.83301 8.33301 4.5 15h77v239h-75c-3.33301 6.66699 -5.33301 11.834 -6 15.501
s-1 7.16699 -1 10.5c0 2.66699 0.166992 6 0.5 10s2.16602 9 5.49902 15h149v-290h70c4.66699 -12 7 -20.333 7 -25h-1zM305 -16h-76l387 699h75zM808 98c0 -4 -0.166016 -8.16797 -0.499023 -12.501s-1.83301 -9.16602 -4.5 -14.499h-53v-79h-71v79h-180v53l188 215h63
v-217h52c3.33301 -5.33301 5.16602 -9.83301 5.49902 -13.5s0.5 -7.16699 0.5 -10.5z" />
    <glyph glyph-name="onehalf" unicode="&#xbd;" horiz-adv-x="914" 
d="M319 360c0 -2.66699 -0.166992 -5.99902 -0.5 -9.99902s-2.16602 -9 -5.49902 -15h-218c-3.33301 6 -5.33301 11 -6 15s-1 7.33301 -1 10c0 3.33301 0.166992 6.66602 0.5 9.99902s1.83301 8.66602 4.5 15.999h77v239h-75c-3.33301 6.66699 -5.33301 11.667 -6 15
s-1 6.66602 -1 9.99902s0.166992 7 0.5 11s2.16602 9 5.49902 15h149v-290h70c2.66699 -7.33301 4.5 -12.666 5.5 -15.999s1.5 -6.66602 1.5 -9.99902h-1zM288 -15.999h-76l387 699h76zM530 -8.99902c0 25.333 5.33203 47.335 15.999 66.002s24 35 40 49
s33.333 26.167 52 36.5s36 20.5 52 30.5s29.333 20 40 30s16 21.333 16 34c0 15.333 -5.5 27.166 -16.5 35.499s-26.5 12.5 -46.5 12.5c-24.667 0 -46.834 -5.5 -66.501 -16.5s-40.5 -26.167 -62.5 -45.5v68c12 9.33301 29.333 19.666 52 30.999s51 17 85 17
c16.667 0 32.834 -2 48.501 -6s29.667 -10.167 42 -18.5s22.166 -18.666 29.499 -30.999s11 -26.833 11 -43.5c0 -24 -8.16699 -44.333 -24.5 -61s-35.666 -31.667 -57.999 -45l-68 -40.5c-23 -13.667 -41.5 -29.5 -55.5 -47.5h144v52c7.33301 2 13.5 3.33301 18.5 4
s9.5 1 13.5 1c4.66699 0 9.33398 -0.333008 14.001 -1s11.667 -2.33398 21 -5.00098v-106h-297z" />
    <glyph glyph-name="threequarters" unicode="&#xbe;" horiz-adv-x="914" 
d="M684 252l-112 -130h112v130zM384 437c0 -14 -3 -27.6729 -9 -41.0059s-15.333 -25 -28 -35s-28.667 -18.167 -48 -24.5s-42.333 -9.5 -69 -9.5s-51.167 3.33301 -73.5 10s-41.5 14.334 -57.5 23.001v63l31 -17c10 -5.33301 20.167 -9.66602 30.5 -12.999
s21.166 -6 32.499 -8s24.333 -3 39 -3c23.333 0 42 4.83301 56 14.5s21 22.834 21 39.501c0 11.333 -2.66699 20.333 -8 27s-12 11.667 -20 15s-17 5.5 -27 6.5s-19.333 1.5 -28 1.5h-29c-3.33301 7.33301 -5.16602 12.833 -5.49902 16.5s-0.5 7.16699 -0.5 10.5
s0.166992 6.83301 0.5 10.5s2.16602 8.83398 5.49902 15.501h33c17.333 0 32.833 3.66699 46.5 11s20.5 19.666 20.5 36.999c0 4 -0.833008 8.33301 -2.5 13s-5 9.33398 -10 14.001s-11.667 8.5 -20 11.5s-18.833 4.5 -31.5 4.5c-25.333 0 -47.5 -5.33301 -66.5 -16
s-37.833 -23 -56.5 -37v62c14.667 13.333 33.834 24 57.501 32s47.167 12 70.5 12c39.333 0 71 -8.83301 95 -26.5s36 -40.5 36 -68.5c0 -18 -4.5 -32.5 -13.5 -43.5s-19.833 -20.167 -32.5 -27.5c17.333 -7.33301 31.833 -17.166 43.5 -29.499s17.5 -29.166 17.5 -50.499z
M310 -16.0059h-76l387 699h75zM813 97.9941c0 -4 -0.166016 -8.16797 -0.499023 -12.501s-1.83301 -9.16602 -4.5 -14.499h-53v-79h-71v79h-180v53l188 215h63v-217h52c3.33301 -5.33301 5.16602 -9.83301 5.49902 -13.5s0.5 -7.16699 0.5 -10.5z" />
    <glyph glyph-name="questiondown" unicode="&#xbf;" 
d="M480 -106c-10 -7.33301 -21.666 -15.3359 -34.999 -24.0029s-28.833 -16.667 -46.5 -24s-37.667 -13.333 -60 -18s-47.166 -7 -74.499 -7c-28 0 -53.833 4.16699 -77.5 12.5s-44.334 19.833 -62.001 34.5s-31.334 32 -41.001 52s-14.5 42 -14.5 66c0 38 9 71.667 27 101
s42 57 72 83c19.333 16.667 34.833 31.167 46.5 43.5s20.667 24 27 35s10.5 22.667 12.5 35s3 27.166 3 44.499h81c0 -21.333 -1.16699 -40.166 -3.5 -56.499s-6.66602 -31.666 -12.999 -45.999s-15.5 -28.666 -27.5 -42.999s-27.333 -30.166 -46 -47.499
c-10.667 -10 -21.334 -19.5 -32.001 -28.5s-20.167 -18.833 -28.5 -29.5s-15 -22.167 -20 -34.5s-7.5 -26.5 -7.5 -42.5c0 -30 10.5 -54.667 31.5 -74s52.5 -29 94.5 -29c18.667 0 37.5 2.66699 56.5 8s37 12 54 20s32.667 17.167 47 27.5s26.5 20.5 36.5 30.5v-89z
M358.001 453.997c0 -18.667 -5.83301 -34.5 -17.5 -47.5s-26.167 -19.5 -43.5 -19.5s-31.833 6.5 -43.5 19.5s-17.5 28.833 -17.5 47.5s5.83301 34.5 17.5 47.5s26.167 19.5 43.5 19.5s31.833 -6.5 43.5 -19.5s17.5 -28.833 17.5 -47.5z" />
    <glyph glyph-name="Agrave" unicode="&#xc0;" horiz-adv-x="732" 
d="M363 645l-118 -339h233zM724 35c0 -11.333 -2 -23 -6 -35h-246c-4.66699 11.333 -7 23 -7 35s2.33301 23.667 7 35h86l-55 161h-284l-56 -161h86c4 -12 6 -23.667 6 -35s-2 -23 -6 -35h-235c-4 12 -6 23.667 -6 35s2 23 6 35h67l240 668h99l231 -668h67
c4 -12 6 -23.667 6 -35zM348 787l-126 136h110l87 -136h-71z" />
    <glyph glyph-name="Aacute" unicode="&#xc1;" horiz-adv-x="732" 
d="M363 645l-118 -339h233zM724 35c0 -11.333 -2 -23 -6 -35h-246c-4.66699 11.333 -7 23 -7 35s2.33301 23.667 7 35h86l-55 161h-284l-56 -161h86c4 -12 6 -23.667 6 -35s-2 -23 -6 -35h-235c-4 12 -6 23.667 -6 35s2 23 6 35h67l240 668h99l231 -668h67
c4 -12 6 -23.667 6 -35zM374 787h-71l87 136h110z" />
    <glyph glyph-name="Acircumflex" unicode="&#xc2;" horiz-adv-x="732" 
d="M363 645l-118 -339h233zM724 35c0 -11.333 -2 -23 -6 -35h-246c-4.66699 11.333 -7 23 -7 35s2.33301 23.667 7 35h86l-55 161h-284l-56 -161h86c4 -12 6 -23.667 6 -35s-2 -23 -6 -35h-235c-4 12 -6 23.667 -6 35s2 23 6 35h67l240 668h99l231 -668h67
c4 -12 6 -23.667 6 -35zM431 787l-64 90l-64 -90h-77l96 136h90l96 -136h-77z" />
    <glyph glyph-name="Atilde" unicode="&#xc3;" horiz-adv-x="732" 
d="M363 645l-118 -339h233zM724 35c0 -11.333 -2 -23 -6 -35h-246c-4.66699 11.333 -7 23 -7 35s2.33301 23.667 7 35h86l-55 161h-284l-56 -161h86c4 -12 6 -23.667 6 -35s-2 -23 -6 -35h-235c-4 12 -6 23.667 -6 35s2 23 6 35h67l240 668h99l231 -668h67
c4 -12 6 -23.667 6 -35zM533 915c-2 -14.667 -5.50195 -28.5 -10.502 -41.5s-11.5 -24.333 -19.5 -34s-18 -17.334 -30 -23.001s-26.333 -8.5 -43 -8.5c-13.333 0 -26.166 2.16699 -38.499 6.5s-27.166 9.83301 -44.499 16.5l-21 8c-5.33301 2 -10.166 3.5 -14.499 4.5
s-8.33301 1.66699 -12 2s-7.83398 0.5 -12.501 0.5c-7.33301 0 -13.333 -1.66699 -18 -5s-8.5 -7.33301 -11.5 -12s-5.5 -9.5 -7.5 -14.5s-3.33301 -9.16699 -4 -12.5h-55c2 14.667 5.5 28.5 10.5 41.5s11.5 24.333 19.5 34s18 17.334 30 23.001s26.333 8.5 43 8.5
c20 0 36.167 -2.5 48.5 -7.5l42.5 -16.5c15.333 -5.33301 26 -8.83301 32 -10.5s12.333 -2.5 19 -2.5c7.33301 0 13.5 1.5 18.5 4.5s9 6.83301 12 11.5s5.33301 9.5 7 14.5s3.16699 9.16699 4.5 12.5h55z" />
    <glyph glyph-name="Adieresis" unicode="&#xc4;" horiz-adv-x="732" 
d="M363 645l-118 -339h233zM724 35c0 -11.333 -2 -23 -6 -35h-246c-4.66699 11.333 -7 23 -7 35s2.33301 23.667 7 35h86l-55 161h-284l-56 -161h86c4 -12 6 -23.667 6 -35s-2 -23 -6 -35h-235c-4 12 -6 23.667 -6 35s2 23 6 35h67l240 668h99l231 -668h67
c4 -12 6 -23.667 6 -35zM332 850c0 -15.333 -5 -28.333 -15 -39s-21.667 -16 -35 -16s-25.166 5.33301 -35.499 16s-15.5 23.667 -15.5 39s5.16699 28.333 15.5 39s22.166 16 35.499 16s25 -5.33301 35 -16s15 -23.667 15 -39zM509 850
c0 -15.333 -5.16699 -28.333 -15.5 -39s-22.166 -16 -35.499 -16s-25 5.33301 -35 16s-15 23.667 -15 39s5 28.333 15 39s21.667 16 35 16s25.166 -5.33301 35.499 -16s15.5 -23.667 15.5 -39z" />
    <glyph glyph-name="Aring" unicode="&#xc5;" horiz-adv-x="732" 
d="M363 645l-118 -339h233zM431 799c0 16 -6 30 -18 42s-26 18 -42 18s-30 -6 -42 -18s-18 -26 -18 -42s6 -30 18 -42s26 -18 42 -18s30 6 42 18s18 26 18 42zM724 35c0 -11.333 -2.00293 -23.001 -6.00293 -35.001h-246c-4.66699 11.333 -7 23 -7 35s2.33301 23.667 7 35
h86l-55 161h-284l-56 -161h86c4 -12 6 -23.667 6 -35s-2 -23 -6 -35h-235c-4 12 -6 23.667 -6 35s2 23 6 35h67l231 643c-13.333 9.33301 -24.166 21.5 -32.499 36.5s-12.5 31.5 -12.5 49.5c0 14 2.66699 27.333 8 40s12.833 23.834 22.5 33.501s20.834 17.167 33.501 22.5
s26 8 40 8s27.333 -2.66699 40 -8s23.834 -12.833 33.501 -22.5s17.167 -20.834 22.5 -33.501s8 -26 8 -40c0 -18 -4.16699 -34.667 -12.5 -50s-19.5 -27.666 -33.5 -36.999l222 -642h67c4 -12 6 -23.667 6 -35z" />
    <glyph glyph-name="AE" unicode="&#xc6;" horiz-adv-x="1001" 
d="M497 651h-64l-158 -334h222v334zM422 0c-4 12 -6 23.667 -6 35s2 23 6 35h75v175h-256l-83 -175h83c4 -12 6 -23.667 6 -35s-2 -23 -6 -35h-235c-4 12 -6 23.667 -6 35s2 23 6 35h67l282 589h-75c-4 12 -6 23.667 -6 35s2 23 6 35h660v-212c-13.333 -4 -26.333 -6 -39 -6
c-13.333 0 -26.333 2 -39 6v134h-274v-237h274c4 -13.333 6 -26.333 6 -39c0 -13.333 -2 -26.333 -6 -39h-274v-258h281v137c14 4 27 6 39 6c13.333 0 26 -2 38 -6v-215h-524z" />
    <glyph glyph-name="Ccedilla" unicode="&#xc7;" horiz-adv-x="715" 
d="M646 450c-14 -4 -27.6689 -6.00293 -41.002 -6.00293s-27 2 -41 6v48c0 24 -4 46.333 -12 67s-19.667 38.667 -35 54s-34.5 27.333 -57.5 36s-49.5 13 -79.5 13c-41.333 0 -76.333 -9.5 -105 -28.5s-52 -43.333 -70 -73s-31 -62.667 -39 -99s-12 -71.833 -12 -106.5
c0 -52.667 6.83301 -97.667 20.5 -135s31.834 -68 54.501 -92s48.667 -41.667 78 -53s60 -17 92 -17s61 4.5 87 13.5s49.333 19.833 70 32.5s38.167 25.834 52.5 39.501s25.5 24.834 33.5 33.501v-107c-9.33301 -8.66699 -22 -18.5 -38 -29.5s-34.667 -21.167 -56 -30.5
s-44.666 -17.333 -69.999 -24s-52.333 -10 -81 -10h-16l-30 -41c6.66699 2 14.334 3 23.001 3c16 0 29.167 -2.33301 39.5 -7s18.5 -10.667 24.5 -18s10.333 -15.166 13 -23.499s4 -16.5 4 -24.5c0 -25.333 -10 -46.5 -30 -63.5s-48 -25.5 -84 -25.5
c-18 0 -34.667 2.16699 -50 6.5s-29.333 9.16602 -42 14.499l14 39c12 -5.33301 22.667 -9.16602 32 -11.499s20 -3.5 32 -3.5c4.66699 0 10.167 0.5 16.5 1.5s12.166 2.83301 17.499 5.5s10 6.66699 14 12s6 12.666 6 21.999c0 15.333 -5.16699 25.5 -15.5 30.5
s-20.5 7.5 -30.5 7.5c-4.66699 0 -10.334 -0.5 -17.001 -1.5s-13.667 -3.16699 -21 -6.5l-16 19l52 70c-46.667 6.66699 -87.5 21 -122.5 43s-64 49.333 -87 82s-40.167 69.834 -51.5 111.501s-17 85.834 -17 132.501c0 49.333 6.83301 97.5 20.5 144.5
s34.167 88.667 61.5 125s61.333 65.666 102 87.999s88 33.5 142 33.5c36.667 0 71 -6.33301 103 -19s60.667 -32.667 86 -60v61c12.667 4 25.334 6 38.001 6c13.333 0 26 -2 38 -6v-279z" />
    <glyph glyph-name="Egrave" unicode="&#xc8;" horiz-adv-x="644" 
d="M36 0c-4 12 -6 23.667 -6 35s2 23 6 35h75v589h-75c-4 12 -6 23.667 -6 35s2 23 6 35h547v-212c-13.333 -4 -26.333 -6 -39 -6c-13.333 0 -26.333 2 -39 6v134h-303v-237h303c4 -13.333 6 -26.333 6 -39c0 -13.333 -2 -26.333 -6 -39h-303v-258h310v137c14 4 27 6 39 6
c13.333 0 26 -2 38 -6v-215h-553zM327 787l-126 136h110l87 -136h-71z" />
    <glyph glyph-name="Eacute" unicode="&#xc9;" horiz-adv-x="644" 
d="M36 0c-4 12 -6 23.667 -6 35s2 23 6 35h75v589h-75c-4 12 -6 23.667 -6 35s2 23 6 35h547v-212c-13.333 -4 -26.333 -6 -39 -6c-13.333 0 -26.333 2 -39 6v134h-303v-237h303c4 -13.333 6 -26.333 6 -39c0 -13.333 -2 -26.333 -6 -39h-303v-258h310v137c14 4 27 6 39 6
c13.333 0 26 -2 38 -6v-215h-553zM346 787h-71l87 136h110z" />
    <glyph glyph-name="Ecircumflex" unicode="&#xca;" horiz-adv-x="644" 
d="M36 0c-4 12 -6 23.667 -6 35s2 23 6 35h75v589h-75c-4 12 -6 23.667 -6 35s2 23 6 35h547v-212c-13.333 -4 -26.333 -6 -39 -6c-13.333 0 -26.333 2 -39 6v134h-303v-237h303c4 -13.333 6 -26.333 6 -39c0 -13.333 -2 -26.333 -6 -39h-303v-258h310v137c14 4 27 6 39 6
c13.333 0 26 -2 38 -6v-215h-553zM391 787l-64 90l-64 -90h-77l96 136h90l96 -136h-77z" />
    <glyph glyph-name="Edieresis" unicode="&#xcb;" horiz-adv-x="644" 
d="M36 0c-4 12 -6 23.667 -6 35s2 23 6 35h75v589h-75c-4 12 -6 23.667 -6 35s2 23 6 35h547v-212c-13.333 -4 -26.333 -6 -39 -6c-13.333 0 -26.333 2 -39 6v134h-303v-237h303c4 -13.333 6 -26.333 6 -39c0 -13.333 -2 -26.333 -6 -39h-303v-258h310v137c14 4 27 6 39 6
c13.333 0 26 -2 38 -6v-215h-553zM283 850c0 -15.333 -5 -28.333 -15 -39s-21.667 -16 -35 -16s-25.166 5.33301 -35.499 16s-15.5 23.667 -15.5 39s5.16699 28.333 15.5 39s22.166 16 35.499 16s25 -5.33301 35 -16s15 -23.667 15 -39zM460 850
c0 -15.333 -5.16699 -28.333 -15.5 -39s-22.166 -16 -35.499 -16s-25 5.33301 -35 16s-15 23.667 -15 39s5 28.333 15 39s21.667 16 35 16s25.166 -5.33301 35.499 -16s15.5 -23.667 15.5 -39z" />
    <glyph glyph-name="Igrave" unicode="&#xcc;" horiz-adv-x="330" 
d="M292 35c0 -11.333 -2 -23 -6 -35h-242c-4 12 -6 23.667 -6 35s2 23 6 35h75v589h-75c-4 12 -6 23.667 -6 35s2 23 6 35h242c4 -12 6 -23.667 6 -35s-2 -23 -6 -35h-76v-589h76c4 -12 6 -23.667 6 -35zM143 787l-126 136h110l87 -136h-71z" />
    <glyph glyph-name="Iacute" unicode="&#xcd;" horiz-adv-x="330" 
d="M292 35c0 -11.333 -2 -23 -6 -35h-242c-4 12 -6 23.667 -6 35s2 23 6 35h75v589h-75c-4 12 -6 23.667 -6 35s2 23 6 35h242c4 -12 6 -23.667 6 -35s-2 -23 -6 -35h-76v-589h76c4 -12 6 -23.667 6 -35zM180 787h-71l87 136h110z" />
    <glyph glyph-name="Icircumflex" unicode="&#xce;" horiz-adv-x="330" 
d="M292 35c0 -11.333 -2 -23 -6 -35h-242c-4 12 -6 23.667 -6 35s2 23 6 35h75v589h-75c-4 12 -6 23.667 -6 35s2 23 6 35h242c4 -12 6 -23.667 6 -35s-2 -23 -6 -35h-76v-589h76c4 -12 6 -23.667 6 -35zM231 787l-64 90l-64 -90h-77l96 136h90l96 -136h-77z" />
    <glyph glyph-name="Idieresis" unicode="&#xcf;" horiz-adv-x="330" 
d="M292 35c0 -11.333 -2 -23 -6 -35h-242c-4 12 -6 23.667 -6 35s2 23 6 35h75v589h-75c-4 12 -6 23.667 -6 35s2 23 6 35h242c4 -12 6 -23.667 6 -35s-2 -23 -6 -35h-76v-589h76c4 -12 6 -23.667 6 -35zM119 850c0 -15.333 -5 -28.333 -15 -39s-21.667 -16 -35 -16
s-25.166 5.33301 -35.499 16s-15.5 23.667 -15.5 39s5.16699 28.333 15.5 39s22.166 16 35.499 16s25 -5.33301 35 -16s15 -23.667 15 -39zM296 850c0 -15.333 -5.16699 -28.333 -15.5 -39s-22.166 -16 -35.499 -16s-25 5.33301 -35 16s-15 23.667 -15 39s5 28.333 15 39
s21.667 16 35 16s25.166 -5.33301 35.499 -16s15.5 -23.667 15.5 -39z" />
    <glyph glyph-name="Eth" unicode="&#xd0;" horiz-adv-x="735" 
d="M581 368c0 44 -5.00293 83.5 -15.0029 118.5s-24.5 64.667 -43.5 89s-42.333 43 -70 56s-59.167 19.5 -94.5 19.5h-156v-241h161v-70h-161v-262h177c30.667 0 58.334 6.83301 83.001 20.5s45.834 33.167 63.501 58.5s31.334 55.833 41.001 91.5s14.5 75.5 14.5 119.5z
M679.997 374c0 -39.333 -4.66699 -80.833 -14 -124.5s-25.333 -84 -48 -121s-53 -67.667 -91 -92s-85.667 -36.5 -143 -36.5h-348c-4 12 -6 23.667 -6 35s2 23 6 35h75v270h-81v70h81v249h-75c-4 12 -6 23.667 -6 35s2 23 6 35h338c48.667 0 92 -9 130 -27s70 -43 96 -75
s45.833 -69.667 59.5 -113s20.5 -90 20.5 -140z" />
    <glyph glyph-name="Ntilde" unicode="&#xd1;" horiz-adv-x="757" 
d="M733 694c0 -11.333 -2 -23 -6 -35h-80v-668h-95l-310 538c-4 6.66699 -8.5 14.834 -13.5 24.501l-15 30l-14.5 31l-13 28.5c0.666992 -10.667 1.16699 -22.834 1.5 -36.501l1 -40c0.333008 -13 0.666016 -25 0.999023 -36s0.5 -18.833 0.5 -23.5v-437h78
c4 -12 6 -23.667 6 -35s-2 -23 -6 -35h-232c-4 12 -6 23.667 -6 35s2 23 6 35h75v589h-75c-4 12 -6 23.667 -6 35s2 23 6 35h185l294 -509c3.33301 -6 7.16602 -13.333 11.499 -22l14 -29l15 -33l14.5 -33c0 10 -0.166992 21.5 -0.5 34.5s-0.666016 25.333 -0.999023 37
s-0.666016 22 -0.999023 31s-0.5 15.167 -0.5 18.5v435h-81c-4 12 -6 23.667 -6 35s2 23 6 35h241c4 -12 6 -23.667 6 -35zM557 915c-2 -14.667 -5.50195 -28.5 -10.502 -41.5s-11.5 -24.333 -19.5 -34s-18 -17.334 -30 -23.001s-26.333 -8.5 -43 -8.5
c-13.333 0 -26.166 2.16699 -38.499 6.5s-27.166 9.83301 -44.499 16.5l-21 8c-5.33301 2 -10.166 3.5 -14.499 4.5s-8.33301 1.66699 -12 2s-7.83398 0.5 -12.501 0.5c-7.33301 0 -13.333 -1.66699 -18 -5s-8.5 -7.33301 -11.5 -12s-5.5 -9.5 -7.5 -14.5
s-3.33301 -9.16699 -4 -12.5h-55c2 14.667 5.5 28.5 10.5 41.5s11.5 24.333 19.5 34s18 17.334 30 23.001s26.333 8.5 43 8.5c20 0 36.167 -2.5 48.5 -7.5l42.5 -16.5c15.333 -5.33301 26 -8.83301 32 -10.5s12.333 -2.5 19 -2.5c7.33301 0 13.5 1.5 18.5 4.5
s9 6.83301 12 11.5s5.33301 9.5 7 14.5s3.16699 9.16699 4.5 12.5h55z" />
    <glyph glyph-name="Ograve" unicode="&#xd2;" horiz-adv-x="789" 
d="M635 364c0 46.667 -6 89 -18 127s-28.667 70.333 -50 97s-46.666 47.167 -75.999 61.5s-61.333 21.5 -96 21.5s-66.667 -7.16699 -96 -21.5s-54.833 -34.833 -76.5 -61.5s-38.5 -59 -50.5 -97s-18 -80.333 -18 -127s6 -88.834 18 -126.501s28.833 -69.834 50.5 -96.501
s47.167 -47.167 76.5 -61.5s61.333 -21.5 96 -21.5s66.667 7.16699 96 21.5s54.666 34.833 75.999 61.5s38 58.834 50 96.501s18 79.834 18 126.501zM734 364c0 -28 -2.33301 -56.668 -7 -86.001s-12.334 -58.166 -23.001 -86.499s-24.667 -55.166 -42 -80.499
s-38.666 -47.5 -63.999 -66.5s-54.666 -34.167 -87.999 -45.5s-71.666 -17 -114.999 -17c-65.333 0 -119.666 12.167 -162.999 36.5s-78.166 55.166 -104.499 92.499s-45 78.5 -56 123.5s-16.5 88.167 -16.5 129.5c0 42 5.5 85.5 16.5 130.5s29.667 86.167 56 123.5
s61.166 68.166 104.499 92.499s97.666 36.5 162.999 36.5c43.333 0 81.666 -5.66699 114.999 -17s62.666 -26.5 87.999 -45.5s46.666 -41.167 63.999 -66.5s31.333 -52.166 42 -80.499s18.334 -57.333 23.001 -87s7 -58.5 7 -86.5zM382 786.999l-126 136h110l87 -136h-71z
" />
    <glyph glyph-name="Oacute" unicode="&#xd3;" horiz-adv-x="789" 
d="M635 364c0 46.667 -6 89 -18 127s-28.667 70.333 -50 97s-46.666 47.167 -75.999 61.5s-61.333 21.5 -96 21.5s-66.667 -7.16699 -96 -21.5s-54.833 -34.833 -76.5 -61.5s-38.5 -59 -50.5 -97s-18 -80.333 -18 -127s6 -88.834 18 -126.501s28.833 -69.834 50.5 -96.501
s47.167 -47.167 76.5 -61.5s61.333 -21.5 96 -21.5s66.667 7.16699 96 21.5s54.666 34.833 75.999 61.5s38 58.834 50 96.501s18 79.834 18 126.501zM734 364c0 -28 -2.33301 -56.668 -7 -86.001s-12.334 -58.166 -23.001 -86.499s-24.667 -55.166 -42 -80.499
s-38.666 -47.5 -63.999 -66.5s-54.666 -34.167 -87.999 -45.5s-71.666 -17 -114.999 -17c-65.333 0 -119.666 12.167 -162.999 36.5s-78.166 55.166 -104.499 92.499s-45 78.5 -56 123.5s-16.5 88.167 -16.5 129.5c0 42 5.5 85.5 16.5 130.5s29.667 86.167 56 123.5
s61.166 68.166 104.499 92.499s97.666 36.5 162.999 36.5c43.333 0 81.666 -5.66699 114.999 -17s62.666 -26.5 87.999 -45.5s46.666 -41.167 63.999 -66.5s31.333 -52.166 42 -80.499s18.334 -57.333 23.001 -87s7 -58.5 7 -86.5zM404 786.999h-71l87 136h110z" />
    <glyph glyph-name="Ocircumflex" unicode="&#xd4;" horiz-adv-x="789" 
d="M635 364c0 46.667 -6 89 -18 127s-28.667 70.333 -50 97s-46.666 47.167 -75.999 61.5s-61.333 21.5 -96 21.5s-66.667 -7.16699 -96 -21.5s-54.833 -34.833 -76.5 -61.5s-38.5 -59 -50.5 -97s-18 -80.333 -18 -127s6 -88.834 18 -126.501s28.833 -69.834 50.5 -96.501
s47.167 -47.167 76.5 -61.5s61.333 -21.5 96 -21.5s66.667 7.16699 96 21.5s54.666 34.833 75.999 61.5s38 58.834 50 96.501s18 79.834 18 126.501zM734 364c0 -28 -2.33301 -56.668 -7 -86.001s-12.334 -58.166 -23.001 -86.499s-24.667 -55.166 -42 -80.499
s-38.666 -47.5 -63.999 -66.5s-54.666 -34.167 -87.999 -45.5s-71.666 -17 -114.999 -17c-65.333 0 -119.666 12.167 -162.999 36.5s-78.166 55.166 -104.499 92.499s-45 78.5 -56 123.5s-16.5 88.167 -16.5 129.5c0 42 5.5 85.5 16.5 130.5s29.667 86.167 56 123.5
s61.166 68.166 104.499 92.499s97.666 36.5 162.999 36.5c43.333 0 81.666 -5.66699 114.999 -17s62.666 -26.5 87.999 -45.5s46.666 -41.167 63.999 -66.5s31.333 -52.166 42 -80.499s18.334 -57.333 23.001 -87s7 -58.5 7 -86.5zM465 786.999l-64 90l-64 -90h-77l96 136
h90l96 -136h-77z" />
    <glyph glyph-name="Otilde" unicode="&#xd5;" horiz-adv-x="789" 
d="M635 364c0 46.667 -6 89 -18 127s-28.667 70.333 -50 97s-46.666 47.167 -75.999 61.5s-61.333 21.5 -96 21.5s-66.667 -7.16699 -96 -21.5s-54.833 -34.833 -76.5 -61.5s-38.5 -59 -50.5 -97s-18 -80.333 -18 -127s6 -88.834 18 -126.501s28.833 -69.834 50.5 -96.501
s47.167 -47.167 76.5 -61.5s61.333 -21.5 96 -21.5s66.667 7.16699 96 21.5s54.666 34.833 75.999 61.5s38 58.834 50 96.501s18 79.834 18 126.501zM734 364c0 -28 -2.33301 -56.668 -7 -86.001s-12.334 -58.166 -23.001 -86.499s-24.667 -55.166 -42 -80.499
s-38.666 -47.5 -63.999 -66.5s-54.666 -34.167 -87.999 -45.5s-71.666 -17 -114.999 -17c-65.333 0 -119.666 12.167 -162.999 36.5s-78.166 55.166 -104.499 92.499s-45 78.5 -56 123.5s-16.5 88.167 -16.5 129.5c0 42 5.5 85.5 16.5 130.5s29.667 86.167 56 123.5
s61.166 68.166 104.499 92.499s97.666 36.5 162.999 36.5c43.333 0 81.666 -5.66699 114.999 -17s62.666 -26.5 87.999 -45.5s46.666 -41.167 63.999 -66.5s31.333 -52.166 42 -80.499s18.334 -57.333 23.001 -87s7 -58.5 7 -86.5zM572 914.999
c-2 -14.667 -5.50195 -28.5 -10.502 -41.5s-11.5 -24.333 -19.5 -34s-18 -17.334 -30 -23.001s-26.333 -8.5 -43 -8.5c-13.333 0 -26.166 2.16699 -38.499 6.5s-27.166 9.83301 -44.499 16.5l-21 8c-5.33301 2 -10.166 3.5 -14.499 4.5s-8.33301 1.66699 -12 2
s-7.83398 0.5 -12.501 0.5c-7.33301 0 -13.333 -1.66699 -18 -5s-8.5 -7.33301 -11.5 -12s-5.5 -9.5 -7.5 -14.5s-3.33301 -9.16699 -4 -12.5h-55c2 14.667 5.5 28.5 10.5 41.5s11.5 24.333 19.5 34s18 17.334 30 23.001s26.333 8.5 43 8.5c20 0 36.167 -2.5 48.5 -7.5
l42.5 -16.5c15.333 -5.33301 26 -8.83301 32 -10.5s12.333 -2.5 19 -2.5c7.33301 0 13.5 1.5 18.5 4.5s9 6.83301 12 11.5s5.33301 9.5 7 14.5s3.16699 9.16699 4.5 12.5h55z" />
    <glyph glyph-name="Odieresis" unicode="&#xd6;" horiz-adv-x="789" 
d="M635 364c0 46.667 -6 89 -18 127s-28.667 70.333 -50 97s-46.666 47.167 -75.999 61.5s-61.333 21.5 -96 21.5s-66.667 -7.16699 -96 -21.5s-54.833 -34.833 -76.5 -61.5s-38.5 -59 -50.5 -97s-18 -80.333 -18 -127s6 -88.834 18 -126.501s28.833 -69.834 50.5 -96.501
s47.167 -47.167 76.5 -61.5s61.333 -21.5 96 -21.5s66.667 7.16699 96 21.5s54.666 34.833 75.999 61.5s38 58.834 50 96.501s18 79.834 18 126.501zM734 364c0 -28 -2.33301 -56.668 -7 -86.001s-12.334 -58.166 -23.001 -86.499s-24.667 -55.166 -42 -80.499
s-38.666 -47.5 -63.999 -66.5s-54.666 -34.167 -87.999 -45.5s-71.666 -17 -114.999 -17c-65.333 0 -119.666 12.167 -162.999 36.5s-78.166 55.166 -104.499 92.499s-45 78.5 -56 123.5s-16.5 88.167 -16.5 129.5c0 42 5.5 85.5 16.5 130.5s29.667 86.167 56 123.5
s61.166 68.166 104.499 92.499s97.666 36.5 162.999 36.5c43.333 0 81.666 -5.66699 114.999 -17s62.666 -26.5 87.999 -45.5s46.666 -41.167 63.999 -66.5s31.333 -52.166 42 -80.499s18.334 -57.333 23.001 -87s7 -58.5 7 -86.5zM360 849.999
c0 -15.333 -5 -28.333 -15 -39s-21.667 -16 -35 -16s-25.166 5.33301 -35.499 16s-15.5 23.667 -15.5 39s5.16699 28.333 15.5 39s22.166 16 35.499 16s25 -5.33301 35 -16s15 -23.667 15 -39zM537 849.999c0 -15.333 -5.16699 -28.333 -15.5 -39s-22.166 -16 -35.499 -16
s-25 5.33301 -35 16s-15 23.667 -15 39s5 28.333 15 39s21.667 16 35 16s25.166 -5.33301 35.499 -16s15.5 -23.667 15.5 -39z" />
    <glyph glyph-name="multiply" unicode="&#xd7;" 
d="M421 133l-153 153l-153 -153l-48 48l153 153l-153 153l50 51l154 -153l153 153l48 -48l-153 -153l153 -154z" />
    <glyph glyph-name="Oslash" unicode="&#xd8;" horiz-adv-x="789" 
d="M635 364c0 64 -11.667 120.331 -35 168.998l-369 -402c21.333 -23.333 45.833 -41.333 73.5 -54s57.834 -19 90.501 -19c34.667 0 66.667 7.16699 96 21.5s54.666 34.833 75.999 61.5s38 58.834 50 96.501s18 79.834 18 126.501zM560 595.998
c-20.667 24 -44.999 42.5 -72.999 55.5s-58.667 19.5 -92 19.5c-34.667 0 -66.667 -7.16699 -96 -21.5s-54.833 -34.833 -76.5 -61.5s-38.5 -59 -50.5 -97s-18 -80.333 -18 -127c0 -33.333 3.16699 -64.5 9.5 -93.5s15.166 -55.167 26.499 -78.5zM668.001 607.998
c24 -36.667 41 -76.501 51 -119.501s15 -84.5 15 -124.5c0 -28 -2.33301 -56.667 -7 -86s-12.334 -58.166 -23.001 -86.499s-24.667 -55.166 -42 -80.499s-38.666 -47.5 -63.999 -66.5s-54.666 -34.167 -87.999 -45.5s-71.666 -17 -114.999 -17
c-50 0 -93.5 7.33301 -130.5 22s-69.167 34.667 -96.5 60l-80 -88l-52 49l86 94c-24 36.667 -41.167 76.667 -51.5 120s-15.5 85 -15.5 125c0 42 5.5 85.5 16.5 130.5s29.667 86.167 56 123.5s61.166 68.166 104.499 92.499s97.666 36.5 162.999 36.5
c50.667 0 94.667 -7.5 132 -22.5s69 -35.167 95 -60.5l82 88l52 -49z" />
    <glyph glyph-name="Ugrave" unicode="&#xd9;" horiz-adv-x="758" 
d="M734 694c0 -11.333 -2.00293 -23 -6.00293 -35h-77v-415c0 -35.333 -5.33301 -68.833 -16 -100.5s-27 -59.5 -49 -83.5s-50.167 -43 -84.5 -57s-75.166 -21 -122.499 -21s-88.333 7 -123 21s-63.167 33 -85.5 57s-38.833 51.833 -49.5 83.5s-16 65.167 -16 100.5v415h-75
c-4 12 -6 23.667 -6 35s2 23 6 35h242c4 -12 6 -23.667 6 -35s-2 -23 -6 -35h-76v-403c0 -38 5.33301 -69.333 16 -94s24.834 -44.334 42.501 -59.001s37.334 -25 59.001 -31s43.5 -9 65.5 -9s44 3 66 9s41.833 16.333 59.5 31s32 34.334 43 59.001s16.5 56 16.5 94v403h-74
c-4 12 -6 23.667 -6 35s2 23 6 35h238c4 -12 6 -23.667 6 -35zM367.997 787l-126 136h110l87 -136h-71z" />
    <glyph glyph-name="Uacute" unicode="&#xda;" horiz-adv-x="758" 
d="M734 694c0 -11.333 -2.00293 -23 -6.00293 -35h-77v-415c0 -35.333 -5.33301 -68.833 -16 -100.5s-27 -59.5 -49 -83.5s-50.167 -43 -84.5 -57s-75.166 -21 -122.499 -21s-88.333 7 -123 21s-63.167 33 -85.5 57s-38.833 51.833 -49.5 83.5s-16 65.167 -16 100.5v415h-75
c-4 12 -6 23.667 -6 35s2 23 6 35h242c4 -12 6 -23.667 6 -35s-2 -23 -6 -35h-76v-403c0 -38 5.33301 -69.333 16 -94s24.834 -44.334 42.501 -59.001s37.334 -25 59.001 -31s43.5 -9 65.5 -9s44 3 66 9s41.833 16.333 59.5 31s32 34.334 43 59.001s16.5 56 16.5 94v403h-74
c-4 12 -6 23.667 -6 35s2 23 6 35h238c4 -12 6 -23.667 6 -35zM413.997 787h-71l87 136h110z" />
    <glyph glyph-name="Ucircumflex" unicode="&#xdb;" horiz-adv-x="758" 
d="M734 694c0 -11.333 -2.00293 -23 -6.00293 -35h-77v-415c0 -35.333 -5.33301 -68.833 -16 -100.5s-27 -59.5 -49 -83.5s-50.167 -43 -84.5 -57s-75.166 -21 -122.499 -21s-88.333 7 -123 21s-63.167 33 -85.5 57s-38.833 51.833 -49.5 83.5s-16 65.167 -16 100.5v415h-75
c-4 12 -6 23.667 -6 35s2 23 6 35h242c4 -12 6 -23.667 6 -35s-2 -23 -6 -35h-76v-403c0 -38 5.33301 -69.333 16 -94s24.834 -44.334 42.501 -59.001s37.334 -25 59.001 -31s43.5 -9 65.5 -9s44 3 66 9s41.833 16.333 59.5 31s32 34.334 43 59.001s16.5 56 16.5 94v403h-74
c-4 12 -6 23.667 -6 35s2 23 6 35h238c4 -12 6 -23.667 6 -35zM444.997 787l-64 90l-64 -90h-77l96 136h90l96 -136h-77z" />
    <glyph glyph-name="Udieresis" unicode="&#xdc;" horiz-adv-x="758" 
d="M734 694c0 -11.333 -2.00293 -23 -6.00293 -35h-77v-415c0 -35.333 -5.33301 -68.833 -16 -100.5s-27 -59.5 -49 -83.5s-50.167 -43 -84.5 -57s-75.166 -21 -122.499 -21s-88.333 7 -123 21s-63.167 33 -85.5 57s-38.833 51.833 -49.5 83.5s-16 65.167 -16 100.5v415h-75
c-4 12 -6 23.667 -6 35s2 23 6 35h242c4 -12 6 -23.667 6 -35s-2 -23 -6 -35h-76v-403c0 -38 5.33301 -69.333 16 -94s24.834 -44.334 42.501 -59.001s37.334 -25 59.001 -31s43.5 -9 65.5 -9s44 3 66 9s41.833 16.333 59.5 31s32 34.334 43 59.001s16.5 56 16.5 94v403h-74
c-4 12 -6 23.667 -6 35s2 23 6 35h238c4 -12 6 -23.667 6 -35zM334.997 850c0 -15.333 -5 -28.333 -15 -39s-21.667 -16 -35 -16s-25.166 5.33301 -35.499 16s-15.5 23.667 -15.5 39s5.16699 28.333 15.5 39s22.166 16 35.499 16s25 -5.33301 35 -16s15 -23.667 15 -39z
M511.997 850c0 -15.333 -5.16699 -28.333 -15.5 -39s-22.166 -16 -35.499 -16s-25 5.33301 -35 16s-15 23.667 -15 39s5 28.333 15 39s21.667 16 35 16s25.166 -5.33301 35.499 -16s15.5 -23.667 15.5 -39z" />
    <glyph glyph-name="Yacute" unicode="&#xdd;" horiz-adv-x="720" 
d="M712 694c0 -11.333 -2 -23 -6 -35h-58l-247 -367v-222h80c4 -12 6 -23.667 6 -35s-2 -23 -6 -35h-250c-4 12 -6 23.667 -6 35s2 23 6 35h79v223l-238 366h-58c-4 12 -6 23.667 -6 35s2 23 6 35h248c4 -12 6 -23.667 6 -35s-2 -23 -6 -35h-91l191 -293l197 293h-92
c-4 12 -6 23.667 -6 35s2 23 6 35h239c4 -12 6 -23.667 6 -35zM378 787h-71l87 136h110z" />
    <glyph glyph-name="Thorn" unicode="&#xde;" horiz-adv-x="637" 
d="M510 370c0 44.667 -12.5 77.5 -37.5 98.5s-58.833 31.5 -101.5 31.5h-171v-264h167c44 0 78.833 10.5 104.5 31.5s38.5 55.167 38.5 102.5zM606 371c0 -24 -3.66992 -48.499 -11.0029 -73.499s-19.166 -47.667 -35.499 -68s-37.666 -37 -63.999 -50
s-58.5 -19.5 -96.5 -19.5h-199v-90h86c4 -12 6 -23.667 6 -35s-2 -23 -6 -35h-250c-4 12 -6 23.667 -6 35s2 23 6 35h75v589h-75c-4 12 -6 23.667 -6 35s2 23 6 35h250c4 -12 6 -23.667 6 -35s-2 -23 -6 -35h-86v-83h199c33.333 0 62.833 -5.33301 88.5 -16
s47.334 -25.334 65.001 -44.001s31 -40.5 40 -65.5s13.5 -51.5 13.5 -79.5z" />
    <glyph glyph-name="germandbls" unicode="&#xdf;" horiz-adv-x="615" 
d="M576 208c0 -36.667 -5.66602 -69.0039 -16.999 -97.0039s-26.5 -51.333 -45.5 -70s-40.833 -32.667 -65.5 -42s-50.334 -14 -77.001 -14c-24.667 0 -46.667 2.16699 -66 6.5s-38.333 9.5 -57 15.5v82c18.667 -9.33301 37.834 -16.166 57.501 -20.499
s38.834 -6.5 57.501 -6.5c36 0 65.667 12.667 89 38s35 63.333 35 114c0 54 -15.167 94.667 -45.5 122s-70.166 41 -119.499 41h-41c-4 12 -6 23 -6 33s2 21 6 33h27c28 0 51.167 3.5 69.5 10.5s33 16.5 44 28.5s18.833 26.333 23.5 43s7 35 7 55
c0 16 -2.33301 31.167 -7 45.5s-12.334 27 -23.001 38s-24.167 19.667 -40.5 26s-35.833 9.5 -58.5 9.5c-28.667 0 -51.834 -5.33301 -69.501 -16s-31.5 -25.167 -41.5 -43.5s-16.833 -39.666 -20.5 -63.999s-5.5 -49.833 -5.5 -76.5v-499h-161c-4 10 -6 20.333 -6 31
s2 21 6 31h73v470c0 32.667 4.66699 63.5 14 92.5s23.5 54 42.5 75s42.833 37.667 71.5 50s62.667 18.5 102 18.5c34 0 64 -5 90 -15s48 -23.5 66 -40.5s31.5 -36.833 40.5 -59.5s13.5 -47 13.5 -73c0 -24 -3 -45.167 -9 -63.5s-13.667 -34.166 -23 -47.499
s-19.5 -24.166 -30.5 -32.499s-21.167 -14.833 -30.5 -19.5c18.667 -6.66699 36.167 -15.667 52.5 -27s30.166 -25.5 41.499 -42.5s20.333 -37 27 -60s10 -49.5 10 -79.5z" />
    <glyph glyph-name="agrave" unicode="&#xe0;" horiz-adv-x="533" 
d="M359 256l-125.998 -12.999c-36.667 -4 -64.834 -14 -84.501 -30s-29.5 -41.667 -29.5 -77c0 -24.667 8.66699 -44.334 26 -59.001s41 -22 71 -22c16.667 0 33.667 2.66699 51 8s32.666 13 45.999 23s24.333 22.5 33 37.5s13 32.167 13 51.5v81zM514.002 31.001
c0 -10.667 -2.00098 -21 -6.00098 -31h-145v68c-5.33301 -9.33301 -12 -18.833 -20 -28.5s-18.5 -18.5 -31.5 -26.5s-28.667 -14.5 -47 -19.5s-39.833 -7.5 -64.5 -7.5c-48.667 0 -88.5 13.167 -119.5 39.5s-46.5 63.5 -46.5 111.5c0 22 3.16699 42.667 9.5 62
s16.5 36.5 30.5 51.5s32.333 27.167 55 36.5s50.334 15.666 83.001 18.999l147 14v17c0 18 -1.83301 34 -5.5 48s-10 25.833 -19 35.5s-21.167 17 -36.5 22s-35 7.5 -59 7.5c-18 0 -35 -2.33301 -51 -7s-30.833 -10.167 -44.5 -16.5s-26 -13.166 -37 -20.499
s-19.833 -13.666 -26.5 -18.999v79c6.66699 4.66699 15.334 10.167 26.001 16.5s23.5 12.333 38.5 18s32.167 10.5 51.5 14.5s41 6 65 6c14.667 0 32.5 -1.5 53.5 -4.5s41.167 -10.333 60.5 -22s35.666 -28.834 48.999 -51.501s20 -53.667 20 -93v-288h64
c4 -10 6 -20.333 6 -31zM263.001 575.001l-126 136h110l87 -136h-71z" />
    <glyph glyph-name="aacute" unicode="&#xe1;" horiz-adv-x="533" 
d="M359 256l-125.998 -12.999c-36.667 -4 -64.834 -14 -84.501 -30s-29.5 -41.667 -29.5 -77c0 -24.667 8.66699 -44.334 26 -59.001s41 -22 71 -22c16.667 0 33.667 2.66699 51 8s32.666 13 45.999 23s24.333 22.5 33 37.5s13 32.167 13 51.5v81zM514.002 31.001
c0 -10.667 -2.00098 -21 -6.00098 -31h-145v68c-5.33301 -9.33301 -12 -18.833 -20 -28.5s-18.5 -18.5 -31.5 -26.5s-28.667 -14.5 -47 -19.5s-39.833 -7.5 -64.5 -7.5c-48.667 0 -88.5 13.167 -119.5 39.5s-46.5 63.5 -46.5 111.5c0 22 3.16699 42.667 9.5 62
s16.5 36.5 30.5 51.5s32.333 27.167 55 36.5s50.334 15.666 83.001 18.999l147 14v17c0 18 -1.83301 34 -5.5 48s-10 25.833 -19 35.5s-21.167 17 -36.5 22s-35 7.5 -59 7.5c-18 0 -35 -2.33301 -51 -7s-30.833 -10.167 -44.5 -16.5s-26 -13.166 -37 -20.499
s-19.833 -13.666 -26.5 -18.999v79c6.66699 4.66699 15.334 10.167 26.001 16.5s23.5 12.333 38.5 18s32.167 10.5 51.5 14.5s41 6 65 6c14.667 0 32.5 -1.5 53.5 -4.5s41.167 -10.333 60.5 -22s35.666 -28.834 48.999 -51.501s20 -53.667 20 -93v-288h64
c4 -10 6 -20.333 6 -31zM279.001 575.001h-71l87 136h110z" />
    <glyph glyph-name="acircumflex" unicode="&#xe2;" horiz-adv-x="533" 
d="M359 256l-125.998 -12.999c-36.667 -4 -64.834 -14 -84.501 -30s-29.5 -41.667 -29.5 -77c0 -24.667 8.66699 -44.334 26 -59.001s41 -22 71 -22c16.667 0 33.667 2.66699 51 8s32.666 13 45.999 23s24.333 22.5 33 37.5s13 32.167 13 51.5v81zM514.002 31.001
c0 -10.667 -2.00098 -21 -6.00098 -31h-145v68c-5.33301 -9.33301 -12 -18.833 -20 -28.5s-18.5 -18.5 -31.5 -26.5s-28.667 -14.5 -47 -19.5s-39.833 -7.5 -64.5 -7.5c-48.667 0 -88.5 13.167 -119.5 39.5s-46.5 63.5 -46.5 111.5c0 22 3.16699 42.667 9.5 62
s16.5 36.5 30.5 51.5s32.333 27.167 55 36.5s50.334 15.666 83.001 18.999l147 14v17c0 18 -1.83301 34 -5.5 48s-10 25.833 -19 35.5s-21.167 17 -36.5 22s-35 7.5 -59 7.5c-18 0 -35 -2.33301 -51 -7s-30.833 -10.167 -44.5 -16.5s-26 -13.166 -37 -20.499
s-19.833 -13.666 -26.5 -18.999v79c6.66699 4.66699 15.334 10.167 26.001 16.5s23.5 12.333 38.5 18s32.167 10.5 51.5 14.5s41 6 65 6c14.667 0 32.5 -1.5 53.5 -4.5s41.167 -10.333 60.5 -22s35.666 -28.834 48.999 -51.501s20 -53.667 20 -93v-288h64
c4 -10 6 -20.333 6 -31zM320.001 575.001l-64 90l-64 -90h-77l96 136h90l96 -136h-77z" />
    <glyph glyph-name="atilde" unicode="&#xe3;" horiz-adv-x="533" 
d="M359 256l-125.998 -12.999c-36.667 -4 -64.834 -14 -84.501 -30s-29.5 -41.667 -29.5 -77c0 -24.667 8.66699 -44.334 26 -59.001s41 -22 71 -22c16.667 0 33.667 2.66699 51 8s32.666 13 45.999 23s24.333 22.5 33 37.5s13 32.167 13 51.5v81zM514.002 31.001
c0 -10.667 -2.00098 -21 -6.00098 -31h-145v68c-5.33301 -9.33301 -12 -18.833 -20 -28.5s-18.5 -18.5 -31.5 -26.5s-28.667 -14.5 -47 -19.5s-39.833 -7.5 -64.5 -7.5c-48.667 0 -88.5 13.167 -119.5 39.5s-46.5 63.5 -46.5 111.5c0 22 3.16699 42.667 9.5 62
s16.5 36.5 30.5 51.5s32.333 27.167 55 36.5s50.334 15.666 83.001 18.999l147 14v17c0 18 -1.83301 34 -5.5 48s-10 25.833 -19 35.5s-21.167 17 -36.5 22s-35 7.5 -59 7.5c-18 0 -35 -2.33301 -51 -7s-30.833 -10.167 -44.5 -16.5s-26 -13.166 -37 -20.499
s-19.833 -13.666 -26.5 -18.999v79c6.66699 4.66699 15.334 10.167 26.001 16.5s23.5 12.333 38.5 18s32.167 10.5 51.5 14.5s41 6 65 6c14.667 0 32.5 -1.5 53.5 -4.5s41.167 -10.333 60.5 -22s35.666 -28.834 48.999 -51.501s20 -53.667 20 -93v-288h64
c4 -10 6 -20.333 6 -31zM432.001 703.001c-2 -14.667 -5.50195 -28.5 -10.502 -41.5s-11.5 -24.333 -19.5 -34s-18 -17.334 -30 -23.001s-26.333 -8.5 -43 -8.5c-13.333 0 -26.166 2.16699 -38.499 6.5s-27.166 9.83301 -44.499 16.5l-21 8
c-5.33301 2 -10.166 3.5 -14.499 4.5s-8.33301 1.66699 -12 2s-7.83398 0.5 -12.501 0.5c-7.33301 0 -13.333 -1.66699 -18 -5s-8.5 -7.33301 -11.5 -12s-5.5 -9.5 -7.5 -14.5s-3.33301 -9.16699 -4 -12.5h-55c2 14.667 5.5 28.5 10.5 41.5s11.5 24.333 19.5 34
s18 17.334 30 23.001s26.333 8.5 43 8.5c20 0 36.167 -2.5 48.5 -7.5l42.5 -16.5c15.333 -5.33301 26 -8.83301 32 -10.5s12.333 -2.5 19 -2.5c7.33301 0 13.5 1.5 18.5 4.5s9 6.83301 12 11.5s5.33301 9.5 7 14.5s3.16699 9.16699 4.5 12.5h55z" />
    <glyph glyph-name="adieresis" unicode="&#xe4;" horiz-adv-x="533" 
d="M359 256l-125.998 -12.999c-36.667 -4 -64.834 -14 -84.501 -30s-29.5 -41.667 -29.5 -77c0 -24.667 8.66699 -44.334 26 -59.001s41 -22 71 -22c16.667 0 33.667 2.66699 51 8s32.666 13 45.999 23s24.333 22.5 33 37.5s13 32.167 13 51.5v81zM514.002 31.001
c0 -10.667 -2.00098 -21 -6.00098 -31h-145v68c-5.33301 -9.33301 -12 -18.833 -20 -28.5s-18.5 -18.5 -31.5 -26.5s-28.667 -14.5 -47 -19.5s-39.833 -7.5 -64.5 -7.5c-48.667 0 -88.5 13.167 -119.5 39.5s-46.5 63.5 -46.5 111.5c0 22 3.16699 42.667 9.5 62
s16.5 36.5 30.5 51.5s32.333 27.167 55 36.5s50.334 15.666 83.001 18.999l147 14v17c0 18 -1.83301 34 -5.5 48s-10 25.833 -19 35.5s-21.167 17 -36.5 22s-35 7.5 -59 7.5c-18 0 -35 -2.33301 -51 -7s-30.833 -10.167 -44.5 -16.5s-26 -13.166 -37 -20.499
s-19.833 -13.666 -26.5 -18.999v79c6.66699 4.66699 15.334 10.167 26.001 16.5s23.5 12.333 38.5 18s32.167 10.5 51.5 14.5s41 6 65 6c14.667 0 32.5 -1.5 53.5 -4.5s41.167 -10.333 60.5 -22s35.666 -28.834 48.999 -51.501s20 -53.667 20 -93v-288h64
c4 -10 6 -20.333 6 -31zM224.001 638.001c0 -15.333 -5 -28.333 -15 -39s-21.667 -16 -35 -16s-25.166 5.33301 -35.499 16s-15.5 23.667 -15.5 39s5.16699 28.333 15.5 39s22.166 16 35.499 16s25 -5.33301 35 -16s15 -23.667 15 -39zM401.001 638.001
c0 -15.333 -5.16699 -28.333 -15.5 -39s-22.166 -16 -35.499 -16s-25 5.33301 -35 16s-15 23.667 -15 39s5 28.333 15 39s21.667 16 35 16s25.166 -5.33301 35.499 -16s15.5 -23.667 15.5 -39z" />
    <glyph glyph-name="aring" unicode="&#xe5;" horiz-adv-x="533" 
d="M359 256l-125.998 -12.999c-36.667 -4 -64.834 -14 -84.501 -30s-29.5 -41.667 -29.5 -77c0 -24.667 8.66699 -44.334 26 -59.001s41 -22 71 -22c16.667 0 33.667 2.66699 51 8s32.666 13 45.999 23s24.333 22.5 33 37.5s13 32.167 13 51.5v81zM328.002 677.001
c0 16 -6 30 -18 42s-26 18 -42 18s-30 -6 -42 -18s-18 -26 -18 -42s6 -30 18 -42s26 -18 42 -18s30 6 42 18s18 26 18 42zM514.002 31.001c0 -10.667 -2.00098 -21 -6.00098 -31h-145v68c-5.33301 -9.33301 -12 -18.833 -20 -28.5s-18.5 -18.5 -31.5 -26.5
s-28.667 -14.5 -47 -19.5s-39.833 -7.5 -64.5 -7.5c-48.667 0 -88.5 13.167 -119.5 39.5s-46.5 63.5 -46.5 111.5c0 22 3.16699 42.667 9.5 62s16.5 36.5 30.5 51.5s32.333 27.167 55 36.5s50.334 15.666 83.001 18.999l147 14v17c0 18 -1.83301 34 -5.5 48
s-10 25.833 -19 35.5s-21.167 17 -36.5 22s-35 7.5 -59 7.5c-18 0 -35 -2.33301 -51 -7s-30.833 -10.167 -44.5 -16.5s-26 -13.166 -37 -20.499s-19.833 -13.666 -26.5 -18.999v79c6.66699 4.66699 15.334 10.167 26.001 16.5s23.5 12.333 38.5 18s32.167 10.5 51.5 14.5
s41 6 65 6c14.667 0 32.5 -1.5 53.5 -4.5s41.167 -10.333 60.5 -22s35.666 -28.834 48.999 -51.501s20 -53.667 20 -93v-288h64c4 -10 6 -20.333 6 -31zM372.001 677.001c0 -14 -2.66699 -27.333 -8 -40s-12.833 -23.834 -22.5 -33.501s-20.834 -17.167 -33.501 -22.5
s-26 -8 -40 -8s-27.333 2.66699 -40 8s-23.834 12.833 -33.501 22.5s-17.167 20.834 -22.5 33.501s-8 26 -8 40s2.66699 27.333 8 40s12.833 23.834 22.5 33.501s20.834 17.167 33.501 22.5s26 8 40 8s27.333 -2.66699 40 -8s23.834 -12.833 33.501 -22.5
s17.167 -20.834 22.5 -33.501s8 -26 8 -40z" />
    <glyph glyph-name="ae" unicode="&#xe6;" horiz-adv-x="821" 
d="M359 243l-109 -4c-49.333 -2 -83.5 -11.5 -102.5 -28.5s-28.5 -40.5 -28.5 -70.5c0 -29.333 9.83301 -50.833 29.5 -64.5s44.5 -20.5 74.5 -20.5c18 0 35.167 2.66699 51.5 8s30.833 13 43.5 23s22.667 22.5 30 37.5s11 32.167 11 51.5v68zM697 305
c0 13.333 -1.83594 28.335 -5.50293 45.002s-10.167 32.5 -19.5 47.5s-22.166 27.667 -38.499 38s-37.166 15.5 -62.499 15.5c-23.333 0 -43.166 -5.5 -59.499 -16.5s-29.5 -24.333 -39.5 -40s-17.167 -31.834 -21.5 -48.501s-6.5 -30.334 -6.5 -41.001h253z
M443.997 243.002c0.666992 -24.667 4.66504 -47.999 11.998 -69.999s17.666 -41.333 30.999 -58s29.833 -29.834 49.5 -39.501s42.5 -14.5 68.5 -14.5c36.667 0 67.167 5.66699 91.5 17s46.166 23.333 65.499 36v-84c-17.333 -10 -40.166 -19.833 -68.499 -29.5
s-57.5 -14.5 -87.5 -14.5c-51.333 0 -92.5 9.66699 -123.5 29s-56.833 43.666 -77.5 72.999c-6 -10.667 -14.333 -22 -25 -34s-24 -23 -40 -33s-34.833 -18.333 -56.5 -25s-46.834 -10 -75.501 -10c-53.333 0 -95.666 12.333 -126.999 37s-47 61 -47 109
c0 22 3.66699 43 11 63s18.5 37.5 33.5 52.5s34.333 27.167 58 36.5s52.167 14.666 85.5 15.999l137 5v32c0 18 -1.83301 34 -5.5 48s-10 25.833 -19 35.5s-21.167 17 -36.5 22s-35 7.5 -59 7.5c-18 0 -35 -2.33301 -51 -7s-30.833 -10.167 -44.5 -16.5
s-26 -13.166 -37 -20.499s-19.833 -13.666 -26.5 -18.999v79c6.66699 4.66699 15.334 10.167 26.001 16.5s23.5 12.333 38.5 18s32.167 10.5 51.5 14.5s41 6 65 6c10.667 0 22.834 -0.833008 36.501 -2.5s27.834 -5.33398 42.501 -11.001s28.667 -13.5 42 -23.5
s25 -23 35 -39c17.333 22.667 39 41 65 55s56.333 21 91 21c40.667 0 74.5 -7.66699 101.5 -23s48.833 -35.666 65.5 -60.999s28.5 -54.333 35.5 -87s10.5 -66 10.5 -100v-7h-342z" />
    <glyph glyph-name="ccedilla" unicode="&#xe7;" horiz-adv-x="497" 
d="M452 298c-12 -4 -23.6641 -6.00488 -34.9971 -6.00488s-23 2 -35 6v27c0 38 -10 67.833 -30 89.5s-47.667 32.5 -83 32.5c-28.667 0 -52.167 -6.16699 -70.5 -18.5s-32.833 -28.166 -43.5 -47.499s-18 -40.833 -22 -64.5s-6 -47.167 -6 -70.5c0 -30.667 4 -57.5 12 -80.5
s19 -42.167 33 -57.5s30.667 -26.833 50 -34.5s40 -11.5 62 -11.5c20.667 0 40 2.83301 58 8.5s34 12.334 48 20.001s26 15.334 36 23.001s17.667 13.834 23 18.501v-88c-7.33301 -5.33301 -16 -11.166 -26 -17.499s-21.833 -12.333 -35.5 -18s-28.834 -10.667 -45.501 -15
s-35.334 -6.83301 -56.001 -7.5l-33 -45c6.66699 2 14.334 3 23.001 3c16 0 29.167 -2.33301 39.5 -7s18.5 -10.667 24.5 -18s10.333 -15.166 13 -23.499s4 -16.5 4 -24.5c0 -25.333 -10 -46.5 -30 -63.5s-48 -25.5 -84 -25.5c-18 0 -34.667 2.16699 -50 6.5
s-29.333 9.16602 -42 14.499l14 39c12 -5.33301 22.667 -9.16602 32 -11.499s20 -3.5 32 -3.5c4.66699 0 10.167 0.5 16.5 1.5s12.166 2.83301 17.499 5.5s10 6.66699 14 12s6 12.666 6 21.999c0 15.333 -5.16699 25.5 -15.5 30.5s-20.5 7.5 -30.5 7.5
c-4.66699 0 -10.334 -0.5 -17.001 -1.5s-13.667 -3.16699 -21 -6.5l-16 19l53 72c-32 4 -60.333 13.5 -85 28.5s-45.167 33.667 -61.5 56s-28.833 47.833 -37.5 76.5s-13 59 -13 91c0 38 4.5 73.667 13.5 107s22.833 62.5 41.5 87.5s42.167 44.833 70.5 59.5
s61.5 22 99.5 22c30 0 56 -6 78 -18s37.667 -26.333 47 -43v48c10.667 4 21 6 31 6c11.333 0 22 -2 32 -6v-206z" />
    <glyph glyph-name="egrave" unicode="&#xe8;" horiz-adv-x="506" 
d="M382 291c0 16.667 -1.83594 34.3311 -5.50293 52.998s-10.167 36 -19.5 52s-22.166 29.167 -38.499 39.5s-37.166 15.5 -62.499 15.5c-23.333 0 -43.166 -5.66699 -59.499 -17s-29.5 -25.166 -39.5 -41.499s-17.167 -33.666 -21.5 -51.999s-6.5 -34.833 -6.5 -49.5h253z
M128.997 228.997c0.666992 -21.333 4.66504 -42.001 11.998 -62.001s17.666 -37.833 30.999 -53.5s29.833 -28.334 49.5 -38.001s42.5 -14.5 68.5 -14.5c36.667 0 67.167 5.66699 91.5 17s46.166 23.333 65.499 36v-84c-17.333 -10 -40.166 -19.833 -68.499 -29.5
s-57.5 -14.5 -87.5 -14.5c-44.667 0 -83 7.5 -115 22.5s-58.167 35 -78.5 60s-35.166 53.5 -44.499 85.5s-14 65.333 -14 100s4.33301 68.167 13 100.5s21.834 60.833 39.501 85.5s40.334 44.334 68.001 59.001s60.5 22 98.5 22c40.667 0 74.5 -7.66699 101.5 -23
s48.833 -35.666 65.5 -60.999s28.5 -54.333 35.5 -87s10.5 -66 10.5 -100v-21h-342zM267.995 574.996l-126 136h110l87 -136h-71z" />
    <glyph glyph-name="eacute" unicode="&#xe9;" horiz-adv-x="506" 
d="M382 291c0 16.667 -1.83594 34.3311 -5.50293 52.998s-10.167 36 -19.5 52s-22.166 29.167 -38.499 39.5s-37.166 15.5 -62.499 15.5c-23.333 0 -43.166 -5.66699 -59.499 -17s-29.5 -25.166 -39.5 -41.499s-17.167 -33.666 -21.5 -51.999s-6.5 -34.833 -6.5 -49.5h253z
M128.997 228.997c0.666992 -21.333 4.66504 -42.001 11.998 -62.001s17.666 -37.833 30.999 -53.5s29.833 -28.334 49.5 -38.001s42.5 -14.5 68.5 -14.5c36.667 0 67.167 5.66699 91.5 17s46.166 23.333 65.499 36v-84c-17.333 -10 -40.166 -19.833 -68.499 -29.5
s-57.5 -14.5 -87.5 -14.5c-44.667 0 -83 7.5 -115 22.5s-58.167 35 -78.5 60s-35.166 53.5 -44.499 85.5s-14 65.333 -14 100s4.33301 68.167 13 100.5s21.834 60.833 39.501 85.5s40.334 44.334 68.001 59.001s60.5 22 98.5 22c40.667 0 74.5 -7.66699 101.5 -23
s48.833 -35.666 65.5 -60.999s28.5 -54.333 35.5 -87s10.5 -66 10.5 -100v-21h-342zM283.995 574.996h-71l87 136h110z" />
    <glyph glyph-name="ecircumflex" unicode="&#xea;" horiz-adv-x="506" 
d="M382 291c0 16.667 -1.83594 34.3311 -5.50293 52.998s-10.167 36 -19.5 52s-22.166 29.167 -38.499 39.5s-37.166 15.5 -62.499 15.5c-23.333 0 -43.166 -5.66699 -59.499 -17s-29.5 -25.166 -39.5 -41.499s-17.167 -33.666 -21.5 -51.999s-6.5 -34.833 -6.5 -49.5h253z
M128.997 228.997c0.666992 -21.333 4.66504 -42.001 11.998 -62.001s17.666 -37.833 30.999 -53.5s29.833 -28.334 49.5 -38.001s42.5 -14.5 68.5 -14.5c36.667 0 67.167 5.66699 91.5 17s46.166 23.333 65.499 36v-84c-17.333 -10 -40.166 -19.833 -68.499 -29.5
s-57.5 -14.5 -87.5 -14.5c-44.667 0 -83 7.5 -115 22.5s-58.167 35 -78.5 60s-35.166 53.5 -44.499 85.5s-14 65.333 -14 100s4.33301 68.167 13 100.5s21.834 60.833 39.501 85.5s40.334 44.334 68.001 59.001s60.5 22 98.5 22c40.667 0 74.5 -7.66699 101.5 -23
s48.833 -35.666 65.5 -60.999s28.5 -54.333 35.5 -87s10.5 -66 10.5 -100v-21h-342zM339.995 574.996l-64 90l-64 -90h-77l96 136h90l96 -136h-77z" />
    <glyph glyph-name="edieresis" unicode="&#xeb;" horiz-adv-x="506" 
d="M382 291c0 16.667 -1.83594 34.3311 -5.50293 52.998s-10.167 36 -19.5 52s-22.166 29.167 -38.499 39.5s-37.166 15.5 -62.499 15.5c-23.333 0 -43.166 -5.66699 -59.499 -17s-29.5 -25.166 -39.5 -41.499s-17.167 -33.666 -21.5 -51.999s-6.5 -34.833 -6.5 -49.5h253z
M128.997 228.997c0.666992 -21.333 4.66504 -42.001 11.998 -62.001s17.666 -37.833 30.999 -53.5s29.833 -28.334 49.5 -38.001s42.5 -14.5 68.5 -14.5c36.667 0 67.167 5.66699 91.5 17s46.166 23.333 65.499 36v-84c-17.333 -10 -40.166 -19.833 -68.499 -29.5
s-57.5 -14.5 -87.5 -14.5c-44.667 0 -83 7.5 -115 22.5s-58.167 35 -78.5 60s-35.166 53.5 -44.499 85.5s-14 65.333 -14 100s4.33301 68.167 13 100.5s21.834 60.833 39.501 85.5s40.334 44.334 68.001 59.001s60.5 22 98.5 22c40.667 0 74.5 -7.66699 101.5 -23
s48.833 -35.666 65.5 -60.999s28.5 -54.333 35.5 -87s10.5 -66 10.5 -100v-21h-342zM222.995 637.996c0 -15.333 -5 -28.333 -15 -39s-21.667 -16 -35 -16s-25.166 5.33301 -35.499 16s-15.5 23.667 -15.5 39s5.16699 28.333 15.5 39s22.166 16 35.499 16
s25 -5.33301 35 -16s15 -23.667 15 -39zM399.995 637.996c0 -15.333 -5.16699 -28.333 -15.5 -39s-22.166 -16 -35.499 -16s-25 5.33301 -35 16s-15 23.667 -15 39s5 28.333 15 39s21.667 16 35 16s25.166 -5.33301 35.499 -16s15.5 -23.667 15.5 -39z" />
    <glyph glyph-name="igrave" unicode="&#xec;" horiz-adv-x="292" 
d="M265 31c0 -10.667 -2 -21 -6 -31h-221c-4 10 -6 20.333 -6 31s2 21 6 31h68v383h-68c-4 10 -6 20.333 -6 31s2 21 6 31h153v-445h68c4 -10 6 -20.333 6 -31zM119 575l-126 136h110l87 -136h-71z" />
    <glyph glyph-name="iacute" unicode="&#xed;" horiz-adv-x="292" 
d="M265 31c0 -10.667 -2 -21 -6 -31h-221c-4 10 -6 20.333 -6 31s2 21 6 31h68v383h-68c-4 10 -6 20.333 -6 31s2 21 6 31h153v-445h68c4 -10 6 -20.333 6 -31zM157 575h-71l87 136h110z" />
    <glyph glyph-name="icircumflex" unicode="&#xee;" horiz-adv-x="292" 
d="M265 31c0 -10.667 -2 -21 -6 -31h-221c-4 10 -6 20.333 -6 31s2 21 6 31h68v383h-68c-4 10 -6 20.333 -6 31s2 21 6 31h153v-445h68c4 -10 6 -20.333 6 -31zM197 575l-64 90l-64 -90h-77l96 136h90l96 -136h-77z" />
    <glyph glyph-name="idieresis" unicode="&#xef;" horiz-adv-x="292" 
d="M265 31c0 -10.667 -2 -21 -6 -31h-221c-4 10 -6 20.333 -6 31s2 21 6 31h68v383h-68c-4 10 -6 20.333 -6 31s2 21 6 31h153v-445h68c4 -10 6 -20.333 6 -31zM92 638c0 -15.333 -5 -28.333 -15 -39s-21.667 -16 -35 -16s-25.166 5.33301 -35.499 16s-15.5 23.667 -15.5 39
s5.16699 28.333 15.5 39s22.166 16 35.499 16s25 -5.33301 35 -16s15 -23.667 15 -39zM269 638c0 -15.333 -5.16699 -28.333 -15.5 -39s-22.166 -16 -35.499 -16s-25 5.33301 -35 16s-15 23.667 -15 39s5 28.333 15 39s21.667 16 35 16s25.166 -5.33301 35.499 -16
s15.5 -23.667 15.5 -39z" />
    <glyph glyph-name="eth" unicode="&#xf0;" horiz-adv-x="549" 
d="M422 247c0 16.667 -2 36 -6 58s-11.5 42.5 -22.5 61.5s-26 35.167 -45 48.5s-43.833 20 -74.5 20s-55.5 -6.66699 -74.5 -20s-33.833 -29.5 -44.5 -48.5s-18 -39.5 -22 -61.5s-6 -41.333 -6 -58c0 -13.333 2 -30.666 6 -51.999s11.333 -42.166 22 -62.499
s25.5 -37.833 44.5 -52.5s43.833 -22 74.5 -22s55.5 7.33301 74.5 22s34 32.167 45 52.5s18.5 41.166 22.5 62.499s6 38.666 6 51.999zM510 291c0 -42 -4.66602 -81.5 -13.999 -118.5s-23.666 -69.333 -42.999 -97s-43.833 -49.5 -73.5 -65.5s-64.834 -24 -105.501 -24
s-75.667 8.16699 -105 24.5s-53.666 37.166 -72.999 62.499s-33.666 53.333 -42.999 84s-14 60.667 -14 90c0 32.667 4.66699 64.667 14 96s23.166 59.166 41.499 83.499s41.5 43.833 69.5 58.5s61 22 99 22c13.333 0 26.666 -1.66699 39.999 -5s26 -7.83301 38 -13.5
s22.833 -12.167 32.5 -19.5s17.167 -15.333 22.5 -24c-11.333 34.667 -27.666 67.334 -48.999 98.001s-46 58.334 -74 83.001l-97 -80l-33 38l89 74c-16 11.333 -32.667 21.5 -50 30.5s-35 17.167 -53 24.5l27 55c49.333 -19.333 92.666 -41 129.999 -65l78 65l33 -38
l-69 -57c34 -27.333 62.667 -56.5 86 -87.5s42.166 -63 56.499 -96s24.5 -66.333 30.5 -100s9 -66.5 9 -98.5z" />
    <glyph glyph-name="ntilde" unicode="&#xf1;" horiz-adv-x="590" 
d="M571 31c0 -10.667 -2 -21.002 -6 -31.002h-212c-4 10 -6 20.333 -6 31s2 21 6 31h59v250c0 20.667 -1.33301 39.5 -4 56.5s-7.83398 31.167 -15.501 42.5s-18.167 20.166 -31.5 26.499s-30.333 9.5 -51 9.5c-15.333 0 -30.5 -2.83301 -45.5 -8.5s-28.5 -15 -40.5 -28
s-21.833 -30.5 -29.5 -52.5s-11.5 -49.333 -11.5 -82v-214h59c4 -10 6 -20.333 6 -31s-2 -21 -6 -31h-212c-4 10 -6 20.333 -6 31s2 21 6 31h68v383h-68c-4 10 -6 20.333 -6 31s2 21 6 31h140v-75c4.66699 8.66699 11.334 18.334 20.001 29.001s19.5 20.334 32.5 29.001
s28.5 16 46.5 22s38.667 9 62 9c53.333 0 94.333 -15.167 123 -45.5s43 -75.166 43 -134.499v-279h68c4 -10 6 -20.333 6 -31zM465 702.998c-2 -14.667 -5.50195 -28.5 -10.502 -41.5s-11.5 -24.333 -19.5 -34s-18 -17.334 -30 -23.001s-26.333 -8.5 -43 -8.5
c-13.333 0 -26.166 2.16699 -38.499 6.5s-27.166 9.83301 -44.499 16.5l-21 8c-5.33301 2 -10.166 3.5 -14.499 4.5s-8.33301 1.66699 -12 2s-7.83398 0.5 -12.501 0.5c-7.33301 0 -13.333 -1.66699 -18 -5s-8.5 -7.33301 -11.5 -12s-5.5 -9.5 -7.5 -14.5
s-3.33301 -9.16699 -4 -12.5h-55c2 14.667 5.5 28.5 10.5 41.5s11.5 24.333 19.5 34s18 17.334 30 23.001s26.333 8.5 43 8.5c20 0 36.167 -2.5 48.5 -7.5l42.5 -16.5c15.333 -5.33301 26 -8.83301 32 -10.5s12.333 -2.5 19 -2.5c7.33301 0 13.5 1.5 18.5 4.5
s9 6.83301 12 11.5s5.33301 9.5 7 14.5s3.16699 9.16699 4.5 12.5h55z" />
    <glyph glyph-name="ograve" unicode="&#xf2;" horiz-adv-x="549" 
d="M422 254c0 16.667 -2 36.334 -6 59.001s-11.5 44 -22.5 64s-26 37 -45 51s-43.833 21 -74.5 21s-55.5 -7 -74.5 -21s-33.833 -31 -44.5 -51s-18 -41.333 -22 -64s-6 -42.334 -6 -59.001c0 -17.333 2 -37.166 6 -59.499s11.333 -43.666 22 -63.999s25.5 -37.5 44.5 -51.5
s43.833 -21 74.5 -21s55.5 7 74.5 21s34 31.167 45 51.5s18.5 41.666 22.5 63.999s6 42.166 6 59.499zM510 254c0 -32.667 -4.66699 -65 -14 -97s-23.666 -60.667 -42.999 -86s-43.833 -45.833 -73.5 -61.5s-64.834 -23.5 -105.501 -23.5s-75.667 7.83301 -105 23.5
s-53.666 36.167 -72.999 61.5s-33.666 54 -42.999 86s-14 64.333 -14 97s4.66699 65 14 97s23.666 60.5 42.999 85.5s43.666 45.333 72.999 61s64.333 23.5 105 23.5s75.834 -7.83301 105.501 -23.5s54.167 -36 73.5 -61s33.666 -53.5 42.999 -85.5s14 -64.333 14 -97z
M268 575l-126 136h110l87 -136h-71z" />
    <glyph glyph-name="oacute" unicode="&#xf3;" horiz-adv-x="549" 
d="M422 254c0 16.667 -2 36.334 -6 59.001s-11.5 44 -22.5 64s-26 37 -45 51s-43.833 21 -74.5 21s-55.5 -7 -74.5 -21s-33.833 -31 -44.5 -51s-18 -41.333 -22 -64s-6 -42.334 -6 -59.001c0 -17.333 2 -37.166 6 -59.499s11.333 -43.666 22 -63.999s25.5 -37.5 44.5 -51.5
s43.833 -21 74.5 -21s55.5 7 74.5 21s34 31.167 45 51.5s18.5 41.666 22.5 63.999s6 42.166 6 59.499zM510 254c0 -32.667 -4.66699 -65 -14 -97s-23.666 -60.667 -42.999 -86s-43.833 -45.833 -73.5 -61.5s-64.834 -23.5 -105.501 -23.5s-75.667 7.83301 -105 23.5
s-53.666 36.167 -72.999 61.5s-33.666 54 -42.999 86s-14 64.333 -14 97s4.66699 65 14 97s23.666 60.5 42.999 85.5s43.666 45.333 72.999 61s64.333 23.5 105 23.5s75.834 -7.83301 105.501 -23.5s54.167 -36 73.5 -61s33.666 -53.5 42.999 -85.5s14 -64.333 14 -97z
M289 575h-71l87 136h110z" />
    <glyph glyph-name="ocircumflex" unicode="&#xf4;" horiz-adv-x="549" 
d="M422 254c0 16.667 -2 36.334 -6 59.001s-11.5 44 -22.5 64s-26 37 -45 51s-43.833 21 -74.5 21s-55.5 -7 -74.5 -21s-33.833 -31 -44.5 -51s-18 -41.333 -22 -64s-6 -42.334 -6 -59.001c0 -17.333 2 -37.166 6 -59.499s11.333 -43.666 22 -63.999s25.5 -37.5 44.5 -51.5
s43.833 -21 74.5 -21s55.5 7 74.5 21s34 31.167 45 51.5s18.5 41.666 22.5 63.999s6 42.166 6 59.499zM510 254c0 -32.667 -4.66699 -65 -14 -97s-23.666 -60.667 -42.999 -86s-43.833 -45.833 -73.5 -61.5s-64.834 -23.5 -105.501 -23.5s-75.667 7.83301 -105 23.5
s-53.666 36.167 -72.999 61.5s-33.666 54 -42.999 86s-14 64.333 -14 97s4.66699 65 14 97s23.666 60.5 42.999 85.5s43.666 45.333 72.999 61s64.333 23.5 105 23.5s75.834 -7.83301 105.501 -23.5s54.167 -36 73.5 -61s33.666 -53.5 42.999 -85.5s14 -64.333 14 -97z
M340 575l-64 90l-64 -90h-77l96 136h90l96 -136h-77z" />
    <glyph glyph-name="otilde" unicode="&#xf5;" horiz-adv-x="549" 
d="M422 254c0 16.667 -2 36.334 -6 59.001s-11.5 44 -22.5 64s-26 37 -45 51s-43.833 21 -74.5 21s-55.5 -7 -74.5 -21s-33.833 -31 -44.5 -51s-18 -41.333 -22 -64s-6 -42.334 -6 -59.001c0 -17.333 2 -37.166 6 -59.499s11.333 -43.666 22 -63.999s25.5 -37.5 44.5 -51.5
s43.833 -21 74.5 -21s55.5 7 74.5 21s34 31.167 45 51.5s18.5 41.666 22.5 63.999s6 42.166 6 59.499zM510 254c0 -32.667 -4.66699 -65 -14 -97s-23.666 -60.667 -42.999 -86s-43.833 -45.833 -73.5 -61.5s-64.834 -23.5 -105.501 -23.5s-75.667 7.83301 -105 23.5
s-53.666 36.167 -72.999 61.5s-33.666 54 -42.999 86s-14 64.333 -14 97s4.66699 65 14 97s23.666 60.5 42.999 85.5s43.666 45.333 72.999 61s64.333 23.5 105 23.5s75.834 -7.83301 105.501 -23.5s54.167 -36 73.5 -61s33.666 -53.5 42.999 -85.5s14 -64.333 14 -97z
M446 703c-2 -14.667 -5.50195 -28.5 -10.502 -41.5s-11.5 -24.333 -19.5 -34s-18 -17.334 -30 -23.001s-26.333 -8.5 -43 -8.5c-13.333 0 -26.166 2.16699 -38.499 6.5s-27.166 9.83301 -44.499 16.5l-21 8c-5.33301 2 -10.166 3.5 -14.499 4.5s-8.33301 1.66699 -12 2
s-7.83398 0.5 -12.501 0.5c-7.33301 0 -13.333 -1.66699 -18 -5s-8.5 -7.33301 -11.5 -12s-5.5 -9.5 -7.5 -14.5s-3.33301 -9.16699 -4 -12.5h-55c2 14.667 5.5 28.5 10.5 41.5s11.5 24.333 19.5 34s18 17.334 30 23.001s26.333 8.5 43 8.5c20 0 36.167 -2.5 48.5 -7.5
l42.5 -16.5c15.333 -5.33301 26 -8.83301 32 -10.5s12.333 -2.5 19 -2.5c7.33301 0 13.5 1.5 18.5 4.5s9 6.83301 12 11.5s5.33301 9.5 7 14.5s3.16699 9.16699 4.5 12.5h55z" />
    <glyph glyph-name="odieresis" unicode="&#xf6;" horiz-adv-x="549" 
d="M422 254c0 16.667 -2 36.334 -6 59.001s-11.5 44 -22.5 64s-26 37 -45 51s-43.833 21 -74.5 21s-55.5 -7 -74.5 -21s-33.833 -31 -44.5 -51s-18 -41.333 -22 -64s-6 -42.334 -6 -59.001c0 -17.333 2 -37.166 6 -59.499s11.333 -43.666 22 -63.999s25.5 -37.5 44.5 -51.5
s43.833 -21 74.5 -21s55.5 7 74.5 21s34 31.167 45 51.5s18.5 41.666 22.5 63.999s6 42.166 6 59.499zM510 254c0 -32.667 -4.66699 -65 -14 -97s-23.666 -60.667 -42.999 -86s-43.833 -45.833 -73.5 -61.5s-64.834 -23.5 -105.501 -23.5s-75.667 7.83301 -105 23.5
s-53.666 36.167 -72.999 61.5s-33.666 54 -42.999 86s-14 64.333 -14 97s4.66699 65 14 97s23.666 60.5 42.999 85.5s43.666 45.333 72.999 61s64.333 23.5 105 23.5s75.834 -7.83301 105.501 -23.5s54.167 -36 73.5 -61s33.666 -53.5 42.999 -85.5s14 -64.333 14 -97z
M233 638c0 -15.333 -5 -28.333 -15 -39s-21.667 -16 -35 -16s-25.166 5.33301 -35.499 16s-15.5 23.667 -15.5 39s5.16699 28.333 15.5 39s22.166 16 35.499 16s25 -5.33301 35 -16s15 -23.667 15 -39zM410 638c0 -15.333 -5.16699 -28.333 -15.5 -39
s-22.166 -16 -35.499 -16s-25 5.33301 -35 16s-15 23.667 -15 39s5 28.333 15 39s21.667 16 35 16s25.166 -5.33301 35.499 -16s15.5 -23.667 15.5 -39z" />
    <glyph glyph-name="divide" unicode="&#xf7;" 
d="M338 132c0 -17.333 -6.66699 -33 -20 -47s-29.333 -21 -48 -21c-18 0 -33.833 6.66699 -47.5 20s-20.5 29.333 -20.5 48c0 19.333 6.83301 35.5 20.5 48.5s29.5 19.5 47.5 19.5c18.667 0 34.667 -6.66699 48 -20s20 -29.333 20 -48zM24 299v71h490v-71h-490zM338 539
c0 -17.333 -6.66699 -33 -20 -47s-29.333 -21 -48 -21c-18 0 -33.833 6.66699 -47.5 20s-20.5 29.333 -20.5 48c0 19.333 6.83301 35.5 20.5 48.5s29.5 19.5 47.5 19.5c18.667 0 34.667 -6.66699 48 -20s20 -29.333 20 -48z" />
    <glyph glyph-name="oslash" unicode="&#xf8;" horiz-adv-x="549" 
d="M422 254c0 14.667 -1.33301 31.1689 -4 49.502s-7.66699 36.5 -15 54.5l-225 -260c11.333 -12 24.833 -21.667 40.5 -29s34.167 -11 55.5 -11c30.667 0 55.5 7 74.5 21s34 31.167 45 51.5s18.5 41.666 22.5 63.999s6 42.166 6 59.499zM371 409.002
c-11.333 12 -24.833 21.6699 -40.5 29.0029s-34.5 11 -56.5 11c-30.667 0 -55.5 -7 -74.5 -21s-33.833 -31 -44.5 -51s-18 -41.333 -22 -64s-6 -42.334 -6 -59.001c0 -14.667 1.33301 -31.334 4 -50.001s7.66699 -37.334 15 -56.001zM461 425.005
c16.667 -24.667 29.002 -51.667 37.002 -81s12 -59.333 12 -90c0 -32.667 -4.66699 -65 -14 -97s-23.666 -60.667 -42.999 -86s-43.833 -45.833 -73.5 -61.5s-64.834 -23.5 -105.501 -23.5c-30.667 0 -58.167 4.66699 -82.5 14s-46.166 22 -65.499 38l-57 -66l-43 38l62 71
c-16.667 24.667 -29 52 -37 82s-12 60.333 -12 91c0 32.667 4.66699 65 14 97s23.666 60.5 42.999 85.5s43.666 45.333 72.999 61s64.333 23.5 105 23.5c31.333 0 59.166 -4.66699 83.499 -14s45.833 -22 64.5 -38l58 66l43 -38z" />
    <glyph glyph-name="ugrave" unicode="&#xf9;" horiz-adv-x="584" 
d="M565 31c0 -10.667 -2 -21.002 -6 -31.002h-139v75c-6 -9.33301 -13.333 -19.166 -22 -29.499s-19.5 -20 -32.5 -29s-28.167 -16.5 -45.5 -22.5s-37.666 -9 -60.999 -9c-54 0 -95.333 15.167 -124 45.5s-43 75.5 -43 135.5v279h-67c-4 10 -6 20.333 -6 31s2 21 6 31h152
v-312c0 -21.333 1.5 -40.333 4.5 -57s8.16699 -30.667 15.5 -42s17.666 -20.166 30.999 -26.499s30.333 -9.5 51 -9.5c14.667 0 29.667 2.83301 45 8.5s29 15 41 28s21.833 30.5 29.5 52.5s11.5 49.333 11.5 82v214h-67c-4 10 -6 20.333 -6 31s2 21 6 31h153v-445h67
c4 -10 6 -20.333 6 -31zM268 574.998l-126 136h110l87 -136h-71z" />
    <glyph glyph-name="uacute" unicode="&#xfa;" horiz-adv-x="584" 
d="M565 31c0 -10.667 -2 -21.002 -6 -31.002h-139v75c-6 -9.33301 -13.333 -19.166 -22 -29.499s-19.5 -20 -32.5 -29s-28.167 -16.5 -45.5 -22.5s-37.666 -9 -60.999 -9c-54 0 -95.333 15.167 -124 45.5s-43 75.5 -43 135.5v279h-67c-4 10 -6 20.333 -6 31s2 21 6 31h152
v-312c0 -21.333 1.5 -40.333 4.5 -57s8.16699 -30.667 15.5 -42s17.666 -20.166 30.999 -26.499s30.333 -9.5 51 -9.5c14.667 0 29.667 2.83301 45 8.5s29 15 41 28s21.833 30.5 29.5 52.5s11.5 49.333 11.5 82v214h-67c-4 10 -6 20.333 -6 31s2 21 6 31h153v-445h67
c4 -10 6 -20.333 6 -31zM298 574.998h-71l87 136h110z" />
    <glyph glyph-name="ucircumflex" unicode="&#xfb;" horiz-adv-x="584" 
d="M565 31c0 -10.667 -2 -21.002 -6 -31.002h-139v75c-6 -9.33301 -13.333 -19.166 -22 -29.499s-19.5 -20 -32.5 -29s-28.167 -16.5 -45.5 -22.5s-37.666 -9 -60.999 -9c-54 0 -95.333 15.167 -124 45.5s-43 75.5 -43 135.5v279h-67c-4 10 -6 20.333 -6 31s2 21 6 31h152
v-312c0 -21.333 1.5 -40.333 4.5 -57s8.16699 -30.667 15.5 -42s17.666 -20.166 30.999 -26.499s30.333 -9.5 51 -9.5c14.667 0 29.667 2.83301 45 8.5s29 15 41 28s21.833 30.5 29.5 52.5s11.5 49.333 11.5 82v214h-67c-4 10 -6 20.333 -6 31s2 21 6 31h153v-445h67
c4 -10 6 -20.333 6 -31zM335 574.998l-64 90l-64 -90h-77l96 136h90l96 -136h-77z" />
    <glyph glyph-name="udieresis" unicode="&#xfc;" horiz-adv-x="584" 
d="M565 31c0 -10.667 -2 -21.002 -6 -31.002h-139v75c-6 -9.33301 -13.333 -19.166 -22 -29.499s-19.5 -20 -32.5 -29s-28.167 -16.5 -45.5 -22.5s-37.666 -9 -60.999 -9c-54 0 -95.333 15.167 -124 45.5s-43 75.5 -43 135.5v279h-67c-4 10 -6 20.333 -6 31s2 21 6 31h152
v-312c0 -21.333 1.5 -40.333 4.5 -57s8.16699 -30.667 15.5 -42s17.666 -20.166 30.999 -26.499s30.333 -9.5 51 -9.5c14.667 0 29.667 2.83301 45 8.5s29 15 41 28s21.833 30.5 29.5 52.5s11.5 49.333 11.5 82v214h-67c-4 10 -6 20.333 -6 31s2 21 6 31h153v-445h67
c4 -10 6 -20.333 6 -31zM249 637.998c0 -15.333 -5 -28.333 -15 -39s-21.667 -16 -35 -16s-25.166 5.33301 -35.499 16s-15.5 23.667 -15.5 39s5.16699 28.333 15.5 39s22.166 16 35.499 16s25 -5.33301 35 -16s15 -23.667 15 -39zM426 637.998
c0 -15.333 -5.16699 -28.333 -15.5 -39s-22.166 -16 -35.499 -16s-25 5.33301 -35 16s-15 23.667 -15 39s5 28.333 15 39s21.667 16 35 16s25.166 -5.33301 35.499 -16s15.5 -23.667 15.5 -39z" />
    <glyph glyph-name="yacute" unicode="&#xfd;" horiz-adv-x="537" 
d="M532 476c0 -10.667 -1.99902 -20.999 -5.99902 -30.999h-52l-175 -489c-9.33301 -26.667 -19.833 -48.834 -31.5 -66.501s-24.334 -31.667 -38.001 -42s-28.834 -17.5 -45.501 -21.5s-34.667 -6 -54 -6s-35.166 1.5 -47.499 4.5s-24.166 6.5 -35.499 10.5v67
c11.333 -4 24 -7.33301 38 -10s26.667 -4 38 -4s22 1 32 3s19.167 6.5 27.5 13.5s16.166 17.167 23.499 30.5s14.333 31 21 53l-164 457h-52c-4 10 -6 20.333 -6 31s2 21 6 31h204c4 -10 6 -20.333 6 -31s-2 -21 -6 -31h-64l98 -290l5.5 -17
c2.33301 -7.33301 4.66602 -15.166 6.99902 -23.499l7 -24c2.33301 -7.66699 3.83301 -13.834 4.5 -18.501c0.666992 4.66699 2 10.834 4 18.501s4.33301 15.667 7 24s5.33398 16.166 8.00098 23.499s4.66699 13 6 17l97 290h-62c-4 10 -6 20.333 -6 31s2 21 6 31h193
c4 -10 6 -20.333 6 -31zM290.001 575.001h-71l87 136h110z" />
    <glyph glyph-name="thorn" unicode="&#xfe;" horiz-adv-x="563" 
d="M436 254c0 16 -1.50195 35.1689 -4.50195 57.502s-9.33301 43.666 -19 63.999s-23.667 37.5 -42 51.5s-42.833 21 -73.5 21c-30 0 -54.167 -7 -72.5 -21s-32.166 -31.333 -41.499 -52s-15.5 -42.334 -18.5 -65.001s-4.5 -43 -4.5 -61c0 -38.667 4.83301 -70.5 14.5 -95.5
s21.5 -44.667 35.5 -59s29 -24.333 45 -30s30.667 -8.5 44 -8.5c22.667 0 42.5 5 59.5 15s31.333 24 43 42s20.334 39 26.001 63s8.5 50 8.5 78zM523.998 269.002c0 -30.667 -3.33301 -62.665 -10 -95.998s-18.334 -64 -35.001 -92s-39.167 -51 -67.5 -69
s-63.833 -27 -106.5 -27c-13.333 0 -27.166 2 -41.499 6s-28 9.5 -41 16.5s-24.667 15.667 -35 26s-18.166 22.166 -23.499 35.499v-175h73c4 -10 6 -20.333 6 -31s-2 -21 -6 -31h-226c-4 10 -6 20.333 -6 31s2 21 6 31h68v802h-68c-4 10 -6 20.333 -6 31s2 21 6 31h153
v-319c4.66699 7.33301 11 15.666 19 24.999s18 18.333 30 27s26.167 15.834 42.5 21.501s35.5 8.5 57.5 8.5c33.333 0 63.166 -6.5 89.499 -19.5s48.5 -30.833 66.5 -53.5s31.667 -49.334 41 -80.001s14 -63.667 14 -99z" />
    <glyph glyph-name="ydieresis" unicode="&#xff;" horiz-adv-x="537" 
d="M532 476c0 -10.667 -1.99902 -20.999 -5.99902 -30.999h-52l-175 -489c-9.33301 -26.667 -19.833 -48.834 -31.5 -66.501s-24.334 -31.667 -38.001 -42s-28.834 -17.5 -45.501 -21.5s-34.667 -6 -54 -6s-35.166 1.5 -47.499 4.5s-24.166 6.5 -35.499 10.5v67
c11.333 -4 24 -7.33301 38 -10s26.667 -4 38 -4s22 1 32 3s19.167 6.5 27.5 13.5s16.166 17.167 23.499 30.5s14.333 31 21 53l-164 457h-52c-4 10 -6 20.333 -6 31s2 21 6 31h204c4 -10 6 -20.333 6 -31s-2 -21 -6 -31h-64l98 -290l5.5 -17
c2.33301 -7.33301 4.66602 -15.166 6.99902 -23.499l7 -24c2.33301 -7.66699 3.83301 -13.834 4.5 -18.501c0.666992 4.66699 2 10.834 4 18.501s4.33301 15.667 7 24s5.33398 16.166 8.00098 23.499s4.66699 13 6 17l97 290h-62c-4 10 -6 20.333 -6 31s2 21 6 31h193
c4 -10 6 -20.333 6 -31zM228.001 638.001c0 -15.333 -5 -28.333 -15 -39s-21.667 -16 -35 -16s-25.166 5.33301 -35.499 16s-15.5 23.667 -15.5 39s5.16699 28.333 15.5 39s22.166 16 35.499 16s25 -5.33301 35 -16s15 -23.667 15 -39zM405.001 638.001
c0 -15.333 -5.16699 -28.333 -15.5 -39s-22.166 -16 -35.499 -16s-25 5.33301 -35 16s-15 23.667 -15 39s5 28.333 15 39s21.667 16 35 16s25.166 -5.33301 35.499 -16s15.5 -23.667 15.5 -39z" />
    <glyph glyph-name="dotlessi" unicode="&#x131;" horiz-adv-x="292" 
d="M265 31c0 -10.667 -2 -21 -6 -31h-221c-4 10 -6 20.333 -6 31s2 21 6 31h68v383h-68c-4 10 -6 20.333 -6 31s2 21 6 31h153v-445h68c4 -10 6 -20.333 6 -31z" />
    <glyph glyph-name="Lslash" unicode="&#x141;" horiz-adv-x="591" 
d="M36 0c-4 12 -6 23.667 -6 35s2 23 6 35h75v205l-82 -69v87l82 69v297h-75c-4 12 -6 23.667 -6 35s2 23 6 35h252c4 -12 6 -23.667 6 -35s-2 -23 -6 -35h-86v-221l126 106v-87l-126 -106v-273h276v165c14 4 27 6 39 6c13.333 0 26 -2 38 -6v-243h-519z" />
    <glyph glyph-name="lslash" unicode="&#x142;" horiz-adv-x="283" 
d="M184 396v-334h68c4 -10 6 -20.333 6 -31s-2 -21 -6 -31h-221c-4 10 -6 20.333 -6 31s2 21 6 31h68v263l-77 -65v72l77 65v299h-68c-4 10 -6 20.333 -6 31s2 21 6 31h153v-290l77 65v-72z" />
    <glyph glyph-name="OE" unicode="&#x152;" horiz-adv-x="1062" 
d="M530 652c-10.667 2 -20.833 3.50195 -30.5 4.50195s-19.5 1.66699 -29.5 2s-20.667 0.666016 -32 0.999023s-24 0.5 -38 0.5c-38 0 -72.333 -6.66699 -103 -20s-56.5 -32.666 -77.5 -57.999s-37.167 -56.333 -48.5 -93s-17 -78.334 -17 -125.001
c0 -48.667 5.83301 -91.334 17.5 -128.001s27.834 -67.5 48.501 -92.5s44.5 -43.833 71.5 -56.5s56.167 -19 87.5 -19c22.667 0 46.167 0.333008 70.5 1s51.166 3.66699 80.499 9v574zM590.001 0.00195312c-27.333 0 -50.001 -0.333984 -68.001 -1.00098
s-34.5 -1.5 -49.5 -2.5s-30.5 -1.83301 -46.5 -2.5s-36 -1 -60 -1c-54 0 -100.5 10.667 -139.5 32s-71.333 49.333 -97 84s-44.5 74.167 -56.5 118.5s-18 89.833 -18 136.5c0 44.667 6.16699 89.334 18.5 134.001s32 84.5 59 119.5s62.167 63.5 105.5 85.5s96 33 158 33
c20 0 38.167 -0.333008 54.5 -1s32.333 -1.5 48 -2.5s31.834 -1.83301 48.501 -2.5s35.667 -1 57 -1h397v-212c-13.333 -4 -26.333 -6 -39 -6c-13.333 0 -26.333 2 -39 6v134h-303v-237h303c4 -13.333 6 -26.333 6 -39c0 -13.333 -2 -26.333 -6 -39h-303v-258h310v137
c14 4 27 6 39 6c13.333 0 26 -2 38 -6v-215h-417z" />
    <glyph glyph-name="oe" unicode="&#x153;" horiz-adv-x="884" 
d="M422 254c0 16.667 -2 36.334 -6 59.001s-11.5 44 -22.5 64s-26 37 -45 51s-43.833 21 -74.5 21s-55.5 -7 -74.5 -21s-33.833 -31 -44.5 -51s-18 -41.333 -22 -64s-6 -42.334 -6 -59.001c0 -17.333 2 -37.166 6 -59.499s11.333 -43.666 22 -63.999s25.5 -37.5 44.5 -51.5
s43.833 -21 74.5 -21s55.5 7 74.5 21s34 31.167 45 51.5s18.5 41.666 22.5 63.999s6 42.166 6 59.499zM760 291c0 16.667 -1.83594 34.3311 -5.50293 52.998s-10.167 36 -19.5 52s-22.166 29.167 -38.499 39.5s-37.166 15.5 -62.499 15.5
c-23.333 0 -43.166 -5.66699 -59.499 -17s-29.5 -25.166 -39.5 -41.499s-17.167 -33.666 -21.5 -51.999s-6.5 -34.833 -6.5 -49.5h253zM506.997 228.997c0.666992 -21.333 4.66797 -42.001 12.001 -62.001s17.666 -37.833 30.999 -53.5s29.833 -28.334 49.5 -38.001
s42.5 -14.5 68.5 -14.5c36.667 0 67.167 5.66699 91.5 17s46.166 23.333 65.499 36v-84c-17.333 -10 -40.166 -19.833 -68.499 -29.5s-57.5 -14.5 -87.5 -14.5c-50 0 -91.833 9.83301 -125.5 29.5s-60.5 46.5 -80.5 80.5c-19.333 -34 -44.5 -60.833 -75.5 -80.5
s-68.833 -29.5 -113.5 -29.5c-40.667 0 -75.667 7.83301 -105 23.5s-53.666 36.167 -72.999 61.5s-33.666 54 -42.999 86s-14 64.333 -14 97s4.66699 65 14 97s23.666 60.5 42.999 85.5s43.666 45.333 72.999 61s64.333 23.5 105 23.5c43.333 0 80.333 -9.5 111 -28.5
s55.667 -44.5 75 -76.5c18 32.667 41.333 58.334 70 77.001s64 28 106 28c40.667 0 74.5 -7.66699 101.5 -23s48.833 -35.666 65.5 -60.999s28.5 -54.333 35.5 -87s10.5 -66 10.5 -100v-21h-342z" />
    <glyph glyph-name="Scaron" unicode="&#x160;" horiz-adv-x="647" 
d="M610 184c0 -32 -6.66699 -60.3281 -20 -84.9951s-31.833 -45.667 -55.5 -63s-51.5 -30.5 -83.5 -39.5s-66.333 -13.5 -103 -13.5c-54.667 0 -99.834 8.33301 -135.501 25s-65.167 39 -88.5 67v-75c-13.333 -4 -26 -6 -38 -6c-12.667 0 -25.334 2 -38.001 6v262
c14 4 27.333 6 40 6c14 0 27 -2 39 -6v-42c0 -20.667 5 -40.667 15 -60s24.333 -36.333 43 -51s41.5 -26.334 68.5 -35.001s57.5 -13 91.5 -13c54 0 95.667 10.667 125 32s44 51 44 89c0 19.333 -3.5 36.166 -10.5 50.499s-16.667 26.833 -29 37.5s-27 19.834 -44 27.501
s-35.5 14.167 -55.5 19.5l-159 43c-20 5.33301 -39.333 12.833 -58 22.5s-35 21.667 -49 36s-25.167 31.166 -33.5 50.499s-12.5 41.666 -12.5 66.999c0 34.667 6.5 65 19.5 91s30.333 47.833 52 65.5s46.834 31 75.501 40s58.667 13.5 90 13.5
c50 0 91.667 -8.33301 125 -25s57.666 -37 72.999 -61v69c12.667 4 25.334 6 38.001 6c13.333 0 26 -2 38 -6v-245c-13.333 -4 -26.333 -6 -39 -6c-13.333 0 -26.333 2 -39 6v33c0 20 -4 39.167 -12 57.5s-20 34.666 -36 48.999s-35.833 25.666 -59.5 33.999
s-51.5 12.5 -83.5 12.5c-44 0 -80.333 -10.167 -109 -30.5s-43 -50.5 -43 -90.5c0 -28 8.33301 -50.333 25 -67s43 -29.667 79 -39l160 -43c30 -8 57 -17.833 81 -29.5s44.333 -26 61 -43s29.334 -37.167 38.001 -60.5s13 -51 13 -83zM380 787.005h-90l-96 136h77l64 -90
l64 90h77z" />
    <glyph glyph-name="scaron" unicode="&#x161;" horiz-adv-x="496" 
d="M455 130c0 -21.333 -4.83105 -40.666 -14.498 -57.999s-23 -32.166 -40 -44.499s-37.167 -21.833 -60.5 -28.5s-48.666 -10 -75.999 -10c-32 0 -61.333 4.83301 -88 14.5s-48.667 24.834 -66 45.501v-46c-11.333 -4 -22 -6 -32 -6c-10.667 0 -21 2 -31 6v189
c12 4 23 6 33 6c11.333 0 22 -2 32 -6v-22c0 -17.333 4 -33.166 12 -47.499s18.833 -26.5 32.5 -36.5s29.5 -17.667 47.5 -23s37 -8 57 -8c31.333 0 57.333 5.66699 78 17s31 29.333 31 54c0 12.667 -2.16699 23.5 -6.5 32.5s-10.833 16.833 -19.5 23.5
s-19.334 12.5 -32.001 17.5s-27.334 9.83301 -44.001 14.5l-99 27c-34.667 9.33301 -62.5 24.166 -83.5 44.499s-31.5 47.833 -31.5 82.5c0 27.333 5.16699 50.666 15.5 69.999s23.833 35 40.5 47s35.334 20.667 56.001 26s41.667 8 63 8
c35.333 0 64.166 -5.83301 86.499 -17.5s38.166 -25.5 47.499 -41.5v46c10.667 4 21.334 6 32.001 6c11.333 0 22 -2 32 -6v-174c-11.333 -4 -22.666 -6 -33.999 -6s-22.333 2 -33 6v21c0 12 -2.5 24.167 -7.5 36.5s-12.833 23.5 -23.5 33.5s-24 18.167 -40 24.5
s-35 9.5 -57 9.5c-26.667 0 -49.834 -6 -69.501 -18s-29.5 -31.333 -29.5 -58c0 -21.333 7.16699 -36.5 21.5 -45.5s38.166 -17.833 71.499 -26.5l85 -22c24.667 -6.66699 46 -14.334 64 -23.001s33 -19.167 45 -31.5s20.833 -26.833 26.5 -43.5s8.5 -36.334 8.5 -59.001z
M300.002 573h-90l-96 136h77l64 -90l64 90h77z" />
    <glyph glyph-name="Ydieresis" unicode="&#x178;" horiz-adv-x="720" 
d="M712 694c0 -11.333 -2 -23 -6 -35h-58l-247 -367v-222h80c4 -12 6 -23.667 6 -35s-2 -23 -6 -35h-250c-4 12 -6 23.667 -6 35s2 23 6 35h79v223l-238 366h-58c-4 12 -6 23.667 -6 35s2 23 6 35h248c4 -12 6 -23.667 6 -35s-2 -23 -6 -35h-91l191 -293l197 293h-92
c-4 12 -6 23.667 -6 35s2 23 6 35h239c4 -12 6 -23.667 6 -35zM331 850c0 -15.333 -5 -28.333 -15 -39s-21.667 -16 -35 -16s-25.166 5.33301 -35.499 16s-15.5 23.667 -15.5 39s5.16699 28.333 15.5 39s22.166 16 35.499 16s25 -5.33301 35 -16s15 -23.667 15 -39zM508 850
c0 -15.333 -5.16699 -28.333 -15.5 -39s-22.166 -16 -35.499 -16s-25 5.33301 -35 16s-15 23.667 -15 39s5 28.333 15 39s21.667 16 35 16s25.166 -5.33301 35.499 -16s15.5 -23.667 15.5 -39z" />
    <glyph glyph-name="Zcaron" unicode="&#x17d;" horiz-adv-x="630" 
d="M30 0v78l445 573h-347v-138c-13.333 -4 -26.333 -6 -39 -6s-25.334 2 -38.001 6v216h531v-78l-446 -573h387v141c12.667 4 25.334 6 38.001 6c14 0 27 -2 39 -6v-219h-570zM372 787h-90l-96 136h77l64 -90l64 90h77z" />
    <glyph glyph-name="zcaron" unicode="&#x17e;" horiz-adv-x="446" 
d="M19 0v68l311 377h-228v-104c-12 -4 -23.667 -6 -35 -6s-23 2 -35 6v166h386v-68l-311 -377h250v103c12 4 23.667 6 35 6c12 0 23.667 -2 35 -6v-165h-408zM275 575h-90l-96 136h77l64 -90l64 90h77z" />
    <glyph glyph-name="florin" unicode="&#x192;" 
d="M513 682c-8.66699 4 -17.501 7.66602 -26.501 10.999s-21.833 5 -38.5 5c-22 0 -42.167 -7.83301 -60.5 -23.5s-31.166 -44.834 -38.499 -87.501l-14 -80h95c0.666992 -2.66699 1 -5.33398 1 -8.00098v-8c0 -7.33301 -0.333008 -12.666 -1 -15.999
c-1.33301 -5.33301 -2.83301 -10.833 -4.5 -16.5s-4.16699 -10.5 -7.5 -14.5h-94l-74 -440c-6.66699 -38 -15.667 -69 -27 -93s-24.5 -42.667 -39.5 -56s-31.333 -22.5 -49 -27.5s-35.834 -7.5 -54.501 -7.5c-19.333 0 -34.833 2 -46.5 6s-20.167 7.33301 -25.5 10l16 62
c5.33301 -3.33301 13.5 -6.33301 24.5 -9s22.167 -4 33.5 -4c22.667 0 40.834 8.66699 54.501 26s24.167 47.333 31.5 90l75 443h-82c-0.666992 2.66699 -1 5.33398 -1 8.00098v8c0 7.33301 0.333008 12.666 1 15.999c1.33301 5.33301 2.83301 10.833 4.5 16.5
s4.16699 10.5 7.5 14.5h81l10 64c6.66699 40.667 16.667 73.834 30 99.501s28.5 45.667 45.5 60s35 24 54 29s37.5 7.5 55.5 7.5c18.667 0 34 -1.66699 46 -5s23.667 -7.66602 35 -12.999z" />
    <glyph glyph-name="circumflex" unicode="&#x2c6;" horiz-adv-x="342" 
d="M235 575l-64 90l-64 -90h-77l96 136h90l96 -136h-77z" />
    <glyph glyph-name="caron" unicode="&#x2c7;" horiz-adv-x="342" 
d="M216 575h-90l-96 136h77l64 -90l64 90h77z" />
    <glyph glyph-name="breve" unicode="&#x2d8;" horiz-adv-x="342" 
d="M319 709c-1.33301 -14 -4.33203 -28.666 -8.99902 -43.999s-12.334 -29.5 -23.001 -42.5s-25.334 -23.833 -44.001 -32.5s-43 -13 -73 -13s-54.167 4 -72.5 12s-32.833 18.5 -43.5 31.5s-18.167 27.167 -22.5 42.5s-7.5 30.666 -9.5 45.999h57
c2 -7.33301 4.66699 -15.333 8 -24s8.33301 -16.667 15 -24s15.334 -13.5 26.001 -18.5s24.667 -7.5 42 -7.5c16.667 0 30.667 2.5 42 7.5s20.333 11.167 27 18.5s11.667 15.333 15 24s6 16.667 8 24h57z" />
    <glyph glyph-name="dotaccent" unicode="&#x2d9;" horiz-adv-x="342" 
d="M221 636c0 -15.333 -5 -28.333 -15 -39s-21.667 -16 -35 -16s-25.166 5.33301 -35.499 16s-15.5 23.667 -15.5 39s5.16699 28.333 15.5 39s22.166 16 35.499 16s25 -5.33301 35 -16s15 -23.667 15 -39z" />
    <glyph glyph-name="ring" unicode="&#x2da;" horiz-adv-x="342" 
d="M231 677c0 16 -6 30 -18 42s-26 18 -42 18s-30 -6 -42 -18s-18 -26 -18 -42s6 -30 18 -42s26 -18 42 -18s30 6 42 18s18 26 18 42zM275 677c0 -14 -2.66699 -27.333 -8 -40s-12.833 -23.834 -22.5 -33.501s-20.834 -17.167 -33.501 -22.5s-26 -8 -40 -8
s-27.333 2.66699 -40 8s-23.834 12.833 -33.501 22.5s-17.167 20.834 -22.5 33.501s-8 26 -8 40s2.66699 27.333 8 40s12.833 23.834 22.5 33.501s20.834 17.167 33.501 22.5s26 8 40 8s27.333 -2.66699 40 -8s23.834 -12.833 33.501 -22.5s17.167 -20.834 22.5 -33.501
s8 -26 8 -40z" />
    <glyph glyph-name="ogonek" unicode="&#x2db;" horiz-adv-x="342" 
d="M275 -197c-6.66699 -3.33301 -18.667 -7.66699 -36 -13s-36.333 -8 -57 -8c-36 0 -64.167 8.5 -84.5 25.5s-30.5 39.833 -30.5 68.5c0 10.667 2 22.167 6 34.5s10.5 24 19.5 35s20.667 21.333 35 31s31.833 17.5 52.5 23.5h62c-35.333 -18 -61 -36.5 -77 -55.5
s-24 -40.167 -24 -63.5c0 -17.333 5.83301 -30.333 17.5 -39s24.167 -13 37.5 -13c12 0 23 1 33 3s20 5 30 9z" />
    <glyph glyph-name="tilde" unicode="&#x2dc;" horiz-adv-x="342" 
d="M342 703c-2 -14.667 -5.50195 -28.5 -10.502 -41.5s-11.5 -24.333 -19.5 -34s-18 -17.334 -30 -23.001s-26.333 -8.5 -43 -8.5c-13.333 0 -26.166 2.16699 -38.499 6.5s-27.166 9.83301 -44.499 16.5l-21 8c-5.33301 2 -10.166 3.5 -14.499 4.5s-8.33301 1.66699 -12 2
s-7.83398 0.5 -12.501 0.5c-7.33301 0 -13.333 -1.66699 -18 -5s-8.5 -7.33301 -11.5 -12s-5.5 -9.5 -7.5 -14.5s-3.33301 -9.16699 -4 -12.5h-55c2 14.667 5.5 28.5 10.5 41.5s11.5 24.333 19.5 34s18 17.334 30 23.001s26.333 8.5 43 8.5c20 0 36.167 -2.5 48.5 -7.5
l42.5 -16.5c15.333 -5.33301 26 -8.83301 32 -10.5s12.333 -2.5 19 -2.5c7.33301 0 13.5 1.5 18.5 4.5s9 6.83301 12 11.5s5.33301 9.5 7 14.5s3.16699 9.16699 4.5 12.5h55z" />
    <glyph glyph-name="hungarumlaut" unicode="&#x2dd;" horiz-adv-x="342" 
d="M70 575h-61l75 136h98zM220 575h-61l75 136h98z" />
    <glyph glyph-name="endash" unicode="&#x2013;" horiz-adv-x="500" 
d="M0 240v73h500v-73h-500z" />
    <glyph glyph-name="emdash" unicode="&#x2014;" horiz-adv-x="1000" 
d="M0 240v73h1000v-73h-1000z" />
    <glyph glyph-name="quoteleft" unicode="&#x2018;" horiz-adv-x="269" 
d="M201 525c0 -17.333 -5.16602 -32.833 -15.499 -46.5s-25.833 -20.5 -46.5 -20.5c-12 0 -22.667 2.83301 -32 8.5s-17 13.167 -23 22.5s-10.667 20.166 -14 32.499s-5 25.5 -5 39.5c0 38 5.66699 68.833 17 92.5s24.333 42.334 39 56.001s29 23.167 43 28.5
s23.667 8.33301 29 9v-50c-25.333 -11.333 -43 -26.5 -53 -45.5s-15 -40.5 -15 -64.5c5.33301 1.33301 10.666 2 15.999 2c22 0 37.5 -6.66699 46.5 -20s13.5 -28 13.5 -44z" />
    <glyph glyph-name="quoteright" unicode="&#x2019;" horiz-adv-x="269" 
d="M204 644c0 -38 -5.66797 -68.833 -17.001 -92.5s-24.333 -42.334 -39 -56.001s-29 -23.167 -43 -28.5s-23.667 -8.33301 -29 -9v50c25.333 11.333 43 26.5 53 45.5s15 40.5 15 64.5c-5.33301 -1.33301 -10.666 -2 -15.999 -2c-22 0 -37.5 6.66699 -46.5 20
s-13.5 28 -13.5 44c0 17.333 5.16699 32.833 15.5 46.5s25.833 20.5 46.5 20.5c12 0 22.667 -2.83301 32 -8.5s17 -13.167 23 -22.5s10.667 -20.166 14 -32.499s5 -25.5 5 -39.5z" />
    <glyph glyph-name="quotesinglbase" unicode="&#x201a;" horiz-adv-x="269" 
d="M204 17c0 -38 -5.66797 -68.833 -17.001 -92.5s-24.333 -42.334 -39 -56.001s-29 -23.167 -43 -28.5s-23.667 -8.33301 -29 -9v50c25.333 11.333 43 26.5 53 45.5s15 40.5 15 64.5c-5.33301 -1.33301 -10.666 -2 -15.999 -2c-22 0 -37.5 6.66699 -46.5 20
s-13.5 28 -13.5 44c0 17.333 5.16699 32.833 15.5 46.5s25.833 20.5 46.5 20.5c12 0 22.667 -2.83301 32 -8.5s17 -13.167 23 -22.5s10.667 -20.166 14 -32.499s5 -25.5 5 -39.5z" />
    <glyph glyph-name="quotedblleft" unicode="&#x201c;" horiz-adv-x="462" 
d="M204 540c0 -15.333 -4.83594 -29.5029 -14.5029 -42.5029s-24.167 -19.5 -43.5 -19.5c-11.333 0 -21.166 2.66699 -29.499 8s-15.5 12.333 -21.5 21s-10.5 18.834 -13.5 30.501s-4.5 23.834 -4.5 36.501c0 34.667 5.33301 63.167 16 85.5s22.834 39.833 36.501 52.5
s27 21.5 40 26.5s21.833 7.83301 26.5 8.5v-47c-23.333 -10.667 -39.666 -24.667 -48.999 -42s-14 -37.333 -14 -60c5.33301 1.33301 10.333 2 15 2c20.667 0 35.167 -6.16699 43.5 -18.5s12.5 -26.166 12.5 -41.499zM384.997 539.997
c0 -15.333 -4.83398 -29.5029 -14.501 -42.5029s-24.167 -19.5 -43.5 -19.5c-11.333 0 -21.333 2.66699 -30 8s-15.834 12.333 -21.501 21s-10 18.834 -13 30.501s-4.5 23.834 -4.5 36.501c0 34.667 5.33301 63.167 16 85.5s22.834 39.833 36.501 52.5s27 21.5 40 26.5
s21.833 7.83301 26.5 8.5v-47c-23.333 -10.667 -39.666 -24.667 -48.999 -42s-14 -37.333 -14 -60c5.33301 1.33301 10.333 2 15 2c20.667 0 35.167 -6.16699 43.5 -18.5s12.5 -26.166 12.5 -41.499z" />
    <glyph glyph-name="quotedblright" unicode="&#x201d;" horiz-adv-x="462" 
d="M204 651c0 -35.333 -5.33203 -63.9971 -15.999 -85.9971s-22.834 -39.333 -36.501 -52s-27 -21.5 -40 -26.5s-21.833 -7.83301 -26.5 -8.5v47c23.333 10.667 39.666 24.667 48.999 42s14 37.333 14 60c-5.33301 -1.33301 -10.333 -2 -15 -2
c-20.667 0 -35.167 6.16699 -43.5 18.5s-12.5 26.166 -12.5 41.499s4.83301 29.5 14.5 42.5s24.167 19.5 43.5 19.5c11.333 0 21.333 -2.66699 30 -8s15.834 -12.333 21.501 -21s10 -18.834 13 -30.501s4.5 -23.834 4.5 -36.501zM385.001 651.003
c0 -35.333 -5.33203 -63.9971 -15.999 -85.9971s-22.834 -39.333 -36.501 -52s-27 -21.5 -40 -26.5s-21.833 -7.83301 -26.5 -8.5v47c23.333 10.667 39.666 24.667 48.999 42s14 37.333 14 60c-5.33301 -1.33301 -10.333 -2 -15 -2c-20.667 0 -35.167 6.16699 -43.5 18.5
s-12.5 26.166 -12.5 41.499s4.83301 29.5 14.5 42.5s24.167 19.5 43.5 19.5c10.667 0 20.334 -2.66699 29.001 -8s16 -12.333 22 -21s10.5 -18.834 13.5 -30.501s4.5 -23.834 4.5 -36.501z" />
    <glyph glyph-name="quotedblbase" unicode="&#x201e;" horiz-adv-x="462" 
d="M204 15c0 -35.333 -5.33203 -63.9971 -15.999 -85.9971s-22.834 -39.333 -36.501 -52s-27 -21.5 -40 -26.5s-21.833 -7.83301 -26.5 -8.5v47c23.333 10.667 39.666 24.667 48.999 42s14 37.333 14 60c-5.33301 -1.33301 -10.333 -2 -15 -2
c-20.667 0 -35.167 6.16699 -43.5 18.5s-12.5 26.166 -12.5 41.499s4.83301 29.5 14.5 42.5s24.167 19.5 43.5 19.5c11.333 0 21.333 -2.66699 30 -8s15.834 -12.333 21.501 -21s10 -18.834 13 -30.501s4.5 -23.834 4.5 -36.501zM385.001 15.0029
c0 -35.333 -5.33203 -63.9971 -15.999 -85.9971s-22.834 -39.333 -36.501 -52s-27 -21.5 -40 -26.5s-21.833 -7.83301 -26.5 -8.5v47c23.333 10.667 39.666 24.667 48.999 42s14 37.333 14 60c-5.33301 -1.33301 -10.333 -2 -15 -2c-20.667 0 -35.167 6.16699 -43.5 18.5
s-12.5 26.166 -12.5 41.499s4.83301 29.5 14.5 42.5s24.167 19.5 43.5 19.5c10.667 0 20.334 -2.66699 29.001 -8s16 -12.333 22 -21s10.5 -18.834 13.5 -30.501s4.5 -23.834 4.5 -36.501z" />
    <glyph glyph-name="dagger" unicode="&#x2020;" horiz-adv-x="556" 
d="M323 431v-599h-88v599h-187v76h187v222h88v-222h186v-76h-186z" />
    <glyph glyph-name="daggerdbl" unicode="&#x2021;" horiz-adv-x="556" 
d="M323 35v-202h-88v202h-187v76h187v339h-187v76h187v203h88v-203h186v-76h-186v-339h186v-76h-186z" />
    <glyph glyph-name="bullet" unicode="&#x2022;" horiz-adv-x="423" 
d="M369 359c0 -22 -4.16699 -42.5 -12.5 -61.5s-19.666 -35.5 -33.999 -49.5s-31 -25.167 -50 -33.5s-39.5 -12.5 -61.5 -12.5s-42.5 4 -61.5 12s-35.5 19.167 -49.5 33.5s-25.167 31 -33.5 50s-12.5 39.5 -12.5 61.5s4 42.5 12 61.5s19.167 35.667 33.5 50
s31 25.666 50 33.999s39.5 12.5 61.5 12.5s42.5 -4.16699 61.5 -12.5s35.667 -19.666 50 -33.999s25.666 -31 33.999 -50s12.5 -39.5 12.5 -61.5z" />
    <glyph glyph-name="ellipsis" unicode="&#x2026;" horiz-adv-x="1000" 
d="M228 53c0 -18.667 -5.83301 -34.5 -17.5 -47.5s-26.167 -19.5 -43.5 -19.5s-31.833 6.5 -43.5 19.5s-17.5 28.833 -17.5 47.5s5.83301 34.5 17.5 47.5s26.167 19.5 43.5 19.5s31.833 -6.5 43.5 -19.5s17.5 -28.833 17.5 -47.5zM561 53
c0 -18.667 -5.83301 -34.5 -17.5 -47.5s-26.167 -19.5 -43.5 -19.5s-31.833 6.5 -43.5 19.5s-17.5 28.833 -17.5 47.5s5.83301 34.5 17.5 47.5s26.167 19.5 43.5 19.5s31.833 -6.5 43.5 -19.5s17.5 -28.833 17.5 -47.5zM894 53c0 -18.667 -5.83301 -34.5 -17.5 -47.5
s-26.167 -19.5 -43.5 -19.5s-31.833 6.5 -43.5 19.5s-17.5 28.833 -17.5 47.5s5.83301 34.5 17.5 47.5s26.167 19.5 43.5 19.5s31.833 -6.5 43.5 -19.5s17.5 -28.833 17.5 -47.5z" />
    <glyph glyph-name="perthousand" unicode="&#x2030;" horiz-adv-x="1000" 
d="M570 150c0 24.667 -8.5 45.5 -25.5 62.5s-37.833 25.5 -62.5 25.5c-12.667 0 -24.5 -2.33301 -35.5 -7s-20.5 -11 -28.5 -19s-14.333 -17.333 -19 -28s-7 -22 -7 -34c0 -28 8.83301 -50 26.5 -66s38.5 -24 62.5 -24c12.667 0 24.5 2.33301 35.5 7s20.5 11.167 28.5 19.5
s14.167 18 18.5 29s6.5 22.5 6.5 34.5zM253 520c0 24.667 -8.5 45.5 -25.5 62.5s-37.833 25.5 -62.5 25.5c-12.667 0 -24.5 -2.33301 -35.5 -7s-20.5 -11 -28.5 -19s-14.333 -17.333 -19 -28s-7 -22 -7 -34c0 -28 8.83301 -50 26.5 -66s38.5 -24 62.5 -24
c12.667 0 24.5 2.33301 35.5 7s20.5 11.167 28.5 19.5s14.167 18 18.5 29s6.5 22.5 6.5 34.5zM925 150c0 24.667 -8.5 45.5 -25.5 62.5s-37.833 25.5 -62.5 25.5c-12.667 0 -24.5 -2.33301 -35.5 -7s-20.5 -11 -28.5 -19s-14.333 -17.333 -19 -28s-7 -22 -7 -34
c0 -28 8.83301 -50 26.5 -66s38.5 -24 62.5 -24c12.667 0 24.5 2.33301 35.5 7s20.5 11.167 28.5 19.5s14.167 18 18.5 29s6.5 22.5 6.5 34.5zM630 150c0 -20.667 -3.83398 -40.001 -11.501 -58.001s-18.167 -33.833 -31.5 -47.5s-29 -24.5 -47 -32.5s-37.333 -12 -58 -12
s-40.167 3.83301 -58.5 11.5s-34.166 18.334 -47.499 32.001s-24 29.5 -32 47.5s-12 37.667 -12 59c0 20.667 4 40 12 58s18.667 33.667 32 47s29.166 23.833 47.499 31.5s37.833 11.5 58.5 11.5c20 0 39 -3.83301 57 -11.5s33.833 -18.167 47.5 -31.5
s24.334 -29 32.001 -47s11.5 -37.333 11.5 -58zM163.999 -16.001h-71l387 699h71zM312.999 519.999c0 -20.667 -3.83398 -40.001 -11.501 -58.001s-18.167 -33.833 -31.5 -47.5s-29 -24.5 -47 -32.5s-37.333 -12 -58 -12s-40.167 3.83301 -58.5 11.5
s-34.166 18.334 -47.499 32.001s-24 29.5 -32 47.5s-12 37.667 -12 59c0 20.667 4 40 12 58s18.667 33.667 32 47s29.166 23.833 47.499 31.5s37.833 11.5 58.5 11.5c20 0 39 -3.83301 57 -11.5s33.833 -18.167 47.5 -31.5s24.334 -29 32.001 -47s11.5 -37.333 11.5 -58z
M984.998 149.998c0 -20.667 -3.83398 -40.001 -11.501 -58.001s-18.167 -33.833 -31.5 -47.5s-29 -24.5 -47 -32.5s-37.333 -12 -58 -12s-40.167 3.83301 -58.5 11.5s-34.166 18.334 -47.499 32.001s-24 29.5 -32 47.5s-12 37.667 -12 59c0 20.667 4 40 12 58
s18.667 33.667 32 47s29.166 23.833 47.499 31.5s37.833 11.5 58.5 11.5c20 0 39 -3.83301 57 -11.5s33.833 -18.167 47.5 -31.5s24.334 -29 32.001 -47s11.5 -37.333 11.5 -58z" />
    <glyph glyph-name="guilsinglleft" unicode="&#x2039;" horiz-adv-x="287" 
d="M173 28l-147 225l147 225h88l-148 -225l148 -225h-88z" />
    <glyph glyph-name="guilsinglright" unicode="&#x203a;" horiz-adv-x="287" 
d="M114 28h-88l148 225l-148 225h88l147 -225z" />
    <glyph glyph-name="fraction" unicode="&#x2044;" horiz-adv-x="54" 
d="M-129 -16h-75l387 699h75z" />
    <glyph glyph-name="fraction" unicode="&#x2215;" horiz-adv-x="54" 
d="M-129 -16h-75l387 699h75z" />
    <glyph glyph-name="Euro" unicode="&#x20ac;" 
d="M519 468c-5.33301 -2.66699 -11.001 -4.33398 -17.001 -5.00098s-12 -1 -18 -1s-11.833 0.666992 -17.5 2l-17.5 4v28c0 35.333 -12.333 63.166 -37 83.499s-56.334 30.5 -95.001 30.5c-42 0 -77.167 -15.667 -105.5 -47s-47.833 -79.666 -58.5 -144.999h248l-12 -50
h-241c-0.666992 -5.33301 -1 -10.833 -1 -16.5v-18.5c0 -8 0.166992 -16 0.5 -24s0.833008 -15.667 1.5 -23h220l-12 -50h-199c10.667 -57.333 32.334 -101 65.001 -131s69.334 -45 110.001 -45c32 0 64.167 5 96.5 15s61.166 27.667 86.499 53v-88
c-25.333 -21.333 -54.166 -36 -86.499 -44s-65.166 -12 -98.499 -12s-65 5.66699 -95 17s-56.833 27.833 -80.5 49.5s-43.667 48 -60 79s-27.5 66.5 -33.5 106.5h-65l12 50h47c-0.666992 6 -1 12 -1 18v19v22c0 7.33301 0.666992 15 2 23h-60l12 50h53
c6 40.667 16.167 77.334 30.5 110.001s32.166 60.5 53.499 83.5s45.666 40.667 72.999 53s57.333 18.5 90 18.5c36 0 66.333 -5 91 -15s43.334 -25.667 56.001 -47v46c10 4 20.333 6 31 6c11.333 0 22 -2 32 -6v-199z" />
    <glyph glyph-name="trademark" unicode="&#x2122;" horiz-adv-x="1006" 
d="M411 595c-11.333 -2.66699 -20.334 -4 -27.001 -4c-8 0 -17.333 1.33301 -28 4v83h-91v-309h43c2.66699 -10.667 4 -19.334 4 -26.001c0 -7.33301 -1.33301 -15.333 -4 -24h-148c-2.66699 8.66699 -4 16.667 -4 24c0 6.66699 1.33301 15.334 4 26.001h43v309h-91v-83
c-10.667 -2.66699 -19.667 -4 -27 -4s-16.666 1.33301 -27.999 4v134h354v-134zM929.999 343c0 -3.33301 -0.333008 -6.83398 -1 -10.501s-2 -8.16699 -4 -13.5h-138c-2 5.33301 -3.33301 9.83301 -4 13.5s-1 7.16699 -1 10.5c0 6.66699 1.33301 15.334 4 26.001h40v318
l-112 -358h-58l-111 358v-318h41c2 -6 3.33301 -10.833 4 -14.5s1 -7.5 1 -11.5c0 -3.33301 -0.333008 -6.83301 -1 -10.5s-2 -8.16699 -4 -13.5h-132c-2.66699 5.33301 -4.33398 9.83301 -5.00098 13.5s-1 7.16699 -1 10.5c0 4 0.333008 7.83301 1 11.5
s2.33398 8.5 5.00098 14.5h39v310h-39c-2.66699 5.33301 -4.33398 9.83301 -5.00098 13.5s-1 7.5 -1 11.5c0 3.33301 0.333008 7 1 11s2.33398 8.66699 5.00098 14h132l103 -333l104 333h133c2.66699 -10 4 -18.333 4 -25c0 -7.33301 -1.66699 -15.666 -5 -24.999h-40v-310
h41c2.66699 -10.667 4 -19.334 4 -26.001z" />
    <glyph glyph-name="partialdiff" unicode="&#x2202;" 
d="M31 0l-0.000976562 66.0029l44.5 40c14.333 12.667 26.833 26.5 37.5 41.5s19.167 31.833 25.5 50.5s9.5 41.334 9.5 68.001c0 18.667 -2 35.667 -6 51h-108c-2 5.33301 -3.5 10.833 -4.5 16.5s-1.5 11.167 -1.5 16.5s0.5 10.833 1.5 16.5s2.5 11.167 4.5 16.5h88
c-4 15.333 -8 34.666 -12 57.999s-6 46.666 -6 69.999c0 13.333 2.83301 29.833 8.5 49.5s16 38.5 31 56.5s35.167 33.5 60.5 46.5s57.666 19.5 96.999 19.5c18.667 0 35.834 -1.33301 51.501 -4s30 -6.33398 43 -11.001s25.167 -9.66699 36.5 -15s22.333 -11 33 -17v-87
c-23.333 17.333 -47 31.666 -71 42.999s-52.667 17 -86 17c-44.667 0 -76.167 -10.167 -94.5 -30.5s-27.5 -47.166 -27.5 -80.499c0 -25.333 2 -46.833 6 -64.5s8.66699 -34.5 14 -50.5h192c2 -5.33301 3.5 -10.833 4.5 -16.5s1.5 -11.167 1.5 -16.5
s-0.5 -10.833 -1.5 -16.5s-2.5 -11.167 -4.5 -16.5h-171c1.33301 -7.33301 2.5 -14.833 3.5 -22.5s1.5 -15.834 1.5 -24.501c0 -23.333 -2.5 -44 -7.5 -62s-11.667 -34.833 -20 -50.5s-18 -30.167 -29 -43.5s-22.5 -26.333 -34.5 -39h284v111c12.667 4 25.334 6 38.001 6
c14 0 27 -2 39 -6v-186h-471z" />
    <glyph glyph-name="minus" unicode="&#x2212;" 
d="M24 299v71h490v-71h-490z" />
    <glyph glyph-name="integral" unicode="&#x222b;" 
 />
    <glyph glyph-name="notequal" unicode="&#x2260;" 
d="M237 201l-55 -111h-71l55 111h-142v71h178l62 125h-240v71h275l56 112h71l-56 -112h144v-71h-179l-62 -125h241v-71h-277z" />
    <glyph glyph-name="lessequal" unicode="&#x2264;" 
d="M33 40v71h473v-71h-473zM33 359v68l473 201v-78l-378 -157l378 -157v-77z" />
    <glyph glyph-name="greaterequal" unicode="&#x2265;" 
d="M33 40v71h473v-71h-473zM33 159v77l378 157l-378 157v78l473 -201v-68z" />
    <glyph glyph-name=".null" horiz-adv-x="0" 
 />
    <glyph glyph-name="nonmarkingreturn" horiz-adv-x="269" 
 />
    <glyph glyph-name="apple" horiz-adv-x="790" 
d="M731 420c3.33301 -17.333 4.33594 -36.665 3.00293 -57.998s-4 -42.666 -8 -63.999s-9 -41.666 -15 -60.999s-12 -35.333 -18 -48c-8 -18 -15.833 -34.167 -23.5 -48.5s-15.667 -27.833 -24 -40.5s-17.5 -24.834 -27.5 -36.501s-21.333 -23.167 -34 -34.5
c-6 -5.33301 -13.667 -10.833 -23 -16.5s-22.666 -10.167 -39.999 -13.5c-16.667 -3.33301 -31.334 -3 -44.001 1s-21.667 7.33301 -27 10c-16.667 7.33301 -30 12.5 -40 15.5s-19.667 4.5 -29 4.5c-10 0 -20 -1.5 -30 -4.5s-23 -8.16699 -39 -15.5
c-5.33301 -2.66699 -14.5 -5.83398 -27.5 -9.50098s-27.833 -4.16699 -44.5 -1.5c-12 2 -21.5 4.33301 -28.5 7s-13 5.66699 -18 9s-9.5 7 -13.5 11s-8.66699 8.33301 -14 13c-10 8.66699 -19.167 18.334 -27.5 29.001s-16.833 22.667 -25.5 36s-17.5 28.833 -26.5 46.5
s-18.833 38.5 -29.5 62.5c7.33301 4 14 7.16699 20 9.5s12 5.5 18 9.5s12.333 9.33301 19 16s14.667 16 24 28c8.66699 11.333 16.167 26.166 22.5 44.499s9.83301 36.166 10.5 53.499c0.666992 22 -2 41.667 -8 59s-12 31 -18 41c-4 6.66699 -7.83301 12.667 -11.5 18
s-8 10.5 -13 15.5s-10.833 10.167 -17.5 15.5s-15 11.666 -25 18.999l16 18c6.66699 7.33301 14 14 22 20c13.333 10.667 28.166 18.834 44.499 24.501s32.666 9.83398 48.999 12.501s31.666 3.66699 45.999 3s26.5 -2.33398 36.5 -5.00098c15.333 -4 29.333 -9.5 42 -16.5
s28.334 -10.5 47.001 -10.5c18 0 33.5 3.5 46.5 10.5s27.167 12.5 42.5 16.5c9.33301 2.66699 21.333 4.33398 36 5.00098s30 -0.333008 46 -3s32.167 -6.83398 48.5 -12.501s31.166 -13.834 44.499 -24.501c17.333 -13.333 34 -32.5 50 -57.5s28 -59.167 36 -102.5z
M384.003 616.001c-10.667 1.33301 -21.333 2.33496 -32 3.00195s-18.667 2.66699 -24 6c-9.33301 5.33301 -20.5 13 -33.5 23s-24.5 20 -34.5 30c-9.33301 9.33301 -16.833 20.166 -22.5 32.499s-9.5 24.166 -11.5 35.499c-2 9.33301 -2.83301 19.5 -2.5 30.5
s0.5 21.5 0.5 31.5c11.333 -2 23.166 -5.5 35.499 -10.5s22.5 -9.5 30.5 -13.5c6 -3.33301 14 -9 24 -17s20 -18.333 30 -31c8 -10 14.833 -21.5 20.5 -34.5s10.5 -24.5 14.5 -34.5c3.33301 -8.66699 5.33301 -17 6 -25s0.333984 -16.667 -0.999023 -26z" />
    </font>
</defs>
</svg>
